%TF.GenerationSoftware,KiCad,Pcbnew,10.0.6*%
%TF.CreationDate,2026-10-09T15:54:34-05:00*%
%TF.ProjectId,pcb,7063622e-6b69-4636-9164-5f7063625858,rev?*%
%TF.SameCoordinates,Original*%
%TF.FileFunction,Legend,Top*%
%TF.FilePolarity,Positive*%
%FSLAX46Y46*%
G04 Gerber Fmt 4.6, Leading zero omitted, Abs format (unit mm)*
G04 Created by KiCad (PCBNEW 10.0.6) date 2026-10-09 15:54:34*
%MOMM*%
%LPD*%
G01*
G04 APERTURE LIST*
%ADD10C,0.150000*%
%ADD11C,0.106680*%
%ADD12C,0.120000*%
%ADD13C,0.100000*%
%ADD14C,0.127000*%
%ADD15C,0.504000*%
G04 APERTURE END LIST*
D10*
X134483333Y-51454819D02*
X134150000Y-50978628D01*
X133911905Y-51454819D02*
X133911905Y-50454819D01*
X133911905Y-50454819D02*
X134292857Y-50454819D01*
X134292857Y-50454819D02*
X134388095Y-50502438D01*
X134388095Y-50502438D02*
X134435714Y-50550057D01*
X134435714Y-50550057D02*
X134483333Y-50645295D01*
X134483333Y-50645295D02*
X134483333Y-50788152D01*
X134483333Y-50788152D02*
X134435714Y-50883390D01*
X134435714Y-50883390D02*
X134388095Y-50931009D01*
X134388095Y-50931009D02*
X134292857Y-50978628D01*
X134292857Y-50978628D02*
X133911905Y-50978628D01*
X135435714Y-51454819D02*
X134864286Y-51454819D01*
X135150000Y-51454819D02*
X135150000Y-50454819D01*
X135150000Y-50454819D02*
X135054762Y-50597676D01*
X135054762Y-50597676D02*
X134959524Y-50692914D01*
X134959524Y-50692914D02*
X134864286Y-50740533D01*
X153046666Y-101874819D02*
X153046666Y-102589104D01*
X153046666Y-102589104D02*
X152999047Y-102731961D01*
X152999047Y-102731961D02*
X152903809Y-102827200D01*
X152903809Y-102827200D02*
X152760952Y-102874819D01*
X152760952Y-102874819D02*
X152665714Y-102874819D01*
X153475238Y-101970057D02*
X153522857Y-101922438D01*
X153522857Y-101922438D02*
X153618095Y-101874819D01*
X153618095Y-101874819D02*
X153856190Y-101874819D01*
X153856190Y-101874819D02*
X153951428Y-101922438D01*
X153951428Y-101922438D02*
X153999047Y-101970057D01*
X153999047Y-101970057D02*
X154046666Y-102065295D01*
X154046666Y-102065295D02*
X154046666Y-102160533D01*
X154046666Y-102160533D02*
X153999047Y-102303390D01*
X153999047Y-102303390D02*
X153427619Y-102874819D01*
X153427619Y-102874819D02*
X154046666Y-102874819D01*
X133335266Y-88211619D02*
X133335266Y-88925904D01*
X133335266Y-88925904D02*
X133287647Y-89068761D01*
X133287647Y-89068761D02*
X133192409Y-89164000D01*
X133192409Y-89164000D02*
X133049552Y-89211619D01*
X133049552Y-89211619D02*
X132954314Y-89211619D01*
X134335266Y-89211619D02*
X133763838Y-89211619D01*
X134049552Y-89211619D02*
X134049552Y-88211619D01*
X134049552Y-88211619D02*
X133954314Y-88354476D01*
X133954314Y-88354476D02*
X133859076Y-88449714D01*
X133859076Y-88449714D02*
X133763838Y-88497333D01*
X128653000Y-97876200D02*
X128753000Y-97923819D01*
X128753000Y-97923819D02*
X128919667Y-97923819D01*
X128919667Y-97923819D02*
X128986333Y-97876200D01*
X128986333Y-97876200D02*
X129019667Y-97828580D01*
X129019667Y-97828580D02*
X129053000Y-97733342D01*
X129053000Y-97733342D02*
X129053000Y-97638104D01*
X129053000Y-97638104D02*
X129019667Y-97542866D01*
X129019667Y-97542866D02*
X128986333Y-97495247D01*
X128986333Y-97495247D02*
X128919667Y-97447628D01*
X128919667Y-97447628D02*
X128786333Y-97400009D01*
X128786333Y-97400009D02*
X128719667Y-97352390D01*
X128719667Y-97352390D02*
X128686333Y-97304771D01*
X128686333Y-97304771D02*
X128653000Y-97209533D01*
X128653000Y-97209533D02*
X128653000Y-97114295D01*
X128653000Y-97114295D02*
X128686333Y-97019057D01*
X128686333Y-97019057D02*
X128719667Y-96971438D01*
X128719667Y-96971438D02*
X128786333Y-96923819D01*
X128786333Y-96923819D02*
X128953000Y-96923819D01*
X128953000Y-96923819D02*
X129053000Y-96971438D01*
X129353000Y-97923819D02*
X129353000Y-96923819D01*
X129353000Y-96923819D02*
X129519667Y-96923819D01*
X129519667Y-96923819D02*
X129619667Y-96971438D01*
X129619667Y-96971438D02*
X129686334Y-97066676D01*
X129686334Y-97066676D02*
X129719667Y-97161914D01*
X129719667Y-97161914D02*
X129753000Y-97352390D01*
X129753000Y-97352390D02*
X129753000Y-97495247D01*
X129753000Y-97495247D02*
X129719667Y-97685723D01*
X129719667Y-97685723D02*
X129686334Y-97780961D01*
X129686334Y-97780961D02*
X129619667Y-97876200D01*
X129619667Y-97876200D02*
X129519667Y-97923819D01*
X129519667Y-97923819D02*
X129353000Y-97923819D01*
X130019667Y-97638104D02*
X130353000Y-97638104D01*
X129953000Y-97923819D02*
X130186334Y-96923819D01*
X130186334Y-96923819D02*
X130419667Y-97923819D01*
X131336666Y-97876200D02*
X131436666Y-97923819D01*
X131436666Y-97923819D02*
X131603333Y-97923819D01*
X131603333Y-97923819D02*
X131669999Y-97876200D01*
X131669999Y-97876200D02*
X131703333Y-97828580D01*
X131703333Y-97828580D02*
X131736666Y-97733342D01*
X131736666Y-97733342D02*
X131736666Y-97638104D01*
X131736666Y-97638104D02*
X131703333Y-97542866D01*
X131703333Y-97542866D02*
X131669999Y-97495247D01*
X131669999Y-97495247D02*
X131603333Y-97447628D01*
X131603333Y-97447628D02*
X131469999Y-97400009D01*
X131469999Y-97400009D02*
X131403333Y-97352390D01*
X131403333Y-97352390D02*
X131369999Y-97304771D01*
X131369999Y-97304771D02*
X131336666Y-97209533D01*
X131336666Y-97209533D02*
X131336666Y-97114295D01*
X131336666Y-97114295D02*
X131369999Y-97019057D01*
X131369999Y-97019057D02*
X131403333Y-96971438D01*
X131403333Y-96971438D02*
X131469999Y-96923819D01*
X131469999Y-96923819D02*
X131636666Y-96923819D01*
X131636666Y-96923819D02*
X131736666Y-96971438D01*
X132436666Y-97828580D02*
X132403333Y-97876200D01*
X132403333Y-97876200D02*
X132303333Y-97923819D01*
X132303333Y-97923819D02*
X132236666Y-97923819D01*
X132236666Y-97923819D02*
X132136666Y-97876200D01*
X132136666Y-97876200D02*
X132070000Y-97780961D01*
X132070000Y-97780961D02*
X132036666Y-97685723D01*
X132036666Y-97685723D02*
X132003333Y-97495247D01*
X132003333Y-97495247D02*
X132003333Y-97352390D01*
X132003333Y-97352390D02*
X132036666Y-97161914D01*
X132036666Y-97161914D02*
X132070000Y-97066676D01*
X132070000Y-97066676D02*
X132136666Y-96971438D01*
X132136666Y-96971438D02*
X132236666Y-96923819D01*
X132236666Y-96923819D02*
X132303333Y-96923819D01*
X132303333Y-96923819D02*
X132403333Y-96971438D01*
X132403333Y-96971438D02*
X132436666Y-97019057D01*
X133070000Y-97923819D02*
X132736666Y-97923819D01*
X132736666Y-97923819D02*
X132736666Y-96923819D01*
X133776666Y-96923819D02*
X134010000Y-97923819D01*
X134010000Y-97923819D02*
X134243333Y-96923819D01*
X134476666Y-97923819D02*
X134476666Y-96923819D01*
X134476666Y-96923819D02*
X134643333Y-96923819D01*
X134643333Y-96923819D02*
X134743333Y-96971438D01*
X134743333Y-96971438D02*
X134810000Y-97066676D01*
X134810000Y-97066676D02*
X134843333Y-97161914D01*
X134843333Y-97161914D02*
X134876666Y-97352390D01*
X134876666Y-97352390D02*
X134876666Y-97495247D01*
X134876666Y-97495247D02*
X134843333Y-97685723D01*
X134843333Y-97685723D02*
X134810000Y-97780961D01*
X134810000Y-97780961D02*
X134743333Y-97876200D01*
X134743333Y-97876200D02*
X134643333Y-97923819D01*
X134643333Y-97923819D02*
X134476666Y-97923819D01*
X135176666Y-97923819D02*
X135176666Y-96923819D01*
X135176666Y-96923819D02*
X135343333Y-96923819D01*
X135343333Y-96923819D02*
X135443333Y-96971438D01*
X135443333Y-96971438D02*
X135510000Y-97066676D01*
X135510000Y-97066676D02*
X135543333Y-97161914D01*
X135543333Y-97161914D02*
X135576666Y-97352390D01*
X135576666Y-97352390D02*
X135576666Y-97495247D01*
X135576666Y-97495247D02*
X135543333Y-97685723D01*
X135543333Y-97685723D02*
X135510000Y-97780961D01*
X135510000Y-97780961D02*
X135443333Y-97876200D01*
X135443333Y-97876200D02*
X135343333Y-97923819D01*
X135343333Y-97923819D02*
X135176666Y-97923819D01*
X136716667Y-96971438D02*
X136650000Y-96923819D01*
X136650000Y-96923819D02*
X136550000Y-96923819D01*
X136550000Y-96923819D02*
X136450000Y-96971438D01*
X136450000Y-96971438D02*
X136383334Y-97066676D01*
X136383334Y-97066676D02*
X136350000Y-97161914D01*
X136350000Y-97161914D02*
X136316667Y-97352390D01*
X136316667Y-97352390D02*
X136316667Y-97495247D01*
X136316667Y-97495247D02*
X136350000Y-97685723D01*
X136350000Y-97685723D02*
X136383334Y-97780961D01*
X136383334Y-97780961D02*
X136450000Y-97876200D01*
X136450000Y-97876200D02*
X136550000Y-97923819D01*
X136550000Y-97923819D02*
X136616667Y-97923819D01*
X136616667Y-97923819D02*
X136716667Y-97876200D01*
X136716667Y-97876200D02*
X136750000Y-97828580D01*
X136750000Y-97828580D02*
X136750000Y-97495247D01*
X136750000Y-97495247D02*
X136616667Y-97495247D01*
X137050000Y-97923819D02*
X137050000Y-96923819D01*
X137050000Y-96923819D02*
X137450000Y-97923819D01*
X137450000Y-97923819D02*
X137450000Y-96923819D01*
X137783333Y-97923819D02*
X137783333Y-96923819D01*
X137783333Y-96923819D02*
X137950000Y-96923819D01*
X137950000Y-96923819D02*
X138050000Y-96971438D01*
X138050000Y-96971438D02*
X138116667Y-97066676D01*
X138116667Y-97066676D02*
X138150000Y-97161914D01*
X138150000Y-97161914D02*
X138183333Y-97352390D01*
X138183333Y-97352390D02*
X138183333Y-97495247D01*
X138183333Y-97495247D02*
X138150000Y-97685723D01*
X138150000Y-97685723D02*
X138116667Y-97780961D01*
X138116667Y-97780961D02*
X138050000Y-97876200D01*
X138050000Y-97876200D02*
X137950000Y-97923819D01*
X137950000Y-97923819D02*
X137783333Y-97923819D01*
X101836667Y-72203200D02*
X101979524Y-72250819D01*
X101979524Y-72250819D02*
X102217619Y-72250819D01*
X102217619Y-72250819D02*
X102312857Y-72203200D01*
X102312857Y-72203200D02*
X102360476Y-72155580D01*
X102360476Y-72155580D02*
X102408095Y-72060342D01*
X102408095Y-72060342D02*
X102408095Y-71965104D01*
X102408095Y-71965104D02*
X102360476Y-71869866D01*
X102360476Y-71869866D02*
X102312857Y-71822247D01*
X102312857Y-71822247D02*
X102217619Y-71774628D01*
X102217619Y-71774628D02*
X102027143Y-71727009D01*
X102027143Y-71727009D02*
X101931905Y-71679390D01*
X101931905Y-71679390D02*
X101884286Y-71631771D01*
X101884286Y-71631771D02*
X101836667Y-71536533D01*
X101836667Y-71536533D02*
X101836667Y-71441295D01*
X101836667Y-71441295D02*
X101884286Y-71346057D01*
X101884286Y-71346057D02*
X101931905Y-71298438D01*
X101931905Y-71298438D02*
X102027143Y-71250819D01*
X102027143Y-71250819D02*
X102265238Y-71250819D01*
X102265238Y-71250819D02*
X102408095Y-71298438D01*
X102741429Y-71250819D02*
X102979524Y-72250819D01*
X102979524Y-72250819D02*
X103170000Y-71536533D01*
X103170000Y-71536533D02*
X103360476Y-72250819D01*
X103360476Y-72250819D02*
X103598572Y-71250819D01*
X104503333Y-72250819D02*
X103931905Y-72250819D01*
X104217619Y-72250819D02*
X104217619Y-71250819D01*
X104217619Y-71250819D02*
X104122381Y-71393676D01*
X104122381Y-71393676D02*
X104027143Y-71488914D01*
X104027143Y-71488914D02*
X103931905Y-71536533D01*
X105886667Y-111603200D02*
X106029524Y-111650819D01*
X106029524Y-111650819D02*
X106267619Y-111650819D01*
X106267619Y-111650819D02*
X106362857Y-111603200D01*
X106362857Y-111603200D02*
X106410476Y-111555580D01*
X106410476Y-111555580D02*
X106458095Y-111460342D01*
X106458095Y-111460342D02*
X106458095Y-111365104D01*
X106458095Y-111365104D02*
X106410476Y-111269866D01*
X106410476Y-111269866D02*
X106362857Y-111222247D01*
X106362857Y-111222247D02*
X106267619Y-111174628D01*
X106267619Y-111174628D02*
X106077143Y-111127009D01*
X106077143Y-111127009D02*
X105981905Y-111079390D01*
X105981905Y-111079390D02*
X105934286Y-111031771D01*
X105934286Y-111031771D02*
X105886667Y-110936533D01*
X105886667Y-110936533D02*
X105886667Y-110841295D01*
X105886667Y-110841295D02*
X105934286Y-110746057D01*
X105934286Y-110746057D02*
X105981905Y-110698438D01*
X105981905Y-110698438D02*
X106077143Y-110650819D01*
X106077143Y-110650819D02*
X106315238Y-110650819D01*
X106315238Y-110650819D02*
X106458095Y-110698438D01*
X106791429Y-110650819D02*
X107029524Y-111650819D01*
X107029524Y-111650819D02*
X107220000Y-110936533D01*
X107220000Y-110936533D02*
X107410476Y-111650819D01*
X107410476Y-111650819D02*
X107648572Y-110650819D01*
X107981905Y-110746057D02*
X108029524Y-110698438D01*
X108029524Y-110698438D02*
X108124762Y-110650819D01*
X108124762Y-110650819D02*
X108362857Y-110650819D01*
X108362857Y-110650819D02*
X108458095Y-110698438D01*
X108458095Y-110698438D02*
X108505714Y-110746057D01*
X108505714Y-110746057D02*
X108553333Y-110841295D01*
X108553333Y-110841295D02*
X108553333Y-110936533D01*
X108553333Y-110936533D02*
X108505714Y-111079390D01*
X108505714Y-111079390D02*
X107934286Y-111650819D01*
X107934286Y-111650819D02*
X108553333Y-111650819D01*
X140874819Y-58681904D02*
X141684342Y-58681904D01*
X141684342Y-58681904D02*
X141779580Y-58634285D01*
X141779580Y-58634285D02*
X141827200Y-58586666D01*
X141827200Y-58586666D02*
X141874819Y-58491428D01*
X141874819Y-58491428D02*
X141874819Y-58300952D01*
X141874819Y-58300952D02*
X141827200Y-58205714D01*
X141827200Y-58205714D02*
X141779580Y-58158095D01*
X141779580Y-58158095D02*
X141684342Y-58110476D01*
X141684342Y-58110476D02*
X140874819Y-58110476D01*
X140970057Y-57681904D02*
X140922438Y-57634285D01*
X140922438Y-57634285D02*
X140874819Y-57539047D01*
X140874819Y-57539047D02*
X140874819Y-57300952D01*
X140874819Y-57300952D02*
X140922438Y-57205714D01*
X140922438Y-57205714D02*
X140970057Y-57158095D01*
X140970057Y-57158095D02*
X141065295Y-57110476D01*
X141065295Y-57110476D02*
X141160533Y-57110476D01*
X141160533Y-57110476D02*
X141303390Y-57158095D01*
X141303390Y-57158095D02*
X141874819Y-57729523D01*
X141874819Y-57729523D02*
X141874819Y-57110476D01*
D11*
X167588450Y-70060391D02*
X167588450Y-70693698D01*
X167588450Y-70693698D02*
X167625704Y-70768204D01*
X167625704Y-70768204D02*
X167662957Y-70805458D01*
X167662957Y-70805458D02*
X167737464Y-70842711D01*
X167737464Y-70842711D02*
X167886477Y-70842711D01*
X167886477Y-70842711D02*
X167960984Y-70805458D01*
X167960984Y-70805458D02*
X167998237Y-70768204D01*
X167998237Y-70768204D02*
X168035490Y-70693698D01*
X168035490Y-70693698D02*
X168035490Y-70060391D01*
X168817810Y-70842711D02*
X168370770Y-70842711D01*
X168594290Y-70842711D02*
X168594290Y-70060391D01*
X168594290Y-70060391D02*
X168519783Y-70172151D01*
X168519783Y-70172151D02*
X168445277Y-70246658D01*
X168445277Y-70246658D02*
X168370770Y-70283911D01*
%TO.C,R1*%
D12*
X131780000Y-52920000D02*
X132730000Y-52920000D01*
X137520000Y-52920000D02*
X136570000Y-52920000D01*
X132730000Y-52000000D02*
X136570000Y-52000000D01*
X136570000Y-53840000D01*
X132730000Y-53840000D01*
X132730000Y-52000000D01*
%TO.C,J2*%
X152000000Y-103420000D02*
X153380000Y-103420000D01*
X152000000Y-104800000D02*
X152000000Y-103420000D01*
X152000000Y-106070000D02*
X152000000Y-123960000D01*
X152000000Y-106070000D02*
X154760000Y-106070000D01*
X152000000Y-123960000D02*
X154760000Y-123960000D01*
X154760000Y-106070000D02*
X154760000Y-123960000D01*
%TO.C,J1*%
X119724000Y-73847000D02*
X119724000Y-101025000D01*
X119724000Y-73847000D02*
X147156000Y-73847000D01*
X128300000Y-98298000D02*
X128300000Y-100958000D01*
X135980000Y-98298000D02*
X128300000Y-98298000D01*
X135980000Y-98298000D02*
X135980000Y-100958000D01*
X135980000Y-100958000D02*
X128300000Y-100958000D01*
X137250000Y-98298000D02*
X138580000Y-98298000D01*
X138580000Y-98298000D02*
X138580000Y-99628000D01*
X147156000Y-73847000D02*
X147029000Y-101025000D01*
X147156000Y-78927000D02*
X119724000Y-78927000D01*
X147156000Y-95818000D02*
X119724000Y-95818000D01*
X147156000Y-101025000D02*
X119724000Y-101025000D01*
%TO.C,SW1*%
X96185000Y-72685000D02*
X110155000Y-72685000D01*
X96185000Y-86655000D02*
X96185000Y-72685000D01*
X110155000Y-72685000D02*
X110155000Y-86655000D01*
X110155000Y-86655000D02*
X96185000Y-86655000D01*
%TO.C,SW2*%
X100235000Y-112085000D02*
X114205000Y-112085000D01*
X100235000Y-126055000D02*
X100235000Y-112085000D01*
X114205000Y-112085000D02*
X114205000Y-126055000D01*
X114205000Y-126055000D02*
X100235000Y-126055000D01*
%TO.C,U2*%
X127980000Y-56040000D02*
X140230000Y-56040000D01*
X127980000Y-61800000D02*
X127980000Y-56040000D01*
X140240000Y-56050000D02*
X140240000Y-61790000D01*
X140240000Y-61800000D02*
X127980000Y-61800000D01*
X140520000Y-55760000D02*
X138520000Y-55760000D01*
X140520000Y-55760000D02*
X140520000Y-57370000D01*
%TO.C,U1*%
D13*
X160220000Y-90293000D02*
X160220000Y-73148000D01*
X162125000Y-92198000D02*
X176095000Y-92198000D01*
D14*
X164615000Y-71243000D02*
X164618728Y-70232728D01*
X165118728Y-69733000D02*
X173114000Y-69733000D01*
X173614000Y-70233000D02*
X173614000Y-71243000D01*
D13*
X176095000Y-71243000D02*
X162125000Y-71243000D01*
X178000000Y-90293000D02*
X178000000Y-73148000D01*
X160220000Y-73144000D02*
G75*
G02*
X162125000Y-71239000I1905001J-1D01*
G01*
X162125000Y-92198000D02*
G75*
G02*
X160220000Y-90293000I0J1905000D01*
G01*
D14*
X164618728Y-70232728D02*
G75*
G02*
X165118728Y-69732998I500022J-292D01*
G01*
X173114000Y-69733000D02*
G75*
G02*
X173614000Y-70233000I0J-500000D01*
G01*
D13*
X176095000Y-71243000D02*
G75*
G02*
X178000000Y-73148000I0J-1905000D01*
G01*
X178000000Y-90293000D02*
G75*
G02*
X176095000Y-92198000I-1905000J0D01*
G01*
D15*
X160262000Y-71659000D02*
G75*
G02*
X159758000Y-71659000I-252000J0D01*
G01*
X159758000Y-71659000D02*
G75*
G02*
X160262000Y-71659000I252000J0D01*
G01*
X161405000Y-72539000D02*
G75*
G02*
X160901000Y-72539000I-252000J0D01*
G01*
X160901000Y-72539000D02*
G75*
G02*
X161405000Y-72539000I252000J0D01*
G01*
%TD*%
M02*
