%TF.GenerationSoftware,KiCad,Pcbnew,10.0.6*%
%TF.CreationDate,2026-10-09T15:54:34-05:00*%
%TF.ProjectId,pcb,7063622e-6b69-4636-9164-5f7063625858,rev?*%
%TF.SameCoordinates,Original*%
%TF.FileFunction,Copper,L2,Bot*%
%TF.FilePolarity,Positive*%
%FSLAX46Y46*%
G04 Gerber Fmt 4.6, Leading zero omitted, Abs format (unit mm)*
G04 Created by KiCad (PCBNEW 10.0.6) date 2026-10-09 15:54:34*
%MOMM*%
%LPD*%
G01*
G04 APERTURE LIST*
%TA.AperFunction,ComponentPad*%
%ADD10C,1.400000*%
%TD*%
%TA.AperFunction,ComponentPad*%
%ADD11R,1.700000X1.700000*%
%TD*%
%TA.AperFunction,ComponentPad*%
%ADD12C,1.700000*%
%TD*%
%TA.AperFunction,ComponentPad*%
%ADD13O,1.700000X1.700000*%
%TD*%
%TA.AperFunction,ComponentPad*%
%ADD14C,2.200000*%
%TD*%
%TA.AperFunction,ComponentPad*%
%ADD15R,1.500000X1.500000*%
%TD*%
%TA.AperFunction,ComponentPad*%
%ADD16C,1.500000*%
%TD*%
G04 APERTURE END LIST*
D10*
%TO.P,R1,1*%
%TO.N,+3.3V*%
X130840000Y-52920000D03*
%TO.P,R1,2*%
%TO.N,/DHT11_DATA*%
X138460000Y-52920000D03*
%TD*%
D11*
%TO.P,J2,1,Pin_1_1*%
%TO.N,+3.3V*%
X153380000Y-104800000D03*
D12*
%TO.P,J2,2,Pin_2_2*%
%TO.N,GND*%
X153380000Y-107340000D03*
%TO.P,J2,3,Pin_3_3*%
%TO.N,/SCL*%
X153380000Y-109880000D03*
%TO.P,J2,4,Pin_4_4*%
%TO.N,/SDA*%
X153380000Y-112420000D03*
%TO.P,J2,5,Pin_5_5*%
%TO.N,unconnected-(J2-Pin_5-Pad5)*%
X153380000Y-114960000D03*
%TO.P,J2,6,Pin_6_6*%
%TO.N,unconnected-(J2-Pin_6-Pad6)*%
X153380000Y-117500000D03*
%TO.P,J2,7,Pin_7_7*%
%TO.N,unconnected-(J2-Pin_7-Pad7)*%
X153380000Y-120040000D03*
%TO.P,J2,8,Pin_8_8*%
%TO.N,unconnected-(J2-Pin_8-Pad8)*%
X153380000Y-122580000D03*
%TD*%
D11*
%TO.P,J1,1,Pin_1_1*%
%TO.N,GND*%
X137250000Y-99628000D03*
D13*
%TO.P,J1,2,Pin_2_2*%
%TO.N,+3.3V*%
X134710000Y-99628000D03*
%TO.P,J1,3,Pin_3_3*%
%TO.N,/SCL*%
X132170000Y-99628000D03*
%TO.P,J1,4,Pin_4_4*%
%TO.N,/SDA*%
X129630000Y-99628000D03*
%TD*%
D14*
%TO.P,SW1,1,1_1*%
%TO.N,/GPIO2*%
X105710000Y-74590000D03*
%TO.P,SW1,2,2_2*%
%TO.N,GND*%
X99360000Y-77130000D03*
%TD*%
%TO.P,SW2,1,1_1*%
%TO.N,/GPIO3*%
X109760000Y-113990000D03*
%TO.P,SW2,2,2_2*%
%TO.N,GND*%
X103410000Y-116530000D03*
%TD*%
D15*
%TO.P,U2,1,VDD_1*%
%TO.N,+3.3V*%
X137920000Y-58920000D03*
D16*
%TO.P,U2,2,DATA_2*%
%TO.N,/DHT11_DATA*%
X135380000Y-58920000D03*
%TO.P,U2,3,NC_3*%
%TO.N,unconnected-(U2-NC-Pad3)*%
X132840000Y-58920000D03*
%TO.P,U2,4,GND_4*%
%TO.N,GND*%
X130300000Y-58920000D03*
%TD*%
%TA.AperFunction,Conductor*%
%TO.N,GND*%
G36*
X139581264Y-31237028D02*
G01*
X139627659Y-31289270D01*
X139639500Y-31342152D01*
X139639500Y-40435891D01*
X139673608Y-40563187D01*
X139705722Y-40618809D01*
X139739500Y-40677314D01*
X139832686Y-40770500D01*
X139946814Y-40836392D01*
X140074108Y-40870500D01*
X144225500Y-40870500D01*
X144292539Y-40890185D01*
X144338294Y-40942989D01*
X144349500Y-40994500D01*
X144349500Y-49225891D01*
X144383608Y-49353187D01*
X144416554Y-49410250D01*
X144449500Y-49467314D01*
X144542686Y-49560500D01*
X144656814Y-49626392D01*
X144784108Y-49660500D01*
X148335500Y-49660500D01*
X148402539Y-49680185D01*
X148448294Y-49732989D01*
X148459500Y-49784500D01*
X148459500Y-58815891D01*
X148493608Y-58943187D01*
X148510625Y-58972661D01*
X148559500Y-59057314D01*
X148652686Y-59150500D01*
X148751521Y-59207563D01*
X148760637Y-59212826D01*
X148766814Y-59216392D01*
X148894108Y-59250500D01*
X153155500Y-59250500D01*
X153222539Y-59270185D01*
X153268294Y-59322989D01*
X153279500Y-59374500D01*
X153279500Y-62854108D01*
X153279500Y-62985892D01*
X153285538Y-63008426D01*
X153313608Y-63113187D01*
X153344038Y-63165893D01*
X153379500Y-63227314D01*
X153472686Y-63320500D01*
X153586814Y-63386392D01*
X153714108Y-63420500D01*
X157775500Y-63420500D01*
X157842539Y-63440185D01*
X157888294Y-63492989D01*
X157899500Y-63544500D01*
X157899500Y-67525891D01*
X157933608Y-67653187D01*
X157953165Y-67687060D01*
X157999500Y-67767314D01*
X158092686Y-67860500D01*
X158206814Y-67926392D01*
X158334108Y-67960500D01*
X199425500Y-67960500D01*
X199492539Y-67980185D01*
X199538294Y-68032989D01*
X199549500Y-68084500D01*
X199549500Y-71815500D01*
X199529815Y-71882539D01*
X199477011Y-71928294D01*
X199425500Y-71939500D01*
X195374108Y-71939500D01*
X195246812Y-71973608D01*
X195132686Y-72039500D01*
X195132683Y-72039502D01*
X195039502Y-72132683D01*
X195039500Y-72132686D01*
X194973608Y-72246812D01*
X194939500Y-72374108D01*
X194939500Y-76565500D01*
X194919815Y-76632539D01*
X194867011Y-76678294D01*
X194815500Y-76689500D01*
X190474108Y-76689500D01*
X190346812Y-76723608D01*
X190232686Y-76789500D01*
X190232683Y-76789502D01*
X190139502Y-76882683D01*
X190139500Y-76882686D01*
X190073608Y-76996812D01*
X190039500Y-77124108D01*
X190039500Y-80675500D01*
X190019815Y-80742539D01*
X189967011Y-80788294D01*
X189915500Y-80799500D01*
X185644108Y-80799500D01*
X185516812Y-80833608D01*
X185402686Y-80899500D01*
X185402683Y-80899502D01*
X185309502Y-80992683D01*
X185309500Y-80992686D01*
X185243608Y-81106812D01*
X185209500Y-81234108D01*
X185209500Y-85435500D01*
X185189815Y-85502539D01*
X185137011Y-85548294D01*
X185085500Y-85559500D01*
X180744108Y-85559500D01*
X180616812Y-85593608D01*
X180502686Y-85659500D01*
X180502683Y-85659502D01*
X180409502Y-85752683D01*
X180409500Y-85752686D01*
X180343608Y-85866812D01*
X180309500Y-85994108D01*
X180309500Y-93935500D01*
X180289815Y-94002539D01*
X180237011Y-94048294D01*
X180185500Y-94059500D01*
X177064108Y-94059500D01*
X176936812Y-94093608D01*
X176822686Y-94159500D01*
X176822683Y-94159502D01*
X176729502Y-94252683D01*
X176729500Y-94252686D01*
X176663608Y-94366812D01*
X176629500Y-94494108D01*
X176629500Y-98905500D01*
X176609815Y-98972539D01*
X176557011Y-99018294D01*
X176505500Y-99029500D01*
X172024108Y-99029500D01*
X171896812Y-99063608D01*
X171782686Y-99129500D01*
X171782683Y-99129502D01*
X171689502Y-99222683D01*
X171689500Y-99222686D01*
X171623608Y-99336812D01*
X171589500Y-99464108D01*
X171589500Y-104355891D01*
X171623608Y-104483187D01*
X171656554Y-104540250D01*
X171689500Y-104597314D01*
X171782686Y-104690500D01*
X171896814Y-104756392D01*
X172024108Y-104790500D01*
X176365500Y-104790500D01*
X176432539Y-104810185D01*
X176478294Y-104862989D01*
X176489500Y-104914500D01*
X176489500Y-117704108D01*
X176489500Y-117835892D01*
X176506260Y-117898442D01*
X176523608Y-117963187D01*
X176537311Y-117986921D01*
X176589500Y-118077314D01*
X176682686Y-118170500D01*
X176796814Y-118236392D01*
X176924108Y-118270500D01*
X180185500Y-118270500D01*
X180252539Y-118290185D01*
X180298294Y-118342989D01*
X180309500Y-118394500D01*
X180309500Y-127555891D01*
X180343608Y-127683187D01*
X180345170Y-127685892D01*
X180409500Y-127797314D01*
X180502686Y-127890500D01*
X180616814Y-127956392D01*
X180744108Y-127990500D01*
X185015500Y-127990500D01*
X185082539Y-128010185D01*
X185128294Y-128062989D01*
X185139500Y-128114500D01*
X185139500Y-140635500D01*
X185119815Y-140702539D01*
X185067011Y-140748294D01*
X185015500Y-140759500D01*
X167954500Y-140759500D01*
X167887461Y-140739815D01*
X167841706Y-140687011D01*
X167830500Y-140635500D01*
X167830500Y-136364110D01*
X167830500Y-136364108D01*
X167796392Y-136236814D01*
X167730500Y-136122686D01*
X167637314Y-136029500D01*
X167580250Y-135996554D01*
X167523187Y-135963608D01*
X167459539Y-135946554D01*
X167395892Y-135929500D01*
X167395891Y-135929500D01*
X162984500Y-135929500D01*
X162917461Y-135909815D01*
X162871706Y-135857011D01*
X162860500Y-135805500D01*
X162860500Y-131534110D01*
X162860500Y-131534108D01*
X162826392Y-131406814D01*
X162760500Y-131292686D01*
X162667314Y-131199500D01*
X162610250Y-131166554D01*
X162553187Y-131133608D01*
X162489539Y-131116554D01*
X162425892Y-131099500D01*
X162425891Y-131099500D01*
X154404500Y-131099500D01*
X154337461Y-131079815D01*
X154291706Y-131027011D01*
X154280500Y-130975500D01*
X154280500Y-126634110D01*
X154280500Y-126634108D01*
X154246392Y-126506814D01*
X154180500Y-126392686D01*
X154087314Y-126299500D01*
X154030250Y-126266554D01*
X153973187Y-126233608D01*
X153909539Y-126216554D01*
X153845892Y-126199500D01*
X153845891Y-126199500D01*
X149504500Y-126199500D01*
X149437461Y-126179815D01*
X149391706Y-126127011D01*
X149380500Y-126075500D01*
X149380500Y-122744110D01*
X149380500Y-122744108D01*
X149346392Y-122616814D01*
X149280500Y-122502686D01*
X149187314Y-122409500D01*
X149130250Y-122376554D01*
X149073187Y-122343608D01*
X149009539Y-122326554D01*
X148945892Y-122309500D01*
X148945891Y-122309500D01*
X144684500Y-122309500D01*
X144617461Y-122289815D01*
X144571706Y-122237011D01*
X144560500Y-122185500D01*
X144560500Y-117844110D01*
X144560500Y-117844108D01*
X144526392Y-117716814D01*
X144460500Y-117602686D01*
X144367314Y-117509500D01*
X144300107Y-117470698D01*
X144253187Y-117443608D01*
X144189539Y-117426554D01*
X144125892Y-117409500D01*
X144125891Y-117409500D01*
X140504500Y-117409500D01*
X140437461Y-117389815D01*
X140391706Y-117337011D01*
X140380500Y-117285500D01*
X140380500Y-114024110D01*
X140380500Y-114024108D01*
X140346392Y-113896814D01*
X140280500Y-113782686D01*
X140187314Y-113689500D01*
X140079912Y-113627491D01*
X140073187Y-113623608D01*
X140009539Y-113606554D01*
X139945892Y-113589500D01*
X130865892Y-113589500D01*
X130734108Y-113589500D01*
X130606812Y-113623608D01*
X130492686Y-113689500D01*
X130492683Y-113689502D01*
X130399502Y-113782683D01*
X130399500Y-113782686D01*
X130333608Y-113896812D01*
X130299500Y-114024108D01*
X130299500Y-117285500D01*
X130279815Y-117352539D01*
X130227011Y-117398294D01*
X130175500Y-117409500D01*
X126624108Y-117409500D01*
X126496812Y-117443608D01*
X126382686Y-117509500D01*
X126382683Y-117509502D01*
X126289502Y-117602683D01*
X126289500Y-117602686D01*
X126223608Y-117716812D01*
X126189500Y-117844108D01*
X126189500Y-122185500D01*
X126169815Y-122252539D01*
X126117011Y-122298294D01*
X126065500Y-122309500D01*
X121724108Y-122309500D01*
X121596812Y-122343608D01*
X121482686Y-122409500D01*
X121482683Y-122409502D01*
X121389502Y-122502683D01*
X121389500Y-122502686D01*
X121323608Y-122616812D01*
X121289500Y-122744108D01*
X121289500Y-126995500D01*
X121269815Y-127062539D01*
X121217011Y-127108294D01*
X121165500Y-127119500D01*
X116924108Y-127119500D01*
X116796812Y-127153608D01*
X116682686Y-127219500D01*
X116682683Y-127219502D01*
X116589502Y-127312683D01*
X116589500Y-127312686D01*
X116523608Y-127426812D01*
X116489500Y-127554108D01*
X116489500Y-131075500D01*
X116469815Y-131142539D01*
X116417011Y-131188294D01*
X116365500Y-131199500D01*
X112024108Y-131199500D01*
X111896812Y-131233608D01*
X111782686Y-131299500D01*
X111782683Y-131299502D01*
X111689502Y-131392683D01*
X111689500Y-131392686D01*
X111623608Y-131506812D01*
X111589500Y-131634108D01*
X111589500Y-135595500D01*
X111569815Y-135662539D01*
X111517011Y-135708294D01*
X111465500Y-135719500D01*
X108034108Y-135719500D01*
X107906812Y-135753608D01*
X107792686Y-135819500D01*
X107792683Y-135819502D01*
X107699502Y-135912683D01*
X107699500Y-135912686D01*
X107633608Y-136026812D01*
X107599500Y-136154108D01*
X107599500Y-140495500D01*
X107579815Y-140562539D01*
X107527011Y-140608294D01*
X107475500Y-140619500D01*
X90321790Y-140619500D01*
X90254751Y-140599815D01*
X90208996Y-140547011D01*
X90197791Y-140496039D01*
X90123224Y-123355039D01*
X90142617Y-123287915D01*
X90195221Y-123241931D01*
X90247223Y-123230500D01*
X94487432Y-123230500D01*
X94488441Y-123230504D01*
X94489141Y-123230509D01*
X94551815Y-123231020D01*
X94551818Y-123231019D01*
X94551928Y-123231020D01*
X94553315Y-123230838D01*
X94554356Y-123230706D01*
X94555773Y-123230531D01*
X94555889Y-123230500D01*
X94555892Y-123230500D01*
X94617350Y-123214031D01*
X94617815Y-123213908D01*
X94679382Y-123197949D01*
X94679384Y-123197947D01*
X94679502Y-123197917D01*
X94680972Y-123197309D01*
X94681866Y-123196942D01*
X94683098Y-123196443D01*
X94702418Y-123185287D01*
X94738199Y-123164629D01*
X94738796Y-123164288D01*
X94794043Y-123132989D01*
X94794046Y-123132985D01*
X94794139Y-123132933D01*
X94795238Y-123132091D01*
X94796051Y-123131472D01*
X94797234Y-123130579D01*
X94797311Y-123130501D01*
X94797314Y-123130500D01*
X94842293Y-123085519D01*
X94842650Y-123085165D01*
X94887985Y-123040565D01*
X94887985Y-123040564D01*
X94888060Y-123040491D01*
X94888902Y-123039395D01*
X94889510Y-123038610D01*
X94890436Y-123037422D01*
X94890496Y-123037317D01*
X94890500Y-123037314D01*
X94922263Y-122982297D01*
X94922568Y-122981773D01*
X94954804Y-122926977D01*
X94954804Y-122926975D01*
X94954856Y-122926888D01*
X94955382Y-122925621D01*
X94955756Y-122924729D01*
X94956361Y-122923300D01*
X94956392Y-122923186D01*
X94972911Y-122861534D01*
X94989947Y-122799965D01*
X94989947Y-122799958D01*
X94989976Y-122799854D01*
X94990172Y-122798375D01*
X94990302Y-122797419D01*
X94990500Y-122796002D01*
X94990500Y-122732564D01*
X94990504Y-122731554D01*
X95016734Y-119509993D01*
X95021022Y-118983389D01*
X101039500Y-118983389D01*
X101039500Y-119156611D01*
X101066598Y-119327701D01*
X101120127Y-119492445D01*
X101198768Y-119646788D01*
X101300586Y-119786928D01*
X101423072Y-119909414D01*
X101563212Y-120011232D01*
X101717555Y-120089873D01*
X101882299Y-120143402D01*
X102053389Y-120170500D01*
X102053390Y-120170500D01*
X102226610Y-120170500D01*
X102226611Y-120170500D01*
X102397701Y-120143402D01*
X102562445Y-120089873D01*
X102716788Y-120011232D01*
X102856928Y-119909414D01*
X102979414Y-119786928D01*
X103081232Y-119646788D01*
X103159873Y-119492445D01*
X103213402Y-119327701D01*
X103240500Y-119156611D01*
X103240500Y-118983389D01*
X103230854Y-118922486D01*
X104969500Y-118922486D01*
X104969500Y-119217513D01*
X105001571Y-119461113D01*
X105008007Y-119509993D01*
X105082212Y-119786930D01*
X105084361Y-119794951D01*
X105084364Y-119794961D01*
X105197254Y-120067500D01*
X105197258Y-120067510D01*
X105344761Y-120322993D01*
X105524352Y-120557040D01*
X105524358Y-120557047D01*
X105732952Y-120765641D01*
X105732959Y-120765647D01*
X105967006Y-120945238D01*
X106222489Y-121092741D01*
X106222490Y-121092741D01*
X106222493Y-121092743D01*
X106495048Y-121205639D01*
X106780007Y-121281993D01*
X107072494Y-121320500D01*
X107072501Y-121320500D01*
X107367499Y-121320500D01*
X107367506Y-121320500D01*
X107659993Y-121281993D01*
X107944952Y-121205639D01*
X108217507Y-121092743D01*
X108472994Y-120945238D01*
X108707042Y-120765646D01*
X108915646Y-120557042D01*
X109095238Y-120322994D01*
X109242743Y-120067507D01*
X109355639Y-119794952D01*
X109431993Y-119509993D01*
X109470500Y-119217506D01*
X109470500Y-118983389D01*
X111199500Y-118983389D01*
X111199500Y-119156611D01*
X111226598Y-119327701D01*
X111280127Y-119492445D01*
X111358768Y-119646788D01*
X111460586Y-119786928D01*
X111583072Y-119909414D01*
X111723212Y-120011232D01*
X111877555Y-120089873D01*
X112042299Y-120143402D01*
X112213389Y-120170500D01*
X112213390Y-120170500D01*
X112386610Y-120170500D01*
X112386611Y-120170500D01*
X112557701Y-120143402D01*
X112722445Y-120089873D01*
X112876788Y-120011232D01*
X113016928Y-119909414D01*
X113139414Y-119786928D01*
X113241232Y-119646788D01*
X113319873Y-119492445D01*
X113373402Y-119327701D01*
X113400500Y-119156611D01*
X113400500Y-118983389D01*
X113373402Y-118812299D01*
X113319873Y-118647555D01*
X113241232Y-118493212D01*
X113139414Y-118353072D01*
X113016928Y-118230586D01*
X112876788Y-118128768D01*
X112722445Y-118050127D01*
X112557701Y-117996598D01*
X112557699Y-117996597D01*
X112557698Y-117996597D01*
X112426271Y-117975781D01*
X112386611Y-117969500D01*
X112213389Y-117969500D01*
X112173728Y-117975781D01*
X112042302Y-117996597D01*
X111877552Y-118050128D01*
X111723211Y-118128768D01*
X111667115Y-118169525D01*
X111583072Y-118230586D01*
X111583070Y-118230588D01*
X111583069Y-118230588D01*
X111460588Y-118353069D01*
X111460588Y-118353070D01*
X111460586Y-118353072D01*
X111443643Y-118376392D01*
X111358768Y-118493211D01*
X111280128Y-118647552D01*
X111226597Y-118812302D01*
X111200432Y-118977507D01*
X111199500Y-118983389D01*
X109470500Y-118983389D01*
X109470500Y-118922494D01*
X109431993Y-118630007D01*
X109355639Y-118345048D01*
X109242743Y-118072493D01*
X109211519Y-118018412D01*
X109095238Y-117817006D01*
X108915647Y-117582959D01*
X108915641Y-117582952D01*
X108707047Y-117374358D01*
X108707040Y-117374352D01*
X108472993Y-117194761D01*
X108217510Y-117047258D01*
X108217500Y-117047254D01*
X107944961Y-116934364D01*
X107944954Y-116934362D01*
X107944952Y-116934361D01*
X107659993Y-116858007D01*
X107611113Y-116851571D01*
X107367513Y-116819500D01*
X107367506Y-116819500D01*
X107072494Y-116819500D01*
X107072486Y-116819500D01*
X106794085Y-116856153D01*
X106780007Y-116858007D01*
X106605861Y-116904669D01*
X106495048Y-116934361D01*
X106495038Y-116934364D01*
X106222499Y-117047254D01*
X106222489Y-117047258D01*
X105967006Y-117194761D01*
X105732959Y-117374352D01*
X105732952Y-117374358D01*
X105524358Y-117582952D01*
X105524352Y-117582959D01*
X105344761Y-117817006D01*
X105197258Y-118072489D01*
X105197254Y-118072499D01*
X105084364Y-118345038D01*
X105084361Y-118345048D01*
X105034775Y-118530109D01*
X105008008Y-118630004D01*
X105008006Y-118630015D01*
X104969500Y-118922486D01*
X103230854Y-118922486D01*
X103213402Y-118812299D01*
X103159873Y-118647555D01*
X103081232Y-118493212D01*
X102979414Y-118353072D01*
X102926882Y-118300540D01*
X102893397Y-118239217D01*
X102898381Y-118169525D01*
X102940253Y-118113592D01*
X103005717Y-118089175D01*
X103033961Y-118090386D01*
X103284072Y-118130000D01*
X103535928Y-118130000D01*
X103784669Y-118090602D01*
X104024184Y-118012780D01*
X104248575Y-117898446D01*
X104248581Y-117898442D01*
X104350697Y-117824250D01*
X104350698Y-117824250D01*
X103734025Y-117207578D01*
X103765258Y-117194641D01*
X103888097Y-117112563D01*
X103992563Y-117008097D01*
X104074641Y-116885258D01*
X104087577Y-116854025D01*
X104704250Y-117470698D01*
X104704250Y-117470697D01*
X104778442Y-117368581D01*
X104778446Y-117368575D01*
X104892780Y-117144184D01*
X104970602Y-116904669D01*
X105010000Y-116655928D01*
X105010000Y-116404071D01*
X104970602Y-116155330D01*
X104892780Y-115915815D01*
X104778442Y-115691416D01*
X104704250Y-115589301D01*
X104704250Y-115589300D01*
X104087577Y-116205973D01*
X104074641Y-116174742D01*
X103992563Y-116051903D01*
X103888097Y-115947437D01*
X103765258Y-115865359D01*
X103734024Y-115852421D01*
X104350698Y-115235748D01*
X104248583Y-115161557D01*
X104024184Y-115047219D01*
X103784669Y-114969397D01*
X103535928Y-114930000D01*
X103284072Y-114930000D01*
X103035330Y-114969397D01*
X102795815Y-115047219D01*
X102571413Y-115161559D01*
X102469301Y-115235747D01*
X102469300Y-115235748D01*
X103085974Y-115852421D01*
X103054742Y-115865359D01*
X102931903Y-115947437D01*
X102827437Y-116051903D01*
X102745359Y-116174742D01*
X102732421Y-116205974D01*
X102115748Y-115589300D01*
X102115747Y-115589301D01*
X102041559Y-115691413D01*
X101927219Y-115915815D01*
X101849397Y-116155330D01*
X101810000Y-116404071D01*
X101810000Y-116655928D01*
X101849397Y-116904669D01*
X101927219Y-117144184D01*
X102041557Y-117368583D01*
X102115748Y-117470697D01*
X102115748Y-117470698D01*
X102732421Y-116854024D01*
X102745359Y-116885258D01*
X102827437Y-117008097D01*
X102931903Y-117112563D01*
X103054742Y-117194641D01*
X103085974Y-117207577D01*
X102469300Y-117824250D01*
X102471598Y-117853449D01*
X102457233Y-117921827D01*
X102408181Y-117971583D01*
X102340016Y-117986921D01*
X102328583Y-117985650D01*
X102226611Y-117969500D01*
X102053389Y-117969500D01*
X102013728Y-117975781D01*
X101882302Y-117996597D01*
X101717552Y-118050128D01*
X101563211Y-118128768D01*
X101507115Y-118169525D01*
X101423072Y-118230586D01*
X101423070Y-118230588D01*
X101423069Y-118230588D01*
X101300588Y-118353069D01*
X101300588Y-118353070D01*
X101300586Y-118353072D01*
X101283643Y-118376392D01*
X101198768Y-118493211D01*
X101120128Y-118647552D01*
X101066597Y-118812302D01*
X101040432Y-118977507D01*
X101039500Y-118983389D01*
X95021022Y-118983389D01*
X95062705Y-113864038D01*
X108159500Y-113864038D01*
X108159500Y-114115961D01*
X108198910Y-114364785D01*
X108276760Y-114604383D01*
X108391132Y-114828848D01*
X108539201Y-115032649D01*
X108539205Y-115032654D01*
X108717345Y-115210794D01*
X108717350Y-115210798D01*
X108895117Y-115339952D01*
X108921155Y-115358870D01*
X109064184Y-115431747D01*
X109145616Y-115473239D01*
X109145618Y-115473239D01*
X109145621Y-115473241D01*
X109385215Y-115551090D01*
X109634038Y-115590500D01*
X109634039Y-115590500D01*
X109885961Y-115590500D01*
X109885962Y-115590500D01*
X110134785Y-115551090D01*
X110374379Y-115473241D01*
X110598845Y-115358870D01*
X110802656Y-115210793D01*
X110980793Y-115032656D01*
X111128870Y-114828845D01*
X111243241Y-114604379D01*
X111321090Y-114364785D01*
X111360500Y-114115962D01*
X111360500Y-113864038D01*
X111321090Y-113615215D01*
X111243241Y-113375621D01*
X111243239Y-113375618D01*
X111243239Y-113375616D01*
X111201747Y-113294184D01*
X111128870Y-113151155D01*
X111109952Y-113125117D01*
X110980798Y-112947350D01*
X110980794Y-112947345D01*
X110802654Y-112769205D01*
X110802649Y-112769201D01*
X110598848Y-112621132D01*
X110598847Y-112621131D01*
X110598845Y-112621130D01*
X110528747Y-112585413D01*
X110374383Y-112506760D01*
X110134785Y-112428910D01*
X109885962Y-112389500D01*
X109634038Y-112389500D01*
X109509626Y-112409205D01*
X109385214Y-112428910D01*
X109145616Y-112506760D01*
X108921151Y-112621132D01*
X108717350Y-112769201D01*
X108717345Y-112769205D01*
X108539205Y-112947345D01*
X108539201Y-112947350D01*
X108391132Y-113151151D01*
X108276760Y-113375616D01*
X108198910Y-113615214D01*
X108159500Y-113864038D01*
X95062705Y-113864038D01*
X95089380Y-110587816D01*
X95095441Y-109843490D01*
X95115671Y-109776613D01*
X95168846Y-109731290D01*
X95219437Y-109720500D01*
X98555890Y-109720500D01*
X98555892Y-109720500D01*
X98683186Y-109686392D01*
X98797314Y-109620500D01*
X98890500Y-109527314D01*
X98956392Y-109413186D01*
X98990500Y-109285892D01*
X98990500Y-103902135D01*
X152029500Y-103902135D01*
X152029500Y-105697870D01*
X152029501Y-105697876D01*
X152035908Y-105757483D01*
X152086202Y-105892328D01*
X152086206Y-105892335D01*
X152172452Y-106007544D01*
X152172455Y-106007547D01*
X152287664Y-106093793D01*
X152287671Y-106093797D01*
X152332618Y-106110561D01*
X152422517Y-106144091D01*
X152482127Y-106150500D01*
X152492685Y-106150499D01*
X152559723Y-106170179D01*
X152580372Y-106186818D01*
X153250591Y-106857037D01*
X153187007Y-106874075D01*
X153072993Y-106939901D01*
X152979901Y-107032993D01*
X152914075Y-107147007D01*
X152897037Y-107210591D01*
X152264728Y-106578282D01*
X152264727Y-106578282D01*
X152225380Y-106632439D01*
X152128904Y-106821782D01*
X152063242Y-107023869D01*
X152063242Y-107023872D01*
X152030000Y-107233753D01*
X152030000Y-107446246D01*
X152063242Y-107656127D01*
X152063242Y-107656130D01*
X152128904Y-107858217D01*
X152225375Y-108047550D01*
X152264728Y-108101716D01*
X152897037Y-107469408D01*
X152914075Y-107532993D01*
X152979901Y-107647007D01*
X153072993Y-107740099D01*
X153187007Y-107805925D01*
X153250590Y-107822962D01*
X152618282Y-108455269D01*
X152618282Y-108455270D01*
X152672452Y-108494626D01*
X152672451Y-108494626D01*
X152681495Y-108499234D01*
X152732292Y-108547208D01*
X152749087Y-108615029D01*
X152726550Y-108681164D01*
X152681499Y-108720202D01*
X152672182Y-108724949D01*
X152500213Y-108849890D01*
X152349890Y-109000213D01*
X152224951Y-109172179D01*
X152128444Y-109361585D01*
X152062753Y-109563760D01*
X152029500Y-109773713D01*
X152029500Y-109986286D01*
X152062753Y-110196239D01*
X152128444Y-110398414D01*
X152224951Y-110587820D01*
X152349890Y-110759786D01*
X152500213Y-110910109D01*
X152672182Y-111035050D01*
X152680946Y-111039516D01*
X152731742Y-111087491D01*
X152748536Y-111155312D01*
X152725998Y-111221447D01*
X152680946Y-111260484D01*
X152672182Y-111264949D01*
X152500213Y-111389890D01*
X152349890Y-111540213D01*
X152224951Y-111712179D01*
X152128444Y-111901585D01*
X152062753Y-112103760D01*
X152029500Y-112313713D01*
X152029500Y-112526286D01*
X152062753Y-112736239D01*
X152128444Y-112938414D01*
X152224951Y-113127820D01*
X152349890Y-113299786D01*
X152500213Y-113450109D01*
X152672182Y-113575050D01*
X152680946Y-113579516D01*
X152731742Y-113627491D01*
X152748536Y-113695312D01*
X152725998Y-113761447D01*
X152680946Y-113800484D01*
X152672182Y-113804949D01*
X152500213Y-113929890D01*
X152349890Y-114080213D01*
X152224951Y-114252179D01*
X152128444Y-114441585D01*
X152062753Y-114643760D01*
X152029500Y-114853713D01*
X152029500Y-115066286D01*
X152052387Y-115210793D01*
X152062754Y-115276243D01*
X152126762Y-115473239D01*
X152128444Y-115478414D01*
X152224951Y-115667820D01*
X152349890Y-115839786D01*
X152500213Y-115990109D01*
X152672182Y-116115050D01*
X152680946Y-116119516D01*
X152731742Y-116167491D01*
X152748536Y-116235312D01*
X152725998Y-116301447D01*
X152680946Y-116340484D01*
X152672182Y-116344949D01*
X152500213Y-116469890D01*
X152349890Y-116620213D01*
X152224951Y-116792179D01*
X152128444Y-116981585D01*
X152062753Y-117183760D01*
X152029500Y-117393713D01*
X152029500Y-117606286D01*
X152047005Y-117716812D01*
X152062754Y-117816243D01*
X152121355Y-117996598D01*
X152128444Y-118018414D01*
X152224951Y-118207820D01*
X152349890Y-118379786D01*
X152500213Y-118530109D01*
X152672182Y-118655050D01*
X152680946Y-118659516D01*
X152731742Y-118707491D01*
X152748536Y-118775312D01*
X152725998Y-118841447D01*
X152680946Y-118880484D01*
X152672182Y-118884949D01*
X152500213Y-119009890D01*
X152349890Y-119160213D01*
X152224951Y-119332179D01*
X152128444Y-119521585D01*
X152062753Y-119723760D01*
X152029500Y-119933713D01*
X152029500Y-120146286D01*
X152057487Y-120322993D01*
X152062754Y-120356243D01*
X152127999Y-120557047D01*
X152128444Y-120558414D01*
X152224951Y-120747820D01*
X152349890Y-120919786D01*
X152500213Y-121070109D01*
X152672182Y-121195050D01*
X152680946Y-121199516D01*
X152731742Y-121247491D01*
X152748536Y-121315312D01*
X152725998Y-121381447D01*
X152680946Y-121420484D01*
X152672182Y-121424949D01*
X152500213Y-121549890D01*
X152349890Y-121700213D01*
X152224951Y-121872179D01*
X152128444Y-122061585D01*
X152062753Y-122263760D01*
X152029500Y-122473713D01*
X152029500Y-122686286D01*
X152059530Y-122875892D01*
X152062754Y-122896243D01*
X152124320Y-123085724D01*
X152128444Y-123098414D01*
X152224951Y-123287820D01*
X152349890Y-123459786D01*
X152500213Y-123610109D01*
X152672179Y-123735048D01*
X152672181Y-123735049D01*
X152672184Y-123735051D01*
X152861588Y-123831557D01*
X153063757Y-123897246D01*
X153273713Y-123930500D01*
X153273714Y-123930500D01*
X153486286Y-123930500D01*
X153486287Y-123930500D01*
X153696243Y-123897246D01*
X153898412Y-123831557D01*
X154087816Y-123735051D01*
X154109789Y-123719086D01*
X154259786Y-123610109D01*
X154259788Y-123610106D01*
X154259792Y-123610104D01*
X154410104Y-123459792D01*
X154410106Y-123459788D01*
X154410109Y-123459786D01*
X154535048Y-123287820D01*
X154535047Y-123287820D01*
X154535051Y-123287816D01*
X154631557Y-123098412D01*
X154697246Y-122896243D01*
X154730500Y-122686287D01*
X154730500Y-122473713D01*
X154697246Y-122263757D01*
X154631557Y-122061588D01*
X154535051Y-121872184D01*
X154535049Y-121872181D01*
X154535048Y-121872179D01*
X154410109Y-121700213D01*
X154259786Y-121549890D01*
X154087820Y-121424951D01*
X154087115Y-121424591D01*
X154079054Y-121420485D01*
X154028259Y-121372512D01*
X154011463Y-121304692D01*
X154033999Y-121238556D01*
X154079054Y-121199515D01*
X154087816Y-121195051D01*
X154109789Y-121179086D01*
X154259786Y-121070109D01*
X154259788Y-121070106D01*
X154259792Y-121070104D01*
X154410104Y-120919792D01*
X154410106Y-120919788D01*
X154410109Y-120919786D01*
X154535048Y-120747820D01*
X154535047Y-120747820D01*
X154535051Y-120747816D01*
X154631557Y-120558412D01*
X154697246Y-120356243D01*
X154730500Y-120146287D01*
X154730500Y-119933713D01*
X154697246Y-119723757D01*
X154631557Y-119521588D01*
X154535051Y-119332184D01*
X154535049Y-119332181D01*
X154535048Y-119332179D01*
X154410109Y-119160213D01*
X154259786Y-119009890D01*
X154087820Y-118884951D01*
X154087115Y-118884591D01*
X154079054Y-118880485D01*
X154028259Y-118832512D01*
X154011463Y-118764692D01*
X154033999Y-118698556D01*
X154079054Y-118659515D01*
X154087816Y-118655051D01*
X154122286Y-118630007D01*
X154259786Y-118530109D01*
X154259788Y-118530106D01*
X154259792Y-118530104D01*
X154410104Y-118379792D01*
X154410106Y-118379788D01*
X154410109Y-118379786D01*
X154535048Y-118207820D01*
X154535047Y-118207820D01*
X154535051Y-118207816D01*
X154631557Y-118018412D01*
X154697246Y-117816243D01*
X154730500Y-117606287D01*
X154730500Y-117393713D01*
X154697246Y-117183757D01*
X154631557Y-116981588D01*
X154535051Y-116792184D01*
X154535049Y-116792181D01*
X154535048Y-116792179D01*
X154410109Y-116620213D01*
X154259786Y-116469890D01*
X154087820Y-116344951D01*
X154087115Y-116344591D01*
X154079054Y-116340485D01*
X154028259Y-116292512D01*
X154011463Y-116224692D01*
X154033999Y-116158556D01*
X154079054Y-116119515D01*
X154087816Y-116115051D01*
X154109789Y-116099086D01*
X154259786Y-115990109D01*
X154259788Y-115990106D01*
X154259792Y-115990104D01*
X154410104Y-115839792D01*
X154410106Y-115839788D01*
X154410109Y-115839786D01*
X154535048Y-115667820D01*
X154535047Y-115667820D01*
X154535051Y-115667816D01*
X154631557Y-115478412D01*
X154697246Y-115276243D01*
X154730500Y-115066287D01*
X154730500Y-114853713D01*
X154697246Y-114643757D01*
X154631557Y-114441588D01*
X154535051Y-114252184D01*
X154535049Y-114252181D01*
X154535048Y-114252179D01*
X154410109Y-114080213D01*
X154259786Y-113929890D01*
X154087820Y-113804951D01*
X154087115Y-113804591D01*
X154079054Y-113800485D01*
X154028259Y-113752512D01*
X154011463Y-113684692D01*
X154033999Y-113618556D01*
X154079054Y-113579515D01*
X154087816Y-113575051D01*
X154109789Y-113559086D01*
X154259786Y-113450109D01*
X154259788Y-113450106D01*
X154259792Y-113450104D01*
X154410104Y-113299792D01*
X154410106Y-113299788D01*
X154410109Y-113299786D01*
X154535048Y-113127820D01*
X154535047Y-113127820D01*
X154535051Y-113127816D01*
X154631557Y-112938412D01*
X154697246Y-112736243D01*
X154730500Y-112526287D01*
X154730500Y-112313713D01*
X154697246Y-112103757D01*
X154631557Y-111901588D01*
X154535051Y-111712184D01*
X154535049Y-111712181D01*
X154535048Y-111712179D01*
X154410109Y-111540213D01*
X154259786Y-111389890D01*
X154087820Y-111264951D01*
X154087115Y-111264591D01*
X154079054Y-111260485D01*
X154028259Y-111212512D01*
X154011463Y-111144692D01*
X154033999Y-111078556D01*
X154079054Y-111039515D01*
X154087816Y-111035051D01*
X154109789Y-111019086D01*
X154259786Y-110910109D01*
X154259788Y-110910106D01*
X154259792Y-110910104D01*
X154410104Y-110759792D01*
X154410106Y-110759788D01*
X154410109Y-110759786D01*
X154535048Y-110587820D01*
X154535047Y-110587820D01*
X154535051Y-110587816D01*
X154631557Y-110398412D01*
X154697246Y-110196243D01*
X154730500Y-109986287D01*
X154730500Y-109773713D01*
X154697246Y-109563757D01*
X154631557Y-109361588D01*
X154535051Y-109172184D01*
X154535049Y-109172181D01*
X154535048Y-109172179D01*
X154410109Y-109000213D01*
X154259786Y-108849890D01*
X154087817Y-108724949D01*
X154078504Y-108720204D01*
X154027707Y-108672230D01*
X154010912Y-108604409D01*
X154033449Y-108538274D01*
X154078507Y-108499232D01*
X154087555Y-108494622D01*
X154141716Y-108455270D01*
X154141717Y-108455270D01*
X153509408Y-107822962D01*
X153572993Y-107805925D01*
X153687007Y-107740099D01*
X153780099Y-107647007D01*
X153845925Y-107532993D01*
X153862962Y-107469408D01*
X154495270Y-108101717D01*
X154495270Y-108101716D01*
X154534622Y-108047554D01*
X154631095Y-107858217D01*
X154696757Y-107656130D01*
X154696757Y-107656127D01*
X154730000Y-107446246D01*
X154730000Y-107233753D01*
X154696757Y-107023872D01*
X154696757Y-107023869D01*
X154631095Y-106821782D01*
X154534624Y-106632449D01*
X154495270Y-106578282D01*
X154495269Y-106578282D01*
X153862962Y-107210590D01*
X153845925Y-107147007D01*
X153780099Y-107032993D01*
X153687007Y-106939901D01*
X153572993Y-106874075D01*
X153509409Y-106857037D01*
X154179627Y-106186818D01*
X154240950Y-106153333D01*
X154267307Y-106150499D01*
X154277872Y-106150499D01*
X154337483Y-106144091D01*
X154472331Y-106093796D01*
X154587546Y-106007546D01*
X154673796Y-105892331D01*
X154724091Y-105757483D01*
X154730500Y-105697873D01*
X154730499Y-103902128D01*
X154724091Y-103842517D01*
X154717038Y-103823608D01*
X154673797Y-103707671D01*
X154673793Y-103707664D01*
X154587547Y-103592455D01*
X154587544Y-103592452D01*
X154472335Y-103506206D01*
X154472328Y-103506202D01*
X154337482Y-103455908D01*
X154337483Y-103455908D01*
X154277883Y-103449501D01*
X154277881Y-103449500D01*
X154277873Y-103449500D01*
X154277864Y-103449500D01*
X152482129Y-103449500D01*
X152482123Y-103449501D01*
X152422516Y-103455908D01*
X152287671Y-103506202D01*
X152287664Y-103506206D01*
X152172455Y-103592452D01*
X152172452Y-103592455D01*
X152086206Y-103707664D01*
X152086202Y-103707671D01*
X152035908Y-103842517D01*
X152029501Y-103902116D01*
X152029501Y-103902123D01*
X152029500Y-103902135D01*
X98990500Y-103902135D01*
X98990500Y-98865149D01*
X119863500Y-98865149D01*
X119863500Y-99120850D01*
X119888635Y-99311757D01*
X119896874Y-99374340D01*
X119963050Y-99621312D01*
X119963053Y-99621322D01*
X120060894Y-99857531D01*
X120060899Y-99857542D01*
X120188734Y-100078957D01*
X120188745Y-100078973D01*
X120344388Y-100281811D01*
X120344394Y-100281818D01*
X120525181Y-100462605D01*
X120525187Y-100462610D01*
X120728035Y-100618261D01*
X120728042Y-100618265D01*
X120949457Y-100746100D01*
X120949462Y-100746102D01*
X120949465Y-100746104D01*
X121185687Y-100843950D01*
X121432660Y-100910126D01*
X121686157Y-100943500D01*
X121686164Y-100943500D01*
X122841836Y-100943500D01*
X122841843Y-100943500D01*
X123095340Y-100910126D01*
X123342313Y-100843950D01*
X123578535Y-100746104D01*
X123799965Y-100618261D01*
X124002813Y-100462610D01*
X124183610Y-100281813D01*
X124339261Y-100078965D01*
X124467104Y-99857535D01*
X124564950Y-99621313D01*
X124591638Y-99521713D01*
X128279500Y-99521713D01*
X128279500Y-99734287D01*
X128312754Y-99944243D01*
X128356525Y-100078957D01*
X128378444Y-100146414D01*
X128474951Y-100335820D01*
X128599890Y-100507786D01*
X128750213Y-100658109D01*
X128922179Y-100783048D01*
X128922181Y-100783049D01*
X128922184Y-100783051D01*
X129111588Y-100879557D01*
X129313757Y-100945246D01*
X129523713Y-100978500D01*
X129523714Y-100978500D01*
X129736286Y-100978500D01*
X129736287Y-100978500D01*
X129946243Y-100945246D01*
X130148412Y-100879557D01*
X130337816Y-100783051D01*
X130424478Y-100720088D01*
X130509786Y-100658109D01*
X130509788Y-100658106D01*
X130509792Y-100658104D01*
X130660104Y-100507792D01*
X130660106Y-100507788D01*
X130660109Y-100507786D01*
X130785048Y-100335820D01*
X130785047Y-100335820D01*
X130785051Y-100335816D01*
X130789514Y-100327054D01*
X130837488Y-100276259D01*
X130905308Y-100259463D01*
X130971444Y-100281999D01*
X131010486Y-100327056D01*
X131014951Y-100335820D01*
X131139890Y-100507786D01*
X131290213Y-100658109D01*
X131462179Y-100783048D01*
X131462181Y-100783049D01*
X131462184Y-100783051D01*
X131651588Y-100879557D01*
X131853757Y-100945246D01*
X132063713Y-100978500D01*
X132063714Y-100978500D01*
X132276286Y-100978500D01*
X132276287Y-100978500D01*
X132486243Y-100945246D01*
X132688412Y-100879557D01*
X132877816Y-100783051D01*
X132964478Y-100720088D01*
X133049786Y-100658109D01*
X133049788Y-100658106D01*
X133049792Y-100658104D01*
X133200104Y-100507792D01*
X133200106Y-100507788D01*
X133200109Y-100507786D01*
X133325048Y-100335820D01*
X133325047Y-100335820D01*
X133325051Y-100335816D01*
X133329514Y-100327054D01*
X133377488Y-100276259D01*
X133445308Y-100259463D01*
X133511444Y-100281999D01*
X133550486Y-100327056D01*
X133554951Y-100335820D01*
X133679890Y-100507786D01*
X133830213Y-100658109D01*
X134002179Y-100783048D01*
X134002181Y-100783049D01*
X134002184Y-100783051D01*
X134191588Y-100879557D01*
X134393757Y-100945246D01*
X134603713Y-100978500D01*
X134603714Y-100978500D01*
X134816286Y-100978500D01*
X134816287Y-100978500D01*
X135026243Y-100945246D01*
X135228412Y-100879557D01*
X135417816Y-100783051D01*
X135504478Y-100720088D01*
X135589784Y-100658110D01*
X135589784Y-100658109D01*
X135589792Y-100658104D01*
X135703717Y-100544178D01*
X135765036Y-100510696D01*
X135834728Y-100515680D01*
X135890662Y-100557551D01*
X135907577Y-100588528D01*
X135956646Y-100720088D01*
X135956649Y-100720093D01*
X136042809Y-100835187D01*
X136042812Y-100835190D01*
X136157906Y-100921350D01*
X136157913Y-100921354D01*
X136292620Y-100971596D01*
X136292627Y-100971598D01*
X136352155Y-100977999D01*
X136352172Y-100978000D01*
X137000000Y-100978000D01*
X137000000Y-100061012D01*
X137057007Y-100093925D01*
X137184174Y-100128000D01*
X137315826Y-100128000D01*
X137442993Y-100093925D01*
X137500000Y-100061012D01*
X137500000Y-100978000D01*
X138147828Y-100978000D01*
X138147844Y-100977999D01*
X138207372Y-100971598D01*
X138207379Y-100971596D01*
X138342086Y-100921354D01*
X138342093Y-100921350D01*
X138457187Y-100835190D01*
X138457190Y-100835187D01*
X138543350Y-100720093D01*
X138543354Y-100720086D01*
X138593596Y-100585379D01*
X138593598Y-100585372D01*
X138599999Y-100525844D01*
X138600000Y-100525827D01*
X138600000Y-99878000D01*
X137683012Y-99878000D01*
X137715925Y-99820993D01*
X137750000Y-99693826D01*
X137750000Y-99562174D01*
X137715925Y-99435007D01*
X137683012Y-99378000D01*
X138600000Y-99378000D01*
X138600000Y-98865149D01*
X142215500Y-98865149D01*
X142215500Y-99120850D01*
X142240635Y-99311757D01*
X142248874Y-99374340D01*
X142315050Y-99621312D01*
X142315053Y-99621322D01*
X142412894Y-99857531D01*
X142412899Y-99857542D01*
X142540734Y-100078957D01*
X142540745Y-100078973D01*
X142696388Y-100281811D01*
X142696394Y-100281818D01*
X142877181Y-100462605D01*
X142877187Y-100462610D01*
X143080035Y-100618261D01*
X143080042Y-100618265D01*
X143301457Y-100746100D01*
X143301462Y-100746102D01*
X143301465Y-100746104D01*
X143537687Y-100843950D01*
X143784660Y-100910126D01*
X144038157Y-100943500D01*
X144038164Y-100943500D01*
X145193836Y-100943500D01*
X145193843Y-100943500D01*
X145447340Y-100910126D01*
X145694313Y-100843950D01*
X145930535Y-100746104D01*
X146151965Y-100618261D01*
X146354813Y-100462610D01*
X146535610Y-100281813D01*
X146691261Y-100078965D01*
X146819104Y-99857535D01*
X146916950Y-99621313D01*
X146983126Y-99374340D01*
X147016500Y-99120843D01*
X147016500Y-98865157D01*
X146983126Y-98611660D01*
X146916950Y-98364687D01*
X146916947Y-98364679D01*
X146916946Y-98364676D01*
X146819105Y-98128468D01*
X146819100Y-98128457D01*
X146691265Y-97907042D01*
X146691261Y-97907035D01*
X146535610Y-97704187D01*
X146535605Y-97704181D01*
X146354818Y-97523394D01*
X146354811Y-97523388D01*
X146151973Y-97367745D01*
X146151971Y-97367743D01*
X146151965Y-97367739D01*
X146151960Y-97367736D01*
X146151957Y-97367734D01*
X145930542Y-97239899D01*
X145930531Y-97239894D01*
X145694322Y-97142053D01*
X145694315Y-97142051D01*
X145694313Y-97142050D01*
X145447340Y-97075874D01*
X145391007Y-97068457D01*
X145193850Y-97042500D01*
X145193843Y-97042500D01*
X144038157Y-97042500D01*
X144038149Y-97042500D01*
X143812826Y-97072165D01*
X143784660Y-97075874D01*
X143537687Y-97142050D01*
X143537677Y-97142053D01*
X143301468Y-97239894D01*
X143301457Y-97239899D01*
X143080042Y-97367734D01*
X143080026Y-97367745D01*
X142877188Y-97523388D01*
X142877181Y-97523394D01*
X142696394Y-97704181D01*
X142696388Y-97704188D01*
X142540745Y-97907026D01*
X142540734Y-97907042D01*
X142412899Y-98128457D01*
X142412894Y-98128468D01*
X142315054Y-98364676D01*
X142315050Y-98364687D01*
X142248874Y-98611661D01*
X142215500Y-98865149D01*
X138600000Y-98865149D01*
X138600000Y-98730172D01*
X138599999Y-98730155D01*
X138593598Y-98670627D01*
X138593596Y-98670620D01*
X138543354Y-98535913D01*
X138543350Y-98535906D01*
X138457190Y-98420812D01*
X138457187Y-98420809D01*
X138342093Y-98334649D01*
X138342086Y-98334645D01*
X138207379Y-98284403D01*
X138207372Y-98284401D01*
X138147844Y-98278000D01*
X137500000Y-98278000D01*
X137500000Y-99194988D01*
X137442993Y-99162075D01*
X137315826Y-99128000D01*
X137184174Y-99128000D01*
X137057007Y-99162075D01*
X137000000Y-99194988D01*
X137000000Y-98278000D01*
X136352155Y-98278000D01*
X136292627Y-98284401D01*
X136292620Y-98284403D01*
X136157913Y-98334645D01*
X136157906Y-98334649D01*
X136042812Y-98420809D01*
X136042809Y-98420812D01*
X135956649Y-98535906D01*
X135956646Y-98535912D01*
X135907577Y-98667471D01*
X135865705Y-98723404D01*
X135800241Y-98747821D01*
X135731968Y-98732969D01*
X135703714Y-98711818D01*
X135589786Y-98597890D01*
X135417820Y-98472951D01*
X135228414Y-98376444D01*
X135228413Y-98376443D01*
X135228412Y-98376443D01*
X135026243Y-98310754D01*
X135026241Y-98310753D01*
X135026240Y-98310753D01*
X134864957Y-98285208D01*
X134816287Y-98277500D01*
X134603713Y-98277500D01*
X134555042Y-98285208D01*
X134393760Y-98310753D01*
X134191585Y-98376444D01*
X134002179Y-98472951D01*
X133830213Y-98597890D01*
X133679890Y-98748213D01*
X133554949Y-98920182D01*
X133550484Y-98928946D01*
X133502509Y-98979742D01*
X133434688Y-98996536D01*
X133368553Y-98973998D01*
X133329516Y-98928946D01*
X133325050Y-98920182D01*
X133200109Y-98748213D01*
X133049786Y-98597890D01*
X132877820Y-98472951D01*
X132688414Y-98376444D01*
X132688413Y-98376443D01*
X132688412Y-98376443D01*
X132486243Y-98310754D01*
X132486241Y-98310753D01*
X132486240Y-98310753D01*
X132324957Y-98285208D01*
X132276287Y-98277500D01*
X132063713Y-98277500D01*
X132015042Y-98285208D01*
X131853760Y-98310753D01*
X131651585Y-98376444D01*
X131462179Y-98472951D01*
X131290213Y-98597890D01*
X131139890Y-98748213D01*
X131014949Y-98920182D01*
X131010484Y-98928946D01*
X130962509Y-98979742D01*
X130894688Y-98996536D01*
X130828553Y-98973998D01*
X130789516Y-98928946D01*
X130785050Y-98920182D01*
X130660109Y-98748213D01*
X130509786Y-98597890D01*
X130337820Y-98472951D01*
X130148414Y-98376444D01*
X130148413Y-98376443D01*
X130148412Y-98376443D01*
X129946243Y-98310754D01*
X129946241Y-98310753D01*
X129946240Y-98310753D01*
X129784957Y-98285208D01*
X129736287Y-98277500D01*
X129523713Y-98277500D01*
X129475042Y-98285208D01*
X129313760Y-98310753D01*
X129111585Y-98376444D01*
X128922179Y-98472951D01*
X128750213Y-98597890D01*
X128599890Y-98748213D01*
X128474951Y-98920179D01*
X128378444Y-99109585D01*
X128312753Y-99311760D01*
X128302262Y-99378000D01*
X128279500Y-99521713D01*
X124591638Y-99521713D01*
X124631126Y-99374340D01*
X124664500Y-99120843D01*
X124664500Y-98865157D01*
X124631126Y-98611660D01*
X124564950Y-98364687D01*
X124564947Y-98364679D01*
X124564946Y-98364676D01*
X124467105Y-98128468D01*
X124467100Y-98128457D01*
X124339265Y-97907042D01*
X124339261Y-97907035D01*
X124183610Y-97704187D01*
X124183605Y-97704181D01*
X124002818Y-97523394D01*
X124002811Y-97523388D01*
X123799973Y-97367745D01*
X123799971Y-97367743D01*
X123799965Y-97367739D01*
X123799960Y-97367736D01*
X123799957Y-97367734D01*
X123578542Y-97239899D01*
X123578531Y-97239894D01*
X123342322Y-97142053D01*
X123342315Y-97142051D01*
X123342313Y-97142050D01*
X123095340Y-97075874D01*
X123039007Y-97068457D01*
X122841850Y-97042500D01*
X122841843Y-97042500D01*
X121686157Y-97042500D01*
X121686149Y-97042500D01*
X121460826Y-97072165D01*
X121432660Y-97075874D01*
X121185687Y-97142050D01*
X121185677Y-97142053D01*
X120949468Y-97239894D01*
X120949457Y-97239899D01*
X120728042Y-97367734D01*
X120728026Y-97367745D01*
X120525188Y-97523388D01*
X120525181Y-97523394D01*
X120344394Y-97704181D01*
X120344388Y-97704188D01*
X120188745Y-97907026D01*
X120188734Y-97907042D01*
X120060899Y-98128457D01*
X120060894Y-98128468D01*
X119963054Y-98364676D01*
X119963050Y-98364687D01*
X119896874Y-98611661D01*
X119863500Y-98865149D01*
X98990500Y-98865149D01*
X98990500Y-95610834D01*
X98990574Y-95606540D01*
X98992482Y-95551481D01*
X98992481Y-95551476D01*
X98991701Y-95543390D01*
X98992163Y-95543345D01*
X98992022Y-95542107D01*
X98991561Y-95542168D01*
X98990500Y-95534111D01*
X98990500Y-95534108D01*
X98976237Y-95480878D01*
X98975217Y-95476790D01*
X98962803Y-95423082D01*
X98962800Y-95423078D01*
X98962800Y-95423074D01*
X98959954Y-95415466D01*
X98960389Y-95415303D01*
X98959930Y-95414139D01*
X98959500Y-95414318D01*
X98956390Y-95406810D01*
X98928847Y-95359104D01*
X98926763Y-95355346D01*
X98900904Y-95306742D01*
X98896182Y-95300126D01*
X98896562Y-95299854D01*
X98895820Y-95298852D01*
X98895450Y-95299137D01*
X98890499Y-95292685D01*
X98851560Y-95253746D01*
X98848576Y-95250657D01*
X98811000Y-95210383D01*
X98804726Y-95205214D01*
X98805021Y-95204855D01*
X98804043Y-95204077D01*
X98803760Y-95204447D01*
X98797318Y-95199504D01*
X98797314Y-95199500D01*
X98776111Y-95187258D01*
X98749608Y-95171956D01*
X98745929Y-95169746D01*
X98699222Y-95140578D01*
X98699220Y-95140577D01*
X98699218Y-95140576D01*
X98691826Y-95137209D01*
X98692017Y-95136788D01*
X98690868Y-95136288D01*
X98690691Y-95136717D01*
X98683189Y-95133609D01*
X98683186Y-95133608D01*
X98629948Y-95119342D01*
X98625877Y-95118175D01*
X98573184Y-95102081D01*
X98565173Y-95100743D01*
X98565249Y-95100286D01*
X98564008Y-95100101D01*
X98563948Y-95100561D01*
X98555893Y-95099500D01*
X98555892Y-95099500D01*
X98555890Y-95099500D01*
X98500836Y-95099500D01*
X98496542Y-95099426D01*
X95070206Y-94980691D01*
X95003888Y-94958696D01*
X94959989Y-94904339D01*
X94950500Y-94856765D01*
X94950500Y-90634110D01*
X94950500Y-90634108D01*
X94916392Y-90506814D01*
X94850500Y-90392686D01*
X94757314Y-90299500D01*
X94700250Y-90266554D01*
X94643187Y-90233608D01*
X94579539Y-90216554D01*
X94515892Y-90199500D01*
X94515891Y-90199500D01*
X90324500Y-90199500D01*
X90257461Y-90179815D01*
X90211706Y-90127011D01*
X90200500Y-90075500D01*
X90200500Y-86094110D01*
X90200500Y-86094108D01*
X90166392Y-85966814D01*
X90100500Y-85852686D01*
X90007314Y-85759500D01*
X89950250Y-85726554D01*
X89893187Y-85693608D01*
X89829539Y-85676554D01*
X89765892Y-85659500D01*
X89765891Y-85659500D01*
X85274500Y-85659500D01*
X85207461Y-85639815D01*
X85161706Y-85587011D01*
X85150500Y-85535500D01*
X85150500Y-81345731D01*
X85150500Y-81333904D01*
X85151472Y-81271971D01*
X85150500Y-81268101D01*
X85150500Y-81264108D01*
X85134456Y-81204232D01*
X85119366Y-81144157D01*
X85117425Y-81140670D01*
X85116392Y-81136814D01*
X85085399Y-81083133D01*
X85055273Y-81029009D01*
X85052496Y-81026143D01*
X85050500Y-81022686D01*
X85006673Y-80978859D01*
X84963561Y-80934372D01*
X84960136Y-80932322D01*
X84957314Y-80929500D01*
X84903647Y-80898515D01*
X84850481Y-80866697D01*
X84846642Y-80865603D01*
X84843186Y-80863608D01*
X84783319Y-80847566D01*
X84771984Y-80844337D01*
X84771979Y-80844335D01*
X84723733Y-80830594D01*
X84722425Y-80830401D01*
X84721872Y-80830287D01*
X84720734Y-80830137D01*
X84718854Y-80829874D01*
X84717766Y-80829713D01*
X84717202Y-80829672D01*
X84715895Y-80829500D01*
X84715892Y-80829500D01*
X84654897Y-80829500D01*
X84652951Y-80829485D01*
X80812554Y-80769209D01*
X80745832Y-80748475D01*
X80700911Y-80694959D01*
X80690500Y-80645224D01*
X80690500Y-79583389D01*
X96989500Y-79583389D01*
X96989500Y-79756611D01*
X97016598Y-79927701D01*
X97070127Y-80092445D01*
X97148768Y-80246788D01*
X97250586Y-80386928D01*
X97373072Y-80509414D01*
X97513212Y-80611232D01*
X97667555Y-80689873D01*
X97832299Y-80743402D01*
X98003389Y-80770500D01*
X98003390Y-80770500D01*
X98176610Y-80770500D01*
X98176611Y-80770500D01*
X98347701Y-80743402D01*
X98512445Y-80689873D01*
X98666788Y-80611232D01*
X98806928Y-80509414D01*
X98929414Y-80386928D01*
X99031232Y-80246788D01*
X99109873Y-80092445D01*
X99163402Y-79927701D01*
X99190500Y-79756611D01*
X99190500Y-79583389D01*
X99180854Y-79522486D01*
X100919500Y-79522486D01*
X100919500Y-79817513D01*
X100951571Y-80061113D01*
X100958007Y-80109993D01*
X101032212Y-80386930D01*
X101034361Y-80394951D01*
X101034364Y-80394961D01*
X101147254Y-80667500D01*
X101147258Y-80667510D01*
X101294761Y-80922993D01*
X101474352Y-81157040D01*
X101474358Y-81157047D01*
X101682952Y-81365641D01*
X101682959Y-81365647D01*
X101917006Y-81545238D01*
X102172489Y-81692741D01*
X102172490Y-81692741D01*
X102172493Y-81692743D01*
X102445048Y-81805639D01*
X102730007Y-81881993D01*
X103022494Y-81920500D01*
X103022501Y-81920500D01*
X103317499Y-81920500D01*
X103317506Y-81920500D01*
X103609993Y-81881993D01*
X103894952Y-81805639D01*
X104167507Y-81692743D01*
X104422994Y-81545238D01*
X104657042Y-81365646D01*
X104865646Y-81157042D01*
X105045238Y-80922994D01*
X105192743Y-80667507D01*
X105305639Y-80394952D01*
X105381993Y-80109993D01*
X105420500Y-79817506D01*
X105420500Y-79583389D01*
X107149500Y-79583389D01*
X107149500Y-79756611D01*
X107176598Y-79927701D01*
X107230127Y-80092445D01*
X107308768Y-80246788D01*
X107410586Y-80386928D01*
X107533072Y-80509414D01*
X107673212Y-80611232D01*
X107827555Y-80689873D01*
X107992299Y-80743402D01*
X108163389Y-80770500D01*
X108163390Y-80770500D01*
X108336610Y-80770500D01*
X108336611Y-80770500D01*
X108507701Y-80743402D01*
X108672445Y-80689873D01*
X108826788Y-80611232D01*
X108966928Y-80509414D01*
X109089414Y-80386928D01*
X109191232Y-80246788D01*
X109269873Y-80092445D01*
X109323402Y-79927701D01*
X109350500Y-79756611D01*
X109350500Y-79583389D01*
X109323402Y-79412299D01*
X109269873Y-79247555D01*
X109191232Y-79093212D01*
X109089414Y-78953072D01*
X108966928Y-78830586D01*
X108826788Y-78728768D01*
X108672445Y-78650127D01*
X108507701Y-78596598D01*
X108507699Y-78596597D01*
X108507698Y-78596597D01*
X108376271Y-78575781D01*
X108336611Y-78569500D01*
X108163389Y-78569500D01*
X108123728Y-78575781D01*
X107992302Y-78596597D01*
X107827552Y-78650128D01*
X107673211Y-78728768D01*
X107617115Y-78769525D01*
X107533072Y-78830586D01*
X107533070Y-78830588D01*
X107533069Y-78830588D01*
X107410588Y-78953069D01*
X107410588Y-78953070D01*
X107410586Y-78953072D01*
X107366859Y-79013256D01*
X107308768Y-79093211D01*
X107230128Y-79247552D01*
X107176597Y-79412302D01*
X107149500Y-79583389D01*
X105420500Y-79583389D01*
X105420500Y-79522494D01*
X105381993Y-79230007D01*
X105305639Y-78945048D01*
X105192743Y-78672493D01*
X105142604Y-78585650D01*
X105045238Y-78417006D01*
X104865647Y-78182959D01*
X104865641Y-78182952D01*
X104657047Y-77974358D01*
X104657040Y-77974352D01*
X104422993Y-77794761D01*
X104167510Y-77647258D01*
X104167500Y-77647254D01*
X103894961Y-77534364D01*
X103894954Y-77534362D01*
X103894952Y-77534361D01*
X103609993Y-77458007D01*
X103561113Y-77451571D01*
X103317513Y-77419500D01*
X103317506Y-77419500D01*
X103022494Y-77419500D01*
X103022486Y-77419500D01*
X102744085Y-77456153D01*
X102730007Y-77458007D01*
X102557410Y-77504254D01*
X102445048Y-77534361D01*
X102445038Y-77534364D01*
X102172499Y-77647254D01*
X102172489Y-77647258D01*
X101917006Y-77794761D01*
X101682959Y-77974352D01*
X101682952Y-77974358D01*
X101474358Y-78182952D01*
X101474352Y-78182959D01*
X101294761Y-78417006D01*
X101147258Y-78672489D01*
X101147254Y-78672499D01*
X101034364Y-78945038D01*
X101034361Y-78945048D01*
X100958008Y-79230004D01*
X100958006Y-79230015D01*
X100919500Y-79522486D01*
X99180854Y-79522486D01*
X99163402Y-79412299D01*
X99109873Y-79247555D01*
X99031232Y-79093212D01*
X98929414Y-78953072D01*
X98876882Y-78900540D01*
X98843397Y-78839217D01*
X98848381Y-78769525D01*
X98890253Y-78713592D01*
X98955717Y-78689175D01*
X98983961Y-78690386D01*
X99234072Y-78730000D01*
X99485928Y-78730000D01*
X99734669Y-78690602D01*
X99974184Y-78612780D01*
X100198575Y-78498446D01*
X100198581Y-78498442D01*
X100300697Y-78424250D01*
X100300698Y-78424250D01*
X99684025Y-77807578D01*
X99715258Y-77794641D01*
X99838097Y-77712563D01*
X99942563Y-77608097D01*
X100024641Y-77485258D01*
X100037577Y-77454025D01*
X100654250Y-78070698D01*
X100654250Y-78070697D01*
X100728442Y-77968581D01*
X100728446Y-77968575D01*
X100842780Y-77744184D01*
X100920602Y-77504669D01*
X100960000Y-77255928D01*
X100960000Y-77004071D01*
X100920602Y-76755330D01*
X100842780Y-76515815D01*
X100728442Y-76291416D01*
X100654250Y-76189301D01*
X100654250Y-76189300D01*
X100037577Y-76805973D01*
X100024641Y-76774742D01*
X99942563Y-76651903D01*
X99838097Y-76547437D01*
X99715258Y-76465359D01*
X99684024Y-76452421D01*
X100300698Y-75835748D01*
X100198583Y-75761557D01*
X99974184Y-75647219D01*
X99734669Y-75569397D01*
X99485928Y-75530000D01*
X99234072Y-75530000D01*
X98985330Y-75569397D01*
X98745815Y-75647219D01*
X98521413Y-75761559D01*
X98419301Y-75835747D01*
X98419300Y-75835748D01*
X99035974Y-76452421D01*
X99004742Y-76465359D01*
X98881903Y-76547437D01*
X98777437Y-76651903D01*
X98695359Y-76774742D01*
X98682421Y-76805974D01*
X98065748Y-76189300D01*
X98065747Y-76189301D01*
X97991559Y-76291413D01*
X97877219Y-76515815D01*
X97799397Y-76755330D01*
X97760000Y-77004071D01*
X97760000Y-77255928D01*
X97799397Y-77504669D01*
X97877219Y-77744184D01*
X97991557Y-77968583D01*
X98065748Y-78070697D01*
X98065748Y-78070698D01*
X98682421Y-77454024D01*
X98695359Y-77485258D01*
X98777437Y-77608097D01*
X98881903Y-77712563D01*
X99004742Y-77794641D01*
X99035974Y-77807577D01*
X98419300Y-78424250D01*
X98421598Y-78453449D01*
X98407233Y-78521827D01*
X98358181Y-78571583D01*
X98290016Y-78586921D01*
X98278583Y-78585650D01*
X98176611Y-78569500D01*
X98003389Y-78569500D01*
X97963728Y-78575781D01*
X97832302Y-78596597D01*
X97667552Y-78650128D01*
X97513211Y-78728768D01*
X97457115Y-78769525D01*
X97373072Y-78830586D01*
X97373070Y-78830588D01*
X97373069Y-78830588D01*
X97250588Y-78953069D01*
X97250588Y-78953070D01*
X97250586Y-78953072D01*
X97206859Y-79013256D01*
X97148768Y-79093211D01*
X97070128Y-79247552D01*
X97016597Y-79412302D01*
X96989500Y-79583389D01*
X80690500Y-79583389D01*
X80690500Y-76224110D01*
X80690500Y-76224108D01*
X80656392Y-76096814D01*
X80590500Y-75982686D01*
X80497314Y-75889500D01*
X80440250Y-75856554D01*
X80383187Y-75823608D01*
X80319539Y-75806554D01*
X80255892Y-75789500D01*
X80255891Y-75789500D01*
X76844500Y-75789500D01*
X76777461Y-75769815D01*
X76731706Y-75717011D01*
X76720500Y-75665500D01*
X76720500Y-74464038D01*
X104109500Y-74464038D01*
X104109500Y-74715961D01*
X104148910Y-74964785D01*
X104226760Y-75204383D01*
X104341132Y-75428848D01*
X104489201Y-75632649D01*
X104489205Y-75632654D01*
X104667345Y-75810794D01*
X104667350Y-75810798D01*
X104775675Y-75889500D01*
X104871155Y-75958870D01*
X105014184Y-76031747D01*
X105095616Y-76073239D01*
X105095618Y-76073239D01*
X105095621Y-76073241D01*
X105335215Y-76151090D01*
X105584038Y-76190500D01*
X105584039Y-76190500D01*
X105835961Y-76190500D01*
X105835962Y-76190500D01*
X106084785Y-76151090D01*
X106324379Y-76073241D01*
X106548845Y-75958870D01*
X106752656Y-75810793D01*
X106812300Y-75751149D01*
X119863500Y-75751149D01*
X119863500Y-76006850D01*
X119882491Y-76151090D01*
X119896874Y-76260340D01*
X119963050Y-76507312D01*
X119963053Y-76507322D01*
X120060894Y-76743531D01*
X120060899Y-76743542D01*
X120188734Y-76964957D01*
X120188745Y-76964973D01*
X120344388Y-77167811D01*
X120344394Y-77167818D01*
X120525181Y-77348605D01*
X120525188Y-77348611D01*
X120570247Y-77383186D01*
X120728035Y-77504261D01*
X120728042Y-77504265D01*
X120949457Y-77632100D01*
X120949462Y-77632102D01*
X120949465Y-77632104D01*
X121185687Y-77729950D01*
X121432660Y-77796126D01*
X121686157Y-77829500D01*
X121686164Y-77829500D01*
X122841836Y-77829500D01*
X122841843Y-77829500D01*
X123095340Y-77796126D01*
X123342313Y-77729950D01*
X123578535Y-77632104D01*
X123799965Y-77504261D01*
X124002813Y-77348610D01*
X124183610Y-77167813D01*
X124339261Y-76964965D01*
X124467104Y-76743535D01*
X124564950Y-76507313D01*
X124631126Y-76260340D01*
X124664500Y-76006843D01*
X124664500Y-75751157D01*
X124664499Y-75751149D01*
X142215500Y-75751149D01*
X142215500Y-76006850D01*
X142234491Y-76151090D01*
X142248874Y-76260340D01*
X142315050Y-76507312D01*
X142315053Y-76507322D01*
X142412894Y-76743531D01*
X142412899Y-76743542D01*
X142540734Y-76964957D01*
X142540745Y-76964973D01*
X142696388Y-77167811D01*
X142696394Y-77167818D01*
X142877181Y-77348605D01*
X142877188Y-77348611D01*
X142922247Y-77383186D01*
X143080035Y-77504261D01*
X143080042Y-77504265D01*
X143301457Y-77632100D01*
X143301462Y-77632102D01*
X143301465Y-77632104D01*
X143537687Y-77729950D01*
X143784660Y-77796126D01*
X144038157Y-77829500D01*
X144038164Y-77829500D01*
X145193836Y-77829500D01*
X145193843Y-77829500D01*
X145447340Y-77796126D01*
X145694313Y-77729950D01*
X145930535Y-77632104D01*
X146151965Y-77504261D01*
X146354813Y-77348610D01*
X146535610Y-77167813D01*
X146691261Y-76964965D01*
X146819104Y-76743535D01*
X146916950Y-76507313D01*
X146983126Y-76260340D01*
X147016500Y-76006843D01*
X147016500Y-75751157D01*
X146983126Y-75497660D01*
X146916950Y-75250687D01*
X146819104Y-75014465D01*
X146819102Y-75014462D01*
X146819100Y-75014457D01*
X146691265Y-74793042D01*
X146691261Y-74793035D01*
X146535610Y-74590187D01*
X146535605Y-74590181D01*
X146354818Y-74409394D01*
X146354811Y-74409388D01*
X146151973Y-74253745D01*
X146151971Y-74253743D01*
X146151965Y-74253739D01*
X146151960Y-74253736D01*
X146151957Y-74253734D01*
X145930542Y-74125899D01*
X145930531Y-74125894D01*
X145694322Y-74028053D01*
X145694315Y-74028051D01*
X145694313Y-74028050D01*
X145447340Y-73961874D01*
X145391007Y-73954457D01*
X145193850Y-73928500D01*
X145193843Y-73928500D01*
X144038157Y-73928500D01*
X144038149Y-73928500D01*
X143812826Y-73958165D01*
X143784660Y-73961874D01*
X143537687Y-74028050D01*
X143537677Y-74028053D01*
X143301468Y-74125894D01*
X143301457Y-74125899D01*
X143080042Y-74253734D01*
X143080026Y-74253745D01*
X142877188Y-74409388D01*
X142877181Y-74409394D01*
X142696394Y-74590181D01*
X142696388Y-74590188D01*
X142540745Y-74793026D01*
X142540734Y-74793042D01*
X142412899Y-75014457D01*
X142412894Y-75014468D01*
X142315053Y-75250677D01*
X142315050Y-75250687D01*
X142248874Y-75497661D01*
X142215500Y-75751149D01*
X124664499Y-75751149D01*
X124631126Y-75497660D01*
X124564950Y-75250687D01*
X124467104Y-75014465D01*
X124467102Y-75014462D01*
X124467100Y-75014457D01*
X124339265Y-74793042D01*
X124339261Y-74793035D01*
X124183610Y-74590187D01*
X124183605Y-74590181D01*
X124002818Y-74409394D01*
X124002811Y-74409388D01*
X123799973Y-74253745D01*
X123799971Y-74253743D01*
X123799965Y-74253739D01*
X123799960Y-74253736D01*
X123799957Y-74253734D01*
X123578542Y-74125899D01*
X123578531Y-74125894D01*
X123342322Y-74028053D01*
X123342315Y-74028051D01*
X123342313Y-74028050D01*
X123095340Y-73961874D01*
X123039007Y-73954457D01*
X122841850Y-73928500D01*
X122841843Y-73928500D01*
X121686157Y-73928500D01*
X121686149Y-73928500D01*
X121460826Y-73958165D01*
X121432660Y-73961874D01*
X121185687Y-74028050D01*
X121185677Y-74028053D01*
X120949468Y-74125894D01*
X120949457Y-74125899D01*
X120728042Y-74253734D01*
X120728026Y-74253745D01*
X120525188Y-74409388D01*
X120525181Y-74409394D01*
X120344394Y-74590181D01*
X120344388Y-74590188D01*
X120188745Y-74793026D01*
X120188734Y-74793042D01*
X120060899Y-75014457D01*
X120060894Y-75014468D01*
X119963053Y-75250677D01*
X119963050Y-75250687D01*
X119896874Y-75497661D01*
X119863500Y-75751149D01*
X106812300Y-75751149D01*
X106930793Y-75632656D01*
X107078870Y-75428845D01*
X107193241Y-75204379D01*
X107271090Y-74964785D01*
X107310500Y-74715962D01*
X107310500Y-74464038D01*
X107271090Y-74215215D01*
X107193241Y-73975621D01*
X107193239Y-73975618D01*
X107193239Y-73975616D01*
X107151747Y-73894184D01*
X107078870Y-73751155D01*
X107059952Y-73725117D01*
X106930798Y-73547350D01*
X106930794Y-73547345D01*
X106752654Y-73369205D01*
X106752649Y-73369201D01*
X106548848Y-73221132D01*
X106548847Y-73221131D01*
X106548845Y-73221130D01*
X106478747Y-73185413D01*
X106324383Y-73106760D01*
X106084785Y-73028910D01*
X105835962Y-72989500D01*
X105584038Y-72989500D01*
X105459626Y-73009205D01*
X105335214Y-73028910D01*
X105095616Y-73106760D01*
X104871151Y-73221132D01*
X104667350Y-73369201D01*
X104667345Y-73369205D01*
X104489205Y-73547345D01*
X104489201Y-73547350D01*
X104341132Y-73751151D01*
X104226760Y-73975616D01*
X104148910Y-74215214D01*
X104109500Y-74464038D01*
X76720500Y-74464038D01*
X76720500Y-72184110D01*
X76720500Y-72184108D01*
X76686392Y-72056814D01*
X76620500Y-71942686D01*
X76527314Y-71849500D01*
X76468424Y-71815500D01*
X76413187Y-71783608D01*
X76349539Y-71766554D01*
X76285892Y-71749500D01*
X76285891Y-71749500D01*
X71804500Y-71749500D01*
X71737461Y-71729815D01*
X71691706Y-71677011D01*
X71680500Y-71625500D01*
X71680500Y-68043898D01*
X71700185Y-67976859D01*
X71752989Y-67931104D01*
X71804377Y-67919898D01*
X112759845Y-67880500D01*
X112825892Y-67880500D01*
X112825895Y-67880498D01*
X112826367Y-67880436D01*
X112826373Y-67880436D01*
X112889479Y-67863461D01*
X112889484Y-67863482D01*
X112889592Y-67863430D01*
X112953186Y-67846392D01*
X112953199Y-67846384D01*
X112953618Y-67846210D01*
X112953634Y-67846206D01*
X113010251Y-67813445D01*
X113010253Y-67813450D01*
X113010333Y-67813397D01*
X113067314Y-67780500D01*
X113067319Y-67780494D01*
X113067390Y-67780441D01*
X113067571Y-67780302D01*
X113067695Y-67780206D01*
X113067699Y-67780204D01*
X113113986Y-67733827D01*
X113160500Y-67687314D01*
X113160506Y-67687302D01*
X113160693Y-67687060D01*
X113160785Y-67686938D01*
X113160795Y-67686929D01*
X113193347Y-67630420D01*
X113193354Y-67630424D01*
X113193398Y-67630330D01*
X113226392Y-67573186D01*
X113226395Y-67573173D01*
X113226578Y-67572734D01*
X113243349Y-67509900D01*
X113243380Y-67509783D01*
X113260500Y-67445892D01*
X113260500Y-67445882D01*
X113260501Y-67445876D01*
X113260520Y-67445735D01*
X113260563Y-67445407D01*
X113260500Y-67380038D01*
X113260500Y-63434500D01*
X113280185Y-63367461D01*
X113332989Y-63321706D01*
X113384500Y-63310500D01*
X116787206Y-63310500D01*
X116850252Y-63311210D01*
X116853026Y-63310500D01*
X116855892Y-63310500D01*
X116916815Y-63294175D01*
X116977922Y-63278538D01*
X116980419Y-63277133D01*
X116983186Y-63276392D01*
X117037800Y-63244860D01*
X117092785Y-63213935D01*
X117094833Y-63211932D01*
X117097314Y-63210500D01*
X117141920Y-63165893D01*
X117187014Y-63121804D01*
X117188473Y-63119340D01*
X117190500Y-63117314D01*
X117222038Y-63062688D01*
X117254187Y-63008426D01*
X117254959Y-63005666D01*
X117256392Y-63003186D01*
X117272718Y-62942253D01*
X117289726Y-62881524D01*
X117289725Y-62881524D01*
X117289786Y-62881310D01*
X117290046Y-62879335D01*
X117290239Y-62877929D01*
X117290500Y-62876106D01*
X117290500Y-62813477D01*
X117290508Y-62812081D01*
X117294929Y-62419500D01*
X117335445Y-58821617D01*
X129050000Y-58821617D01*
X129050000Y-59018382D01*
X129080778Y-59212705D01*
X129141581Y-59399835D01*
X129230905Y-59575145D01*
X129256319Y-59610125D01*
X129256320Y-59610125D01*
X129900000Y-58966445D01*
X129900000Y-58972661D01*
X129927259Y-59074394D01*
X129979920Y-59165606D01*
X130054394Y-59240080D01*
X130145606Y-59292741D01*
X130247339Y-59320000D01*
X130253553Y-59320000D01*
X129609873Y-59963677D01*
X129609873Y-59963678D01*
X129644858Y-59989096D01*
X129820164Y-60078418D01*
X130007294Y-60139221D01*
X130201618Y-60170000D01*
X130398382Y-60170000D01*
X130592705Y-60139221D01*
X130779835Y-60078418D01*
X130955143Y-59989095D01*
X130990125Y-59963678D01*
X130990126Y-59963678D01*
X130346448Y-59320000D01*
X130352661Y-59320000D01*
X130454394Y-59292741D01*
X130545606Y-59240080D01*
X130620080Y-59165606D01*
X130672741Y-59074394D01*
X130700000Y-58972661D01*
X130700000Y-58966448D01*
X131343678Y-59610126D01*
X131343678Y-59610125D01*
X131369097Y-59575141D01*
X131459234Y-59398236D01*
X131507208Y-59347439D01*
X131575029Y-59330644D01*
X131641164Y-59353181D01*
X131680204Y-59398235D01*
X131681115Y-59400024D01*
X131681116Y-59400025D01*
X131770476Y-59575405D01*
X131886172Y-59734646D01*
X132025354Y-59873828D01*
X132184595Y-59989524D01*
X132259214Y-60027544D01*
X132359970Y-60078882D01*
X132359972Y-60078882D01*
X132359975Y-60078884D01*
X132460317Y-60111487D01*
X132547173Y-60139709D01*
X132741578Y-60170500D01*
X132741583Y-60170500D01*
X132938422Y-60170500D01*
X133132826Y-60139709D01*
X133212574Y-60113797D01*
X133320025Y-60078884D01*
X133495405Y-59989524D01*
X133654646Y-59873828D01*
X133793828Y-59734646D01*
X133909524Y-59575405D01*
X133998884Y-59400025D01*
X133999515Y-59398787D01*
X134047489Y-59347990D01*
X134115310Y-59331195D01*
X134181445Y-59353732D01*
X134220485Y-59398787D01*
X134310474Y-59575403D01*
X134314817Y-59581380D01*
X134426172Y-59734646D01*
X134565354Y-59873828D01*
X134724595Y-59989524D01*
X134799214Y-60027544D01*
X134899970Y-60078882D01*
X134899972Y-60078882D01*
X134899975Y-60078884D01*
X135000317Y-60111487D01*
X135087173Y-60139709D01*
X135281578Y-60170500D01*
X135281583Y-60170500D01*
X135478422Y-60170500D01*
X135672826Y-60139709D01*
X135752574Y-60113797D01*
X135860025Y-60078884D01*
X136035405Y-59989524D01*
X136194646Y-59873828D01*
X136333828Y-59734646D01*
X136445184Y-59581378D01*
X136500512Y-59538714D01*
X136570125Y-59532735D01*
X136631920Y-59565341D01*
X136666277Y-59626179D01*
X136669500Y-59654263D01*
X136669500Y-59717869D01*
X136669501Y-59717876D01*
X136675908Y-59777483D01*
X136726202Y-59912328D01*
X136726206Y-59912335D01*
X136812452Y-60027544D01*
X136812455Y-60027547D01*
X136927664Y-60113793D01*
X136927671Y-60113797D01*
X137062517Y-60164091D01*
X137062516Y-60164091D01*
X137069444Y-60164835D01*
X137122127Y-60170500D01*
X138717872Y-60170499D01*
X138777483Y-60164091D01*
X138912331Y-60113796D01*
X139027546Y-60027546D01*
X139113796Y-59912331D01*
X139164091Y-59777483D01*
X139170500Y-59717873D01*
X139170499Y-58122128D01*
X139164091Y-58062517D01*
X139128157Y-57966174D01*
X139113797Y-57927671D01*
X139113793Y-57927664D01*
X139027547Y-57812455D01*
X139027544Y-57812452D01*
X138912335Y-57726206D01*
X138912328Y-57726202D01*
X138777482Y-57675908D01*
X138777483Y-57675908D01*
X138717883Y-57669501D01*
X138717881Y-57669500D01*
X138717873Y-57669500D01*
X138717864Y-57669500D01*
X137122129Y-57669500D01*
X137122123Y-57669501D01*
X137062516Y-57675908D01*
X136927671Y-57726202D01*
X136927664Y-57726206D01*
X136812455Y-57812452D01*
X136812452Y-57812455D01*
X136726206Y-57927664D01*
X136726202Y-57927671D01*
X136675908Y-58062517D01*
X136671303Y-58105354D01*
X136669501Y-58122123D01*
X136669500Y-58122135D01*
X136669500Y-58185732D01*
X136649815Y-58252771D01*
X136597011Y-58298526D01*
X136527853Y-58308470D01*
X136464297Y-58279445D01*
X136445182Y-58258618D01*
X136346020Y-58122135D01*
X136333828Y-58105354D01*
X136194646Y-57966172D01*
X136035405Y-57850476D01*
X135860029Y-57761117D01*
X135672826Y-57700290D01*
X135478422Y-57669500D01*
X135478417Y-57669500D01*
X135281583Y-57669500D01*
X135281578Y-57669500D01*
X135087173Y-57700290D01*
X134899970Y-57761117D01*
X134724594Y-57850476D01*
X134633741Y-57916485D01*
X134565354Y-57966172D01*
X134565352Y-57966174D01*
X134565351Y-57966174D01*
X134426174Y-58105351D01*
X134426174Y-58105352D01*
X134426172Y-58105354D01*
X134413980Y-58122135D01*
X134310476Y-58264594D01*
X134220485Y-58441213D01*
X134172511Y-58492009D01*
X134104690Y-58508804D01*
X134038555Y-58486267D01*
X133999515Y-58441213D01*
X133931879Y-58308470D01*
X133909524Y-58264595D01*
X133793828Y-58105354D01*
X133654646Y-57966172D01*
X133495405Y-57850476D01*
X133320029Y-57761117D01*
X133132826Y-57700290D01*
X132938422Y-57669500D01*
X132938417Y-57669500D01*
X132741583Y-57669500D01*
X132741578Y-57669500D01*
X132547173Y-57700290D01*
X132359970Y-57761117D01*
X132184594Y-57850476D01*
X132093741Y-57916485D01*
X132025354Y-57966172D01*
X132025352Y-57966174D01*
X132025351Y-57966174D01*
X131886174Y-58105351D01*
X131886174Y-58105352D01*
X131886172Y-58105354D01*
X131873980Y-58122135D01*
X131770476Y-58264594D01*
X131680204Y-58441764D01*
X131632229Y-58492560D01*
X131564408Y-58509355D01*
X131498274Y-58486818D01*
X131459234Y-58441764D01*
X131369096Y-58264858D01*
X131343678Y-58229873D01*
X131343677Y-58229873D01*
X130700000Y-58873551D01*
X130700000Y-58867339D01*
X130672741Y-58765606D01*
X130620080Y-58674394D01*
X130545606Y-58599920D01*
X130454394Y-58547259D01*
X130352661Y-58520000D01*
X130346447Y-58520000D01*
X130990125Y-57876320D01*
X130990125Y-57876319D01*
X130955145Y-57850905D01*
X130779835Y-57761581D01*
X130592705Y-57700778D01*
X130398382Y-57670000D01*
X130201618Y-57670000D01*
X130007294Y-57700778D01*
X129820161Y-57761582D01*
X129644863Y-57850899D01*
X129644859Y-57850902D01*
X129609873Y-57876320D01*
X129609872Y-57876320D01*
X130253554Y-58520000D01*
X130247339Y-58520000D01*
X130145606Y-58547259D01*
X130054394Y-58599920D01*
X129979920Y-58674394D01*
X129927259Y-58765606D01*
X129900000Y-58867339D01*
X129900000Y-58873552D01*
X129256320Y-58229872D01*
X129256320Y-58229873D01*
X129230902Y-58264859D01*
X129230899Y-58264863D01*
X129141582Y-58440161D01*
X129080778Y-58627294D01*
X129050000Y-58821617D01*
X117335445Y-58821617D01*
X117383514Y-54553102D01*
X117403952Y-54486290D01*
X117457268Y-54441133D01*
X117507506Y-54430500D01*
X121665890Y-54430500D01*
X121665892Y-54430500D01*
X121793186Y-54396392D01*
X121907314Y-54330500D01*
X122000500Y-54237314D01*
X122066392Y-54123186D01*
X122100500Y-53995892D01*
X122100500Y-52825513D01*
X129639500Y-52825513D01*
X129639500Y-53014486D01*
X129669059Y-53201118D01*
X129727454Y-53380836D01*
X129769251Y-53462866D01*
X129813240Y-53549199D01*
X129924310Y-53702073D01*
X130057927Y-53835690D01*
X130210801Y-53946760D01*
X130290347Y-53987290D01*
X130379163Y-54032545D01*
X130379165Y-54032545D01*
X130379168Y-54032547D01*
X130475497Y-54063846D01*
X130558881Y-54090940D01*
X130745514Y-54120500D01*
X130745519Y-54120500D01*
X130934486Y-54120500D01*
X131121118Y-54090940D01*
X131300832Y-54032547D01*
X131469199Y-53946760D01*
X131622073Y-53835690D01*
X131755690Y-53702073D01*
X131866760Y-53549199D01*
X131952547Y-53380832D01*
X132010940Y-53201118D01*
X132040500Y-53014486D01*
X132040500Y-52825513D01*
X137259500Y-52825513D01*
X137259500Y-53014486D01*
X137289059Y-53201118D01*
X137347454Y-53380836D01*
X137389251Y-53462866D01*
X137433240Y-53549199D01*
X137544310Y-53702073D01*
X137677927Y-53835690D01*
X137830801Y-53946760D01*
X137910347Y-53987290D01*
X137999163Y-54032545D01*
X137999165Y-54032545D01*
X137999168Y-54032547D01*
X138095497Y-54063846D01*
X138178881Y-54090940D01*
X138365514Y-54120500D01*
X138365519Y-54120500D01*
X138554486Y-54120500D01*
X138741118Y-54090940D01*
X138920832Y-54032547D01*
X139089199Y-53946760D01*
X139242073Y-53835690D01*
X139375690Y-53702073D01*
X139486760Y-53549199D01*
X139572547Y-53380832D01*
X139630940Y-53201118D01*
X139660500Y-53014486D01*
X139660500Y-52825513D01*
X139630940Y-52638881D01*
X139572545Y-52459163D01*
X139486759Y-52290800D01*
X139375690Y-52137927D01*
X139242073Y-52004310D01*
X139089199Y-51893240D01*
X138920836Y-51807454D01*
X138741118Y-51749059D01*
X138554486Y-51719500D01*
X138554481Y-51719500D01*
X138365519Y-51719500D01*
X138365514Y-51719500D01*
X138178881Y-51749059D01*
X137999163Y-51807454D01*
X137830800Y-51893240D01*
X137743579Y-51956610D01*
X137677927Y-52004310D01*
X137677925Y-52004312D01*
X137677924Y-52004312D01*
X137544312Y-52137924D01*
X137544312Y-52137925D01*
X137544310Y-52137927D01*
X137496610Y-52203579D01*
X137433240Y-52290800D01*
X137347454Y-52459163D01*
X137289059Y-52638881D01*
X137259500Y-52825513D01*
X132040500Y-52825513D01*
X132010940Y-52638881D01*
X131952545Y-52459163D01*
X131866759Y-52290800D01*
X131755690Y-52137927D01*
X131622073Y-52004310D01*
X131469199Y-51893240D01*
X131300836Y-51807454D01*
X131121118Y-51749059D01*
X130934486Y-51719500D01*
X130934481Y-51719500D01*
X130745519Y-51719500D01*
X130745514Y-51719500D01*
X130558881Y-51749059D01*
X130379163Y-51807454D01*
X130210800Y-51893240D01*
X130123579Y-51956610D01*
X130057927Y-52004310D01*
X130057925Y-52004312D01*
X130057924Y-52004312D01*
X129924312Y-52137924D01*
X129924312Y-52137925D01*
X129924310Y-52137927D01*
X129876610Y-52203579D01*
X129813240Y-52290800D01*
X129727454Y-52459163D01*
X129669059Y-52638881D01*
X129639500Y-52825513D01*
X122100500Y-52825513D01*
X122100500Y-45620970D01*
X122120185Y-45553931D01*
X122172989Y-45508176D01*
X122225775Y-45496977D01*
X126371242Y-45539714D01*
X126382351Y-45540500D01*
X126384108Y-45540500D01*
X126447389Y-45540500D01*
X126510729Y-45541153D01*
X126513271Y-45540500D01*
X126515892Y-45540500D01*
X126577015Y-45524122D01*
X126638368Y-45508359D01*
X126640653Y-45507070D01*
X126643186Y-45506392D01*
X126697993Y-45474748D01*
X126753169Y-45443647D01*
X126755043Y-45441811D01*
X126757314Y-45440500D01*
X126802077Y-45395736D01*
X126847311Y-45351426D01*
X126848645Y-45349168D01*
X126850500Y-45347314D01*
X126882142Y-45292507D01*
X126914376Y-45237984D01*
X126915081Y-45235456D01*
X126916392Y-45233186D01*
X126932776Y-45172039D01*
X126949794Y-45111048D01*
X126949794Y-45111044D01*
X126949846Y-45110858D01*
X126950078Y-45109096D01*
X126950254Y-45107809D01*
X126950500Y-45106079D01*
X126950500Y-45043189D01*
X126950507Y-45041910D01*
X126951171Y-44977522D01*
X126950500Y-44966399D01*
X126950500Y-41054500D01*
X126970185Y-40987461D01*
X127022989Y-40941706D01*
X127074500Y-40930500D01*
X131126382Y-40930500D01*
X131136511Y-40931116D01*
X131138796Y-40931094D01*
X131138798Y-40931095D01*
X131202338Y-40930500D01*
X131265892Y-40930500D01*
X131268193Y-40929883D01*
X131270576Y-40929861D01*
X131331777Y-40912846D01*
X131393186Y-40896392D01*
X131395251Y-40895199D01*
X131397545Y-40894562D01*
X131452236Y-40862298D01*
X131507314Y-40830500D01*
X131509000Y-40828813D01*
X131511051Y-40827604D01*
X131555513Y-40782300D01*
X131600500Y-40737314D01*
X131600501Y-40737311D01*
X131600605Y-40737208D01*
X131601543Y-40735962D01*
X131602260Y-40735019D01*
X131603282Y-40733687D01*
X131603360Y-40733549D01*
X131634591Y-40678265D01*
X131666392Y-40623186D01*
X131667008Y-40620883D01*
X131668181Y-40618809D01*
X131684052Y-40557275D01*
X131700500Y-40495892D01*
X131700500Y-40493508D01*
X131701095Y-40491202D01*
X131700505Y-40428202D01*
X131700500Y-40427041D01*
X131700500Y-40361830D01*
X131699788Y-40351698D01*
X131616308Y-31438024D01*
X131635364Y-31370807D01*
X131687737Y-31324560D01*
X131738789Y-31312876D01*
X139513993Y-31218161D01*
X139581264Y-31237028D01*
G37*
%TD.AperFunction*%
%TD*%
M02*
