%TF.GenerationSoftware,KiCad,Pcbnew,10.0.6*%
%TF.CreationDate,2026-10-09T15:54:34-05:00*%
%TF.ProjectId,pcb,7063622e-6b69-4636-9164-5f7063625858,rev?*%
%TF.SameCoordinates,Original*%
%TF.FileFunction,Copper,L1,Top*%
%TF.FilePolarity,Positive*%
%FSLAX46Y46*%
G04 Gerber Fmt 4.6, Leading zero omitted, Abs format (unit mm)*
G04 Created by KiCad (PCBNEW 10.0.6) date 2026-10-09 15:54:34*
%MOMM*%
%LPD*%
G01*
G04 APERTURE LIST*
G04 Aperture macros list*
%AMRoundRect*
0 Rectangle with rounded corners*
0 $1 Rounding radius*
0 $2 $3 $4 $5 $6 $7 $8 $9 X,Y pos of 4 corners*
0 Add a 4 corners polygon primitive as box body*
4,1,4,$2,$3,$4,$5,$6,$7,$8,$9,$2,$3,0*
0 Add four circle primitives for the rounded corners*
1,1,$1+$1,$2,$3*
1,1,$1+$1,$4,$5*
1,1,$1+$1,$6,$7*
1,1,$1+$1,$8,$9*
0 Add four rect primitives between the rounded corners*
20,1,$1+$1,$2,$3,$4,$5,0*
20,1,$1+$1,$4,$5,$6,$7,0*
20,1,$1+$1,$6,$7,$8,$9,0*
20,1,$1+$1,$8,$9,$2,$3,0*%
G04 Aperture macros list end*
%TA.AperFunction,ComponentPad*%
%ADD10C,1.400000*%
%TD*%
%TA.AperFunction,ComponentPad*%
%ADD11R,1.700000X1.700000*%
%TD*%
%TA.AperFunction,ComponentPad*%
%ADD12C,1.700000*%
%TD*%
%TA.AperFunction,ComponentPad*%
%ADD13O,1.700000X1.700000*%
%TD*%
%TA.AperFunction,ComponentPad*%
%ADD14C,2.200000*%
%TD*%
%TA.AperFunction,ComponentPad*%
%ADD15R,1.500000X1.500000*%
%TD*%
%TA.AperFunction,ComponentPad*%
%ADD16C,1.500000*%
%TD*%
%TA.AperFunction,SMDPad,CuDef*%
%ADD17RoundRect,0.500000X-0.875000X-0.500000X0.875000X-0.500000X0.875000X0.500000X-0.875000X0.500000X0*%
%TD*%
%TA.AperFunction,SMDPad,CuDef*%
%ADD18C,1.700000*%
%TD*%
%TA.AperFunction,SMDPad,CuDef*%
%ADD19RoundRect,0.275000X0.975000X0.275000X-0.975000X0.275000X-0.975000X-0.275000X0.975000X-0.275000X0*%
%TD*%
%TA.AperFunction,Conductor*%
%ADD20C,0.200000*%
%TD*%
G04 APERTURE END LIST*
D10*
%TO.P,R1,1*%
%TO.N,+3.3V*%
X130840000Y-52920000D03*
%TO.P,R1,2*%
%TO.N,/DHT11_DATA*%
X138460000Y-52920000D03*
%TD*%
D11*
%TO.P,J2,1,Pin_1_1*%
%TO.N,+3.3V*%
X153380000Y-104800000D03*
D12*
%TO.P,J2,2,Pin_2_2*%
%TO.N,GND*%
X153380000Y-107340000D03*
%TO.P,J2,3,Pin_3_3*%
%TO.N,/SCL*%
X153380000Y-109880000D03*
%TO.P,J2,4,Pin_4_4*%
%TO.N,/SDA*%
X153380000Y-112420000D03*
%TO.P,J2,5,Pin_5_5*%
%TO.N,unconnected-(J2-Pin_5-Pad5)*%
X153380000Y-114960000D03*
%TO.P,J2,6,Pin_6_6*%
%TO.N,unconnected-(J2-Pin_6-Pad6)*%
X153380000Y-117500000D03*
%TO.P,J2,7,Pin_7_7*%
%TO.N,unconnected-(J2-Pin_7-Pad7)*%
X153380000Y-120040000D03*
%TO.P,J2,8,Pin_8_8*%
%TO.N,unconnected-(J2-Pin_8-Pad8)*%
X153380000Y-122580000D03*
%TD*%
D11*
%TO.P,J1,1,Pin_1_1*%
%TO.N,GND*%
X137250000Y-99628000D03*
D13*
%TO.P,J1,2,Pin_2_2*%
%TO.N,+3.3V*%
X134710000Y-99628000D03*
%TO.P,J1,3,Pin_3_3*%
%TO.N,/SCL*%
X132170000Y-99628000D03*
%TO.P,J1,4,Pin_4_4*%
%TO.N,/SDA*%
X129630000Y-99628000D03*
%TD*%
D14*
%TO.P,SW1,1,1_1*%
%TO.N,/GPIO2*%
X105710000Y-74590000D03*
%TO.P,SW1,2,2_2*%
%TO.N,GND*%
X99360000Y-77130000D03*
%TD*%
%TO.P,SW2,1,1_1*%
%TO.N,/GPIO3*%
X109760000Y-113990000D03*
%TO.P,SW2,2,2_2*%
%TO.N,GND*%
X103410000Y-116530000D03*
%TD*%
D15*
%TO.P,U2,1,VDD_1*%
%TO.N,+3.3V*%
X137920000Y-58920000D03*
D16*
%TO.P,U2,2,DATA_2*%
%TO.N,/DHT11_DATA*%
X135380000Y-58920000D03*
%TO.P,U2,3,NC_3*%
%TO.N,unconnected-(U2-NC-Pad3)*%
X132840000Y-58920000D03*
%TO.P,U2,4,GND_4*%
%TO.N,GND*%
X130300000Y-58920000D03*
%TD*%
D17*
%TO.P,U1,1,D0_1*%
%TO.N,unconnected-(U1-D0-Pad1)*%
X161055000Y-74160000D03*
%TO.P,U1,2,D1_2*%
%TO.N,/DHT11_DATA*%
X161055000Y-76700000D03*
%TO.P,U1,3,D2_3*%
%TO.N,/GPIO2*%
X161055000Y-79240000D03*
%TO.P,U1,4,D3_4*%
%TO.N,/GPIO3*%
X161055000Y-81780000D03*
%TO.P,U1,5,D4_5*%
%TO.N,/SCL*%
X161055000Y-84320000D03*
%TO.P,U1,6,D5_6*%
%TO.N,/SDA*%
X161055000Y-86860000D03*
%TO.P,U1,7,D6_7*%
%TO.N,unconnected-(U1-D6-Pad7)*%
X161055000Y-89400000D03*
%TO.P,U1,8,D7_8*%
%TO.N,unconnected-(U1-D7-Pad8)*%
X177220000Y-89400000D03*
%TO.P,U1,9,D8_9*%
%TO.N,unconnected-(U1-D8-Pad9)*%
X177220000Y-86860000D03*
%TO.P,U1,10,D9/BOOT_10*%
%TO.N,unconnected-(U1-D9{slash}BOOT-Pad10)*%
X177220000Y-84320000D03*
%TO.P,U1,11,D10_11*%
%TO.N,unconnected-(U1-D10-Pad11)*%
X177220000Y-81780000D03*
%TO.P,U1,12,3V3_OUT_12*%
%TO.N,+3.3V*%
X177220000Y-79240000D03*
%TO.P,U1,13,GND_13*%
%TO.N,GND*%
X177220000Y-76700000D03*
%TO.P,U1,14,VBUS_14*%
%TO.N,+5V*%
X177220000Y-74160000D03*
D18*
%TO.P,U1,15,D3/MTDI_15*%
%TO.N,unconnected-(U1-D3{slash}MTDI-Pad15)*%
X167840000Y-73148000D03*
%TO.P,U1,16,D5/MTDO_16*%
%TO.N,unconnected-(U1-D5{slash}MTDO-Pad16)*%
X170380000Y-73148000D03*
%TO.P,U1,17,EN_17*%
%TO.N,unconnected-(U1-EN-Pad17)*%
X167840000Y-75688000D03*
%TO.P,U1,18,GND_18*%
%TO.N,GND*%
X170380000Y-75688000D03*
%TO.P,U1,19,D2/MTMS_19*%
%TO.N,unconnected-(U1-D2{slash}MTMS-Pad19)*%
X167840000Y-78228000D03*
%TO.P,U1,20,D4/MTCK_20*%
%TO.N,unconnected-(U1-D4{slash}MTCK-Pad20)*%
X170380000Y-78228000D03*
D19*
%TO.P,U1,21,VBAT_21*%
%TO.N,unconnected-(U1-VBAT-Pad21)*%
X164665000Y-81398000D03*
%TO.P,U1,22,GND_22*%
%TO.N,unconnected-(U1-GND-Pad22)*%
X164665000Y-79493000D03*
%TD*%
%TO.N,+3.3V*%
D20*
X154530000Y-107816346D02*
X154530000Y-105557862D01*
X125027761Y-94727862D02*
X106289899Y-75990000D01*
X130840000Y-52920000D02*
X131840000Y-51920000D01*
X154530000Y-105557862D02*
X145232138Y-96260000D01*
X178895000Y-73321358D02*
X178895000Y-77565000D01*
X110337770Y-67982331D02*
X125702594Y-67982331D01*
X104310000Y-74010101D02*
X110337770Y-67982331D01*
X138045786Y-51920000D02*
X141281472Y-51920000D01*
X145232138Y-96260000D02*
X139440000Y-96260000D01*
X134330000Y-55635786D02*
X138045786Y-51920000D01*
X153380000Y-104407862D02*
X143700000Y-94727862D01*
X143572000Y-108490000D02*
X153856346Y-108490000D01*
X141281472Y-51920000D02*
X157421472Y-68060000D01*
X134710000Y-99628000D02*
X143572000Y-108490000D01*
X105130101Y-75990000D02*
X104310000Y-75169899D01*
X143700000Y-94727862D02*
X125027761Y-94727862D01*
X178895000Y-77565000D02*
X177220000Y-79240000D01*
X104310000Y-75169899D02*
X104310000Y-74010101D01*
X134330000Y-59354925D02*
X134330000Y-55635786D01*
X157421472Y-68060000D02*
X173633642Y-68060000D01*
X106289899Y-75990000D02*
X105130101Y-75990000D01*
X125702594Y-67982331D02*
X134330000Y-59354925D01*
X153856346Y-108490000D02*
X154530000Y-107816346D01*
X173633642Y-68060000D02*
X178895000Y-73321358D01*
X153380000Y-104800000D02*
X153380000Y-104407862D01*
%TO.N,/DHT11_DATA*%
X138460000Y-52920000D02*
X138460000Y-55840000D01*
X153160000Y-76700000D02*
X161055000Y-76700000D01*
X135380000Y-58920000D02*
X153160000Y-76700000D01*
X138460000Y-55840000D02*
X135380000Y-58920000D01*
X138460000Y-52920000D02*
X138460000Y-52950000D01*
X138460000Y-52950000D02*
X138480000Y-52970000D01*
%TO.N,GND*%
X116391404Y-116190000D02*
X119285058Y-113296346D01*
X119595729Y-101043000D02*
X107560000Y-113078731D01*
X171392000Y-76700000D02*
X177220000Y-76700000D01*
X119285058Y-113296346D02*
X150090000Y-113296346D01*
X169230000Y-76838000D02*
X170380000Y-75688000D01*
X108848731Y-116190000D02*
X116391404Y-116190000D01*
X107560000Y-114901271D02*
X108848731Y-116190000D01*
X153856346Y-116110000D02*
X169230000Y-100736346D01*
X170380000Y-75688000D02*
X171392000Y-76700000D01*
X153380000Y-107340000D02*
X149613862Y-107340000D01*
X127663138Y-96943000D02*
X123563138Y-101043000D01*
X169230000Y-100736346D02*
X169230000Y-76838000D01*
X149613862Y-107340000D02*
X139216862Y-96943000D01*
X150090000Y-113296346D02*
X152903654Y-116110000D01*
X107560000Y-113078731D02*
X107560000Y-114901271D01*
X139216862Y-96943000D02*
X127663138Y-96943000D01*
X152903654Y-116110000D02*
X153856346Y-116110000D01*
X123563138Y-101043000D02*
X119595729Y-101043000D01*
%TO.N,/SCL*%
X159380000Y-85995000D02*
X161055000Y-84320000D01*
X153380000Y-109880000D02*
X159380000Y-103880000D01*
X142422000Y-109880000D02*
X132170000Y-99628000D01*
X153380000Y-109880000D02*
X142422000Y-109880000D01*
X159380000Y-103880000D02*
X159380000Y-85995000D01*
%TO.N,/SDA*%
X108360000Y-113410101D02*
X109180101Y-112590000D01*
X119030032Y-112420000D02*
X116060032Y-115390000D01*
X162730000Y-103070000D02*
X162730000Y-88535000D01*
X109180101Y-112590000D02*
X116668000Y-112590000D01*
X109180101Y-115390000D02*
X108360000Y-114569899D01*
X108360000Y-114569899D02*
X108360000Y-113410101D01*
X153380000Y-112420000D02*
X162730000Y-103070000D01*
X153380000Y-112420000D02*
X119030032Y-112420000D01*
X116060032Y-115390000D02*
X109180101Y-115390000D01*
X116668000Y-112590000D02*
X129630000Y-99628000D01*
X162730000Y-88535000D02*
X161055000Y-86860000D01*
%TO.N,/GPIO2*%
X105710000Y-74590000D02*
X110360000Y-79240000D01*
X110360000Y-79240000D02*
X161055000Y-79240000D01*
%TO.N,/GPIO3*%
X116894346Y-113990000D02*
X130780000Y-100104346D01*
X129153654Y-98478000D02*
X115441654Y-112190000D01*
X107960000Y-113244416D02*
X107960000Y-114735585D01*
X107960000Y-114735585D02*
X109014416Y-115790000D01*
X130106346Y-98478000D02*
X129153654Y-98478000D01*
X116225718Y-115790000D02*
X119119372Y-112896346D01*
X153856346Y-113570000D02*
X163130000Y-104296346D01*
X152230000Y-112896346D02*
X152903654Y-113570000D01*
X163130000Y-83855000D02*
X161055000Y-81780000D01*
X152903654Y-113570000D02*
X153856346Y-113570000D01*
X130780000Y-99151654D02*
X130106346Y-98478000D01*
X130780000Y-100104346D02*
X130780000Y-99151654D01*
X119119372Y-112896346D02*
X152230000Y-112896346D01*
X109014416Y-115790000D02*
X116225718Y-115790000D01*
X109014415Y-112190000D02*
X107960000Y-113244416D01*
X109760000Y-113990000D02*
X116894346Y-113990000D01*
X115441654Y-112190000D02*
X109014415Y-112190000D01*
X163130000Y-104296346D02*
X163130000Y-83855000D01*
%TD*%
%TA.AperFunction,Conductor*%
%TO.N,+3.3V*%
G36*
X139581264Y-31237028D02*
G01*
X139627659Y-31289270D01*
X139639500Y-31342152D01*
X139639500Y-40435891D01*
X139673608Y-40563187D01*
X139705722Y-40618809D01*
X139739500Y-40677314D01*
X139832686Y-40770500D01*
X139946814Y-40836392D01*
X140074108Y-40870500D01*
X144225500Y-40870500D01*
X144292539Y-40890185D01*
X144338294Y-40942989D01*
X144349500Y-40994500D01*
X144349500Y-49225891D01*
X144383608Y-49353187D01*
X144416554Y-49410250D01*
X144449500Y-49467314D01*
X144542686Y-49560500D01*
X144656814Y-49626392D01*
X144784108Y-49660500D01*
X148335500Y-49660500D01*
X148402539Y-49680185D01*
X148448294Y-49732989D01*
X148459500Y-49784500D01*
X148459500Y-58684108D01*
X148459500Y-58815892D01*
X148461025Y-58821583D01*
X148493608Y-58943187D01*
X148510625Y-58972661D01*
X148559500Y-59057314D01*
X148652686Y-59150500D01*
X148751521Y-59207563D01*
X148760637Y-59212826D01*
X148766814Y-59216392D01*
X148894108Y-59250500D01*
X153155500Y-59250500D01*
X153222539Y-59270185D01*
X153268294Y-59322989D01*
X153279500Y-59374500D01*
X153279500Y-62854108D01*
X153279500Y-62985892D01*
X153285538Y-63008426D01*
X153313608Y-63113187D01*
X153344038Y-63165893D01*
X153379500Y-63227314D01*
X153472686Y-63320500D01*
X153586814Y-63386392D01*
X153714108Y-63420500D01*
X157775500Y-63420500D01*
X157842539Y-63440185D01*
X157888294Y-63492989D01*
X157899500Y-63544500D01*
X157899500Y-67525891D01*
X157933608Y-67653187D01*
X157953165Y-67687060D01*
X157999500Y-67767314D01*
X158092686Y-67860500D01*
X158206814Y-67926392D01*
X158334108Y-67960500D01*
X199425500Y-67960500D01*
X199492539Y-67980185D01*
X199538294Y-68032989D01*
X199549500Y-68084500D01*
X199549500Y-71815500D01*
X199529815Y-71882539D01*
X199477011Y-71928294D01*
X199425500Y-71939500D01*
X195374108Y-71939500D01*
X195246812Y-71973608D01*
X195132686Y-72039500D01*
X195132683Y-72039502D01*
X195039502Y-72132683D01*
X195039500Y-72132686D01*
X194973608Y-72246812D01*
X194939500Y-72374108D01*
X194939500Y-76565500D01*
X194919815Y-76632539D01*
X194867011Y-76678294D01*
X194815500Y-76689500D01*
X190474108Y-76689500D01*
X190346812Y-76723608D01*
X190232686Y-76789500D01*
X190232683Y-76789502D01*
X190139502Y-76882683D01*
X190139500Y-76882686D01*
X190073608Y-76996812D01*
X190039500Y-77124108D01*
X190039500Y-80675500D01*
X190019815Y-80742539D01*
X189967011Y-80788294D01*
X189915500Y-80799500D01*
X185644108Y-80799500D01*
X185516812Y-80833608D01*
X185402686Y-80899500D01*
X185402683Y-80899502D01*
X185309502Y-80992683D01*
X185309500Y-80992686D01*
X185243608Y-81106812D01*
X185209500Y-81234108D01*
X185209500Y-85435500D01*
X185189815Y-85502539D01*
X185137011Y-85548294D01*
X185085500Y-85559500D01*
X180744108Y-85559500D01*
X180616812Y-85593608D01*
X180502686Y-85659500D01*
X180502683Y-85659502D01*
X180409502Y-85752683D01*
X180409500Y-85752686D01*
X180343608Y-85866812D01*
X180309500Y-85994108D01*
X180309500Y-93935500D01*
X180289815Y-94002539D01*
X180237011Y-94048294D01*
X180185500Y-94059500D01*
X177064108Y-94059500D01*
X176936812Y-94093608D01*
X176822686Y-94159500D01*
X176822683Y-94159502D01*
X176729502Y-94252683D01*
X176729500Y-94252686D01*
X176663608Y-94366812D01*
X176629500Y-94494108D01*
X176629500Y-98905500D01*
X176609815Y-98972539D01*
X176557011Y-99018294D01*
X176505500Y-99029500D01*
X172024108Y-99029500D01*
X171896812Y-99063608D01*
X171782686Y-99129500D01*
X171782683Y-99129502D01*
X171689502Y-99222683D01*
X171689500Y-99222686D01*
X171623608Y-99336812D01*
X171589500Y-99464108D01*
X171589500Y-104224108D01*
X171589500Y-104355892D01*
X171594728Y-104375402D01*
X171623608Y-104483187D01*
X171629270Y-104492993D01*
X171689500Y-104597314D01*
X171782686Y-104690500D01*
X171896814Y-104756392D01*
X172024108Y-104790500D01*
X176365500Y-104790500D01*
X176432539Y-104810185D01*
X176478294Y-104862989D01*
X176489500Y-104914500D01*
X176489500Y-117704108D01*
X176489500Y-117835892D01*
X176491702Y-117844110D01*
X176523608Y-117963187D01*
X176532261Y-117978174D01*
X176589500Y-118077314D01*
X176682686Y-118170500D01*
X176796814Y-118236392D01*
X176924108Y-118270500D01*
X180185500Y-118270500D01*
X180252539Y-118290185D01*
X180298294Y-118342989D01*
X180309500Y-118394500D01*
X180309500Y-127555891D01*
X180343608Y-127683187D01*
X180345170Y-127685892D01*
X180409500Y-127797314D01*
X180502686Y-127890500D01*
X180616814Y-127956392D01*
X180744108Y-127990500D01*
X185015500Y-127990500D01*
X185082539Y-128010185D01*
X185128294Y-128062989D01*
X185139500Y-128114500D01*
X185139500Y-140635500D01*
X185119815Y-140702539D01*
X185067011Y-140748294D01*
X185015500Y-140759500D01*
X167954500Y-140759500D01*
X167887461Y-140739815D01*
X167841706Y-140687011D01*
X167830500Y-140635500D01*
X167830500Y-136364110D01*
X167830500Y-136364108D01*
X167796392Y-136236814D01*
X167730500Y-136122686D01*
X167637314Y-136029500D01*
X167580250Y-135996554D01*
X167523187Y-135963608D01*
X167459539Y-135946554D01*
X167395892Y-135929500D01*
X167395891Y-135929500D01*
X162984500Y-135929500D01*
X162917461Y-135909815D01*
X162871706Y-135857011D01*
X162860500Y-135805500D01*
X162860500Y-131534110D01*
X162860500Y-131534108D01*
X162826392Y-131406814D01*
X162760500Y-131292686D01*
X162667314Y-131199500D01*
X162610250Y-131166554D01*
X162553187Y-131133608D01*
X162489539Y-131116554D01*
X162425892Y-131099500D01*
X162425891Y-131099500D01*
X154404500Y-131099500D01*
X154337461Y-131079815D01*
X154291706Y-131027011D01*
X154280500Y-130975500D01*
X154280500Y-126634110D01*
X154280500Y-126634108D01*
X154246392Y-126506814D01*
X154180500Y-126392686D01*
X154087314Y-126299500D01*
X154030250Y-126266554D01*
X153973187Y-126233608D01*
X153909539Y-126216554D01*
X153845892Y-126199500D01*
X153845891Y-126199500D01*
X149504500Y-126199500D01*
X149437461Y-126179815D01*
X149391706Y-126127011D01*
X149380500Y-126075500D01*
X149380500Y-122744110D01*
X149380500Y-122744108D01*
X149346392Y-122616814D01*
X149280500Y-122502686D01*
X149187314Y-122409500D01*
X149130250Y-122376554D01*
X149073187Y-122343608D01*
X149009539Y-122326554D01*
X148945892Y-122309500D01*
X148945891Y-122309500D01*
X144684500Y-122309500D01*
X144617461Y-122289815D01*
X144571706Y-122237011D01*
X144560500Y-122185500D01*
X144560500Y-117844110D01*
X144560500Y-117844108D01*
X144526392Y-117716814D01*
X144460500Y-117602686D01*
X144367314Y-117509500D01*
X144286230Y-117462686D01*
X144253187Y-117443608D01*
X144189539Y-117426554D01*
X144125892Y-117409500D01*
X144125891Y-117409500D01*
X140504500Y-117409500D01*
X140437461Y-117389815D01*
X140391706Y-117337011D01*
X140380500Y-117285500D01*
X140380500Y-114020846D01*
X140400185Y-113953807D01*
X140452989Y-113908052D01*
X140504500Y-113896846D01*
X149789903Y-113896846D01*
X149856942Y-113916531D01*
X149877584Y-113933165D01*
X152369579Y-116425160D01*
X152403064Y-116486483D01*
X152398080Y-116556175D01*
X152369583Y-116600518D01*
X152349899Y-116620203D01*
X152349892Y-116620211D01*
X152224951Y-116792179D01*
X152128444Y-116981585D01*
X152062753Y-117183760D01*
X152029500Y-117393713D01*
X152029500Y-117606286D01*
X152053114Y-117755383D01*
X152062754Y-117816243D01*
X152126762Y-118013239D01*
X152128444Y-118018414D01*
X152224951Y-118207820D01*
X152349890Y-118379786D01*
X152500213Y-118530109D01*
X152672182Y-118655050D01*
X152680946Y-118659516D01*
X152731742Y-118707491D01*
X152748536Y-118775312D01*
X152725998Y-118841447D01*
X152680946Y-118880484D01*
X152672182Y-118884949D01*
X152500213Y-119009890D01*
X152349890Y-119160213D01*
X152224951Y-119332179D01*
X152128444Y-119521585D01*
X152062753Y-119723760D01*
X152029500Y-119933713D01*
X152029500Y-120146286D01*
X152057487Y-120322993D01*
X152062754Y-120356243D01*
X152127999Y-120557047D01*
X152128444Y-120558414D01*
X152224951Y-120747820D01*
X152349890Y-120919786D01*
X152500213Y-121070109D01*
X152672182Y-121195050D01*
X152680946Y-121199516D01*
X152731742Y-121247491D01*
X152748536Y-121315312D01*
X152725998Y-121381447D01*
X152680946Y-121420484D01*
X152672182Y-121424949D01*
X152500213Y-121549890D01*
X152349890Y-121700213D01*
X152224951Y-121872179D01*
X152128444Y-122061585D01*
X152062753Y-122263760D01*
X152029500Y-122473713D01*
X152029500Y-122686286D01*
X152059530Y-122875892D01*
X152062754Y-122896243D01*
X152124320Y-123085724D01*
X152128444Y-123098414D01*
X152224951Y-123287820D01*
X152349890Y-123459786D01*
X152500213Y-123610109D01*
X152672179Y-123735048D01*
X152672181Y-123735049D01*
X152672184Y-123735051D01*
X152861588Y-123831557D01*
X153063757Y-123897246D01*
X153273713Y-123930500D01*
X153273714Y-123930500D01*
X153486286Y-123930500D01*
X153486287Y-123930500D01*
X153696243Y-123897246D01*
X153898412Y-123831557D01*
X154087816Y-123735051D01*
X154109789Y-123719086D01*
X154259786Y-123610109D01*
X154259788Y-123610106D01*
X154259792Y-123610104D01*
X154410104Y-123459792D01*
X154410106Y-123459788D01*
X154410109Y-123459786D01*
X154535048Y-123287820D01*
X154535047Y-123287820D01*
X154535051Y-123287816D01*
X154631557Y-123098412D01*
X154697246Y-122896243D01*
X154730500Y-122686287D01*
X154730500Y-122473713D01*
X154697246Y-122263757D01*
X154631557Y-122061588D01*
X154535051Y-121872184D01*
X154535049Y-121872181D01*
X154535048Y-121872179D01*
X154410109Y-121700213D01*
X154259786Y-121549890D01*
X154087820Y-121424951D01*
X154087115Y-121424591D01*
X154079054Y-121420485D01*
X154028259Y-121372512D01*
X154011463Y-121304692D01*
X154033999Y-121238556D01*
X154079054Y-121199515D01*
X154087816Y-121195051D01*
X154109789Y-121179086D01*
X154259786Y-121070109D01*
X154259788Y-121070106D01*
X154259792Y-121070104D01*
X154410104Y-120919792D01*
X154410106Y-120919788D01*
X154410109Y-120919786D01*
X154535048Y-120747820D01*
X154535047Y-120747820D01*
X154535051Y-120747816D01*
X154631557Y-120558412D01*
X154697246Y-120356243D01*
X154730500Y-120146287D01*
X154730500Y-119933713D01*
X154697246Y-119723757D01*
X154631557Y-119521588D01*
X154535051Y-119332184D01*
X154535049Y-119332181D01*
X154535048Y-119332179D01*
X154410109Y-119160213D01*
X154259786Y-119009890D01*
X154087820Y-118884951D01*
X154087115Y-118884591D01*
X154079054Y-118880485D01*
X154028259Y-118832512D01*
X154011463Y-118764692D01*
X154033999Y-118698556D01*
X154079054Y-118659515D01*
X154087816Y-118655051D01*
X154122286Y-118630007D01*
X154259786Y-118530109D01*
X154259788Y-118530106D01*
X154259792Y-118530104D01*
X154410104Y-118379792D01*
X154410106Y-118379788D01*
X154410109Y-118379786D01*
X154535048Y-118207820D01*
X154535047Y-118207820D01*
X154535051Y-118207816D01*
X154631557Y-118018412D01*
X154697246Y-117816243D01*
X154730500Y-117606287D01*
X154730500Y-117393713D01*
X154697246Y-117183757D01*
X154631557Y-116981588D01*
X154535051Y-116792184D01*
X154535049Y-116792181D01*
X154535048Y-116792179D01*
X154410109Y-116620213D01*
X154390419Y-116600523D01*
X154356934Y-116539200D01*
X154361918Y-116469508D01*
X154390419Y-116425161D01*
X161965690Y-108849890D01*
X169588506Y-101227074D01*
X169588511Y-101227070D01*
X169598714Y-101216866D01*
X169598716Y-101216866D01*
X169710520Y-101105062D01*
X169783591Y-100978499D01*
X169789577Y-100968131D01*
X169830501Y-100815403D01*
X169830501Y-100657289D01*
X169830501Y-100649694D01*
X169830500Y-100649676D01*
X169830500Y-79640127D01*
X169850185Y-79573088D01*
X169902989Y-79527333D01*
X169972147Y-79517389D01*
X169992813Y-79522194D01*
X170063757Y-79545246D01*
X170273713Y-79578500D01*
X170273714Y-79578500D01*
X170486286Y-79578500D01*
X170486287Y-79578500D01*
X170696243Y-79545246D01*
X170898412Y-79479557D01*
X171087816Y-79383051D01*
X171200880Y-79300906D01*
X171259786Y-79258109D01*
X171259788Y-79258106D01*
X171259792Y-79258104D01*
X171410104Y-79107792D01*
X171410106Y-79107788D01*
X171410109Y-79107786D01*
X171535048Y-78935820D01*
X171535047Y-78935820D01*
X171535051Y-78935816D01*
X171631557Y-78746412D01*
X171697246Y-78544243D01*
X171730500Y-78334287D01*
X171730500Y-78121713D01*
X171697246Y-77911757D01*
X171631557Y-77709588D01*
X171535051Y-77520184D01*
X171518486Y-77497384D01*
X171495007Y-77431580D01*
X171510832Y-77363526D01*
X171560938Y-77314831D01*
X171618805Y-77300500D01*
X175239610Y-77300500D01*
X175306649Y-77320185D01*
X175352404Y-77372989D01*
X175358823Y-77390382D01*
X175367155Y-77419500D01*
X175411089Y-77573045D01*
X175411090Y-77573048D01*
X175411091Y-77573049D01*
X175505302Y-77753407D01*
X175505304Y-77753409D01*
X175618338Y-77892035D01*
X175645447Y-77956432D01*
X175633438Y-78025261D01*
X175618338Y-78048757D01*
X175505721Y-78186870D01*
X175411557Y-78367138D01*
X175355609Y-78562671D01*
X175355608Y-78562674D01*
X175345000Y-78681999D01*
X175345000Y-79798000D01*
X175355608Y-79917325D01*
X175355609Y-79917328D01*
X175411557Y-80112861D01*
X175505721Y-80293129D01*
X175618338Y-80431242D01*
X175645447Y-80495638D01*
X175633438Y-80564468D01*
X175618338Y-80587963D01*
X175505305Y-80726587D01*
X175411089Y-80906954D01*
X175386560Y-80992683D01*
X175361734Y-81079448D01*
X175355114Y-81102583D01*
X175355113Y-81102586D01*
X175348109Y-81181375D01*
X175346077Y-81204232D01*
X175344500Y-81221966D01*
X175344500Y-82338028D01*
X175344501Y-82338034D01*
X175355113Y-82457415D01*
X175411089Y-82653045D01*
X175411090Y-82653048D01*
X175411091Y-82653049D01*
X175505302Y-82833407D01*
X175505304Y-82833409D01*
X175618015Y-82971639D01*
X175645124Y-83036036D01*
X175633115Y-83104865D01*
X175618015Y-83128361D01*
X175505304Y-83266590D01*
X175411089Y-83446954D01*
X175355114Y-83642583D01*
X175355113Y-83642586D01*
X175344500Y-83761966D01*
X175344500Y-84878028D01*
X175344501Y-84878034D01*
X175355113Y-84997415D01*
X175411089Y-85193045D01*
X175411090Y-85193048D01*
X175411091Y-85193049D01*
X175505302Y-85373407D01*
X175505304Y-85373409D01*
X175618015Y-85511639D01*
X175645124Y-85576036D01*
X175633115Y-85644865D01*
X175618015Y-85668361D01*
X175505304Y-85806590D01*
X175411089Y-85986954D01*
X175355114Y-86182583D01*
X175355113Y-86182586D01*
X175344500Y-86301966D01*
X175344500Y-87418028D01*
X175344501Y-87418034D01*
X175355113Y-87537415D01*
X175411089Y-87733045D01*
X175411090Y-87733048D01*
X175411091Y-87733049D01*
X175505302Y-87913407D01*
X175505304Y-87913409D01*
X175618015Y-88051639D01*
X175645124Y-88116036D01*
X175633115Y-88184865D01*
X175618015Y-88208361D01*
X175505304Y-88346590D01*
X175411089Y-88526954D01*
X175355114Y-88722583D01*
X175355113Y-88722586D01*
X175344500Y-88841966D01*
X175344500Y-89958028D01*
X175344501Y-89958034D01*
X175355113Y-90077415D01*
X175411089Y-90273045D01*
X175411090Y-90273048D01*
X175411091Y-90273049D01*
X175505302Y-90453407D01*
X175505304Y-90453409D01*
X175633890Y-90611109D01*
X175727803Y-90687684D01*
X175791593Y-90739698D01*
X175971951Y-90833909D01*
X176167582Y-90889886D01*
X176286963Y-90900500D01*
X178153036Y-90900499D01*
X178272418Y-90889886D01*
X178468049Y-90833909D01*
X178648407Y-90739698D01*
X178806109Y-90611109D01*
X178934698Y-90453407D01*
X179028909Y-90273049D01*
X179084886Y-90077418D01*
X179095500Y-89958037D01*
X179095499Y-88841964D01*
X179084886Y-88722582D01*
X179028909Y-88526951D01*
X178934698Y-88346593D01*
X178821983Y-88208359D01*
X178794875Y-88143965D01*
X178806884Y-88075135D01*
X178821981Y-88051642D01*
X178934698Y-87913407D01*
X179028909Y-87733049D01*
X179084886Y-87537418D01*
X179095500Y-87418037D01*
X179095499Y-86301964D01*
X179084886Y-86182582D01*
X179028909Y-85986951D01*
X178934698Y-85806593D01*
X178821983Y-85668359D01*
X178794875Y-85603965D01*
X178806884Y-85535135D01*
X178821981Y-85511642D01*
X178934698Y-85373407D01*
X179028909Y-85193049D01*
X179084886Y-84997418D01*
X179095500Y-84878037D01*
X179095499Y-83761964D01*
X179084886Y-83642582D01*
X179028909Y-83446951D01*
X178934698Y-83266593D01*
X178821983Y-83128359D01*
X178794875Y-83063965D01*
X178806884Y-82995135D01*
X178821981Y-82971642D01*
X178934698Y-82833407D01*
X179028909Y-82653049D01*
X179084886Y-82457418D01*
X179095500Y-82338037D01*
X179095499Y-81221964D01*
X179084886Y-81102582D01*
X179035361Y-80929500D01*
X179028910Y-80906954D01*
X179028909Y-80906953D01*
X179028909Y-80906951D01*
X178934698Y-80726593D01*
X178821661Y-80587964D01*
X178794552Y-80523568D01*
X178806561Y-80454738D01*
X178821662Y-80431241D01*
X178934278Y-80293130D01*
X179028442Y-80112861D01*
X179084390Y-79917328D01*
X179084391Y-79917325D01*
X179094999Y-79798000D01*
X179095000Y-79797998D01*
X179095000Y-78682002D01*
X179094999Y-78681999D01*
X179084391Y-78562674D01*
X179084390Y-78562671D01*
X179028442Y-78367138D01*
X178934278Y-78186870D01*
X178821661Y-78048757D01*
X178794552Y-77984361D01*
X178806561Y-77915531D01*
X178821658Y-77892039D01*
X178934698Y-77753407D01*
X179028909Y-77573049D01*
X179084886Y-77377418D01*
X179095500Y-77258037D01*
X179095499Y-76141964D01*
X179084886Y-76022582D01*
X179028909Y-75826951D01*
X178934698Y-75646593D01*
X178821983Y-75508359D01*
X178794875Y-75443965D01*
X178806884Y-75375135D01*
X178821981Y-75351642D01*
X178934698Y-75213407D01*
X179028909Y-75033049D01*
X179084886Y-74837418D01*
X179095500Y-74718037D01*
X179095499Y-73601964D01*
X179084886Y-73482582D01*
X179028909Y-73286951D01*
X178934698Y-73106593D01*
X178871356Y-73028910D01*
X178806109Y-72948890D01*
X178648409Y-72820304D01*
X178648410Y-72820304D01*
X178648407Y-72820302D01*
X178468049Y-72726091D01*
X178468048Y-72726090D01*
X178468045Y-72726089D01*
X178350829Y-72692550D01*
X178272418Y-72670114D01*
X178272415Y-72670113D01*
X178272413Y-72670113D01*
X178206102Y-72664217D01*
X178153037Y-72659500D01*
X178153032Y-72659500D01*
X176286971Y-72659500D01*
X176286965Y-72659500D01*
X176286964Y-72659501D01*
X176275316Y-72660536D01*
X176167584Y-72670113D01*
X175971954Y-72726089D01*
X175925222Y-72750500D01*
X175791593Y-72820302D01*
X175791591Y-72820303D01*
X175791590Y-72820304D01*
X175633890Y-72948890D01*
X175505304Y-73106590D01*
X175505302Y-73106593D01*
X175505215Y-73106760D01*
X175411089Y-73286954D01*
X175366332Y-73443376D01*
X175360362Y-73464243D01*
X175355114Y-73482583D01*
X175355113Y-73482586D01*
X175344500Y-73601966D01*
X175344500Y-74718028D01*
X175344501Y-74718034D01*
X175355113Y-74837415D01*
X175411089Y-75033045D01*
X175411090Y-75033048D01*
X175411091Y-75033049D01*
X175505302Y-75213407D01*
X175515855Y-75226349D01*
X175618015Y-75351639D01*
X175645124Y-75416036D01*
X175633115Y-75484865D01*
X175618015Y-75508361D01*
X175516668Y-75632654D01*
X175505302Y-75646593D01*
X175505215Y-75646760D01*
X175411089Y-75826954D01*
X175375496Y-75951347D01*
X175358825Y-76009612D01*
X175321459Y-76068649D01*
X175258105Y-76098113D01*
X175239610Y-76099500D01*
X171827344Y-76099500D01*
X171760305Y-76079815D01*
X171714550Y-76027011D01*
X171704606Y-75957853D01*
X171704871Y-75956102D01*
X171727885Y-75810798D01*
X171730500Y-75794287D01*
X171730500Y-75581713D01*
X171697246Y-75371757D01*
X171631557Y-75169588D01*
X171535051Y-74980184D01*
X171535049Y-74980181D01*
X171535048Y-74980179D01*
X171410109Y-74808213D01*
X171259786Y-74657890D01*
X171087820Y-74532951D01*
X171087115Y-74532591D01*
X171079054Y-74528485D01*
X171028259Y-74480512D01*
X171011463Y-74412692D01*
X171033999Y-74346556D01*
X171079054Y-74307515D01*
X171087816Y-74303051D01*
X171109789Y-74287086D01*
X171259786Y-74178109D01*
X171259788Y-74178106D01*
X171259792Y-74178104D01*
X171410104Y-74027792D01*
X171410106Y-74027788D01*
X171410109Y-74027786D01*
X171535048Y-73855820D01*
X171535047Y-73855820D01*
X171535051Y-73855816D01*
X171631557Y-73666412D01*
X171697246Y-73464243D01*
X171730500Y-73254287D01*
X171730500Y-73041713D01*
X171697246Y-72831757D01*
X171631557Y-72629588D01*
X171535051Y-72440184D01*
X171535049Y-72440181D01*
X171535048Y-72440179D01*
X171410109Y-72268213D01*
X171259786Y-72117890D01*
X171087820Y-71992951D01*
X170898414Y-71896444D01*
X170898413Y-71896443D01*
X170898412Y-71896443D01*
X170696243Y-71830754D01*
X170696241Y-71830753D01*
X170696240Y-71830753D01*
X170534957Y-71805208D01*
X170486287Y-71797500D01*
X170273713Y-71797500D01*
X170225042Y-71805208D01*
X170063760Y-71830753D01*
X169861585Y-71896444D01*
X169672179Y-71992951D01*
X169500213Y-72117890D01*
X169349890Y-72268213D01*
X169224949Y-72440182D01*
X169220484Y-72448946D01*
X169172509Y-72499742D01*
X169104688Y-72516536D01*
X169038553Y-72493998D01*
X168999516Y-72448946D01*
X168995050Y-72440182D01*
X168870109Y-72268213D01*
X168719786Y-72117890D01*
X168547820Y-71992951D01*
X168358414Y-71896444D01*
X168358413Y-71896443D01*
X168358412Y-71896443D01*
X168156243Y-71830754D01*
X168156241Y-71830753D01*
X168156240Y-71830753D01*
X167994957Y-71805208D01*
X167946287Y-71797500D01*
X167733713Y-71797500D01*
X167685042Y-71805208D01*
X167523760Y-71830753D01*
X167321585Y-71896444D01*
X167132179Y-71992951D01*
X166960213Y-72117890D01*
X166809890Y-72268213D01*
X166684951Y-72440179D01*
X166588444Y-72629585D01*
X166522753Y-72831760D01*
X166497770Y-72989500D01*
X166489500Y-73041713D01*
X166489500Y-73254287D01*
X166522754Y-73464243D01*
X166567502Y-73601964D01*
X166588444Y-73666414D01*
X166684951Y-73855820D01*
X166809890Y-74027786D01*
X166960213Y-74178109D01*
X167132182Y-74303050D01*
X167140946Y-74307516D01*
X167191742Y-74355491D01*
X167208536Y-74423312D01*
X167185998Y-74489447D01*
X167140946Y-74528484D01*
X167132182Y-74532949D01*
X166960213Y-74657890D01*
X166809890Y-74808213D01*
X166684951Y-74980179D01*
X166588444Y-75169585D01*
X166522753Y-75371760D01*
X166501118Y-75508361D01*
X166489500Y-75581713D01*
X166489500Y-75794287D01*
X166492115Y-75810798D01*
X166519339Y-75982686D01*
X166522754Y-76004243D01*
X166570467Y-76151089D01*
X166588444Y-76206414D01*
X166684951Y-76395820D01*
X166809890Y-76567786D01*
X166960213Y-76718109D01*
X167132182Y-76843050D01*
X167140946Y-76847516D01*
X167191742Y-76895491D01*
X167208536Y-76963312D01*
X167185998Y-77029447D01*
X167140946Y-77068484D01*
X167132182Y-77072949D01*
X166960213Y-77197890D01*
X166809890Y-77348213D01*
X166684951Y-77520179D01*
X166588444Y-77709585D01*
X166522753Y-77911760D01*
X166502490Y-78039698D01*
X166489500Y-78121713D01*
X166489500Y-78334287D01*
X166492115Y-78350798D01*
X166521369Y-78535502D01*
X166522754Y-78544243D01*
X166570467Y-78691089D01*
X166588444Y-78746414D01*
X166684951Y-78935820D01*
X166809890Y-79107786D01*
X166960213Y-79258109D01*
X167132179Y-79383048D01*
X167132181Y-79383049D01*
X167132184Y-79383051D01*
X167321588Y-79479557D01*
X167523757Y-79545246D01*
X167733713Y-79578500D01*
X167733714Y-79578500D01*
X167946286Y-79578500D01*
X167946287Y-79578500D01*
X168156243Y-79545246D01*
X168358412Y-79479557D01*
X168449204Y-79433295D01*
X168517874Y-79420399D01*
X168582614Y-79446675D01*
X168622872Y-79503781D01*
X168629500Y-79543780D01*
X168629500Y-100436248D01*
X168609815Y-100503287D01*
X168593181Y-100523929D01*
X154767079Y-114350030D01*
X154705756Y-114383515D01*
X154636064Y-114378531D01*
X154580131Y-114336659D01*
X154568915Y-114318647D01*
X154535051Y-114252184D01*
X154535050Y-114252182D01*
X154410109Y-114080213D01*
X154390419Y-114060523D01*
X154356934Y-113999200D01*
X154361918Y-113929508D01*
X154390419Y-113885161D01*
X158880104Y-109395476D01*
X163498713Y-104776867D01*
X163498716Y-104776866D01*
X163610520Y-104665062D01*
X163660639Y-104578250D01*
X163689577Y-104528131D01*
X163730500Y-104375404D01*
X163730500Y-104217289D01*
X163730500Y-83775943D01*
X163689577Y-83623216D01*
X163689577Y-83623215D01*
X163689577Y-83623214D01*
X163660639Y-83573095D01*
X163660637Y-83573092D01*
X163610520Y-83486284D01*
X163498716Y-83374480D01*
X163498715Y-83374479D01*
X163494385Y-83370149D01*
X163494374Y-83370139D01*
X162896252Y-82772017D01*
X162862767Y-82710694D01*
X162864717Y-82650224D01*
X162919886Y-82457418D01*
X162930500Y-82338037D01*
X162930499Y-82309584D01*
X162950181Y-82242548D01*
X163002984Y-82196791D01*
X163072142Y-82186846D01*
X163135699Y-82215868D01*
X163142180Y-82221903D01*
X163203424Y-82283147D01*
X163351394Y-82376122D01*
X163516343Y-82433841D01*
X163516349Y-82433841D01*
X163516351Y-82433842D01*
X163557750Y-82438506D01*
X163646442Y-82448499D01*
X163646445Y-82448500D01*
X163646448Y-82448500D01*
X165683555Y-82448500D01*
X165683556Y-82448499D01*
X165813657Y-82433841D01*
X165978606Y-82376122D01*
X166126576Y-82283147D01*
X166250147Y-82159576D01*
X166343122Y-82011606D01*
X166400841Y-81846657D01*
X166415500Y-81716552D01*
X166415500Y-81079448D01*
X166400841Y-80949343D01*
X166343122Y-80784394D01*
X166250147Y-80636424D01*
X166146904Y-80533181D01*
X166113419Y-80471858D01*
X166118403Y-80402166D01*
X166146904Y-80357819D01*
X166158632Y-80346091D01*
X166250147Y-80254576D01*
X166343122Y-80106606D01*
X166400841Y-79941657D01*
X166415500Y-79811552D01*
X166415500Y-79174448D01*
X166400841Y-79044343D01*
X166343122Y-78879394D01*
X166250147Y-78731424D01*
X166126576Y-78607853D01*
X165978606Y-78514878D01*
X165978605Y-78514877D01*
X165978604Y-78514877D01*
X165813658Y-78457159D01*
X165813648Y-78457157D01*
X165683558Y-78442500D01*
X165683552Y-78442500D01*
X163646448Y-78442500D01*
X163646441Y-78442500D01*
X163516351Y-78457157D01*
X163516341Y-78457159D01*
X163351395Y-78514877D01*
X163203425Y-78607852D01*
X163134420Y-78676857D01*
X163073096Y-78710341D01*
X163003405Y-78705356D01*
X162947471Y-78663485D01*
X162923226Y-78600155D01*
X162919886Y-78562584D01*
X162919886Y-78562582D01*
X162863909Y-78366951D01*
X162769698Y-78186593D01*
X162656983Y-78048359D01*
X162629875Y-77983965D01*
X162641884Y-77915135D01*
X162656981Y-77891642D01*
X162769698Y-77753407D01*
X162863909Y-77573049D01*
X162919886Y-77377418D01*
X162930500Y-77258037D01*
X162930499Y-76141964D01*
X162919886Y-76022582D01*
X162863909Y-75826951D01*
X162769698Y-75646593D01*
X162656983Y-75508359D01*
X162629875Y-75443965D01*
X162641884Y-75375135D01*
X162656981Y-75351642D01*
X162769698Y-75213407D01*
X162863909Y-75033049D01*
X162919886Y-74837418D01*
X162930500Y-74718037D01*
X162930499Y-73601964D01*
X162919886Y-73482582D01*
X162863909Y-73286951D01*
X162769698Y-73106593D01*
X162706356Y-73028910D01*
X162641109Y-72948890D01*
X162483409Y-72820304D01*
X162483410Y-72820304D01*
X162483407Y-72820302D01*
X162303049Y-72726091D01*
X162303048Y-72726090D01*
X162303045Y-72726089D01*
X162185829Y-72692550D01*
X162107418Y-72670114D01*
X162107415Y-72670113D01*
X162107413Y-72670113D01*
X162041102Y-72664217D01*
X161988037Y-72659500D01*
X161988032Y-72659500D01*
X160121971Y-72659500D01*
X160121965Y-72659500D01*
X160121964Y-72659501D01*
X160110316Y-72660536D01*
X160002584Y-72670113D01*
X159806954Y-72726089D01*
X159760222Y-72750500D01*
X159626593Y-72820302D01*
X159626591Y-72820303D01*
X159626590Y-72820304D01*
X159468890Y-72948890D01*
X159340304Y-73106590D01*
X159340302Y-73106593D01*
X159340215Y-73106760D01*
X159246089Y-73286954D01*
X159201332Y-73443376D01*
X159195362Y-73464243D01*
X159190114Y-73482583D01*
X159190113Y-73482586D01*
X159179500Y-73601966D01*
X159179500Y-74718028D01*
X159179501Y-74718034D01*
X159190113Y-74837415D01*
X159246089Y-75033045D01*
X159246090Y-75033048D01*
X159246091Y-75033049D01*
X159340302Y-75213407D01*
X159350855Y-75226349D01*
X159453015Y-75351639D01*
X159480124Y-75416036D01*
X159468115Y-75484865D01*
X159453015Y-75508361D01*
X159351668Y-75632654D01*
X159340302Y-75646593D01*
X159340215Y-75646760D01*
X159246089Y-75826954D01*
X159210496Y-75951347D01*
X159193825Y-76009612D01*
X159156459Y-76068649D01*
X159093105Y-76098113D01*
X159074610Y-76099500D01*
X153460097Y-76099500D01*
X153393058Y-76079815D01*
X153372416Y-76063181D01*
X137662298Y-60353063D01*
X137628813Y-60291740D01*
X137633797Y-60222048D01*
X137662299Y-60177700D01*
X137670000Y-60169999D01*
X137670000Y-59235686D01*
X137674394Y-59240080D01*
X137765606Y-59292741D01*
X137867339Y-59320000D01*
X137972661Y-59320000D01*
X138074394Y-59292741D01*
X138165606Y-59240080D01*
X138170000Y-59235686D01*
X138170000Y-60170000D01*
X138717828Y-60170000D01*
X138717844Y-60169999D01*
X138777372Y-60163598D01*
X138777379Y-60163596D01*
X138912086Y-60113354D01*
X138912093Y-60113350D01*
X139027187Y-60027190D01*
X139027190Y-60027187D01*
X139113350Y-59912093D01*
X139113354Y-59912086D01*
X139163596Y-59777379D01*
X139163598Y-59777372D01*
X139169999Y-59717844D01*
X139170000Y-59717827D01*
X139170000Y-59170000D01*
X138235686Y-59170000D01*
X138240080Y-59165606D01*
X138292741Y-59074394D01*
X138320000Y-58972661D01*
X138320000Y-58867339D01*
X138292741Y-58765606D01*
X138240080Y-58674394D01*
X138235686Y-58670000D01*
X139170000Y-58670000D01*
X139170000Y-58122172D01*
X139169999Y-58122155D01*
X139163598Y-58062627D01*
X139163596Y-58062620D01*
X139113354Y-57927913D01*
X139113350Y-57927906D01*
X139027190Y-57812812D01*
X139027187Y-57812809D01*
X138912093Y-57726649D01*
X138912086Y-57726645D01*
X138777379Y-57676403D01*
X138777372Y-57676401D01*
X138717844Y-57670000D01*
X138170000Y-57670000D01*
X138170000Y-58604314D01*
X138165606Y-58599920D01*
X138074394Y-58547259D01*
X137972661Y-58520000D01*
X137867339Y-58520000D01*
X137765606Y-58547259D01*
X137674394Y-58599920D01*
X137670000Y-58604314D01*
X137670000Y-57670000D01*
X137662298Y-57662298D01*
X137628813Y-57600975D01*
X137633797Y-57531283D01*
X137662296Y-57486938D01*
X138940520Y-56208716D01*
X139019577Y-56071784D01*
X139060501Y-55919057D01*
X139060501Y-55760942D01*
X139060501Y-55753347D01*
X139060500Y-55753329D01*
X139060500Y-54030791D01*
X139080185Y-53963752D01*
X139111612Y-53930475D01*
X139242073Y-53835690D01*
X139375690Y-53702073D01*
X139486760Y-53549199D01*
X139572547Y-53380832D01*
X139630940Y-53201118D01*
X139641427Y-53134905D01*
X139660500Y-53014486D01*
X139660500Y-52825513D01*
X139630940Y-52638881D01*
X139572545Y-52459163D01*
X139527290Y-52370347D01*
X139486760Y-52290801D01*
X139375690Y-52137927D01*
X139242073Y-52004310D01*
X139089199Y-51893240D01*
X138920836Y-51807454D01*
X138741118Y-51749059D01*
X138554486Y-51719500D01*
X138554481Y-51719500D01*
X138365519Y-51719500D01*
X138365514Y-51719500D01*
X138178881Y-51749059D01*
X137999163Y-51807454D01*
X137830800Y-51893240D01*
X137743579Y-51956610D01*
X137677927Y-52004310D01*
X137677925Y-52004312D01*
X137677924Y-52004312D01*
X137544312Y-52137924D01*
X137544312Y-52137925D01*
X137544310Y-52137927D01*
X137496610Y-52203579D01*
X137433240Y-52290800D01*
X137347454Y-52459163D01*
X137289059Y-52638881D01*
X137259500Y-52825513D01*
X137259500Y-53014486D01*
X137289059Y-53201118D01*
X137347454Y-53380836D01*
X137389251Y-53462866D01*
X137433240Y-53549199D01*
X137544310Y-53702073D01*
X137677927Y-53835690D01*
X137808386Y-53930474D01*
X137851051Y-53985803D01*
X137859500Y-54030791D01*
X137859500Y-55539902D01*
X137839815Y-55606941D01*
X137823181Y-55627583D01*
X135784532Y-57666231D01*
X135723209Y-57699716D01*
X135677453Y-57701023D01*
X135478422Y-57669500D01*
X135478417Y-57669500D01*
X135281583Y-57669500D01*
X135281578Y-57669500D01*
X135087173Y-57700290D01*
X134899970Y-57761117D01*
X134724594Y-57850476D01*
X134633741Y-57916485D01*
X134565354Y-57966172D01*
X134565352Y-57966174D01*
X134565351Y-57966174D01*
X134426174Y-58105351D01*
X134426174Y-58105352D01*
X134426172Y-58105354D01*
X134413953Y-58122172D01*
X134310476Y-58264594D01*
X134220485Y-58441213D01*
X134172511Y-58492009D01*
X134104690Y-58508804D01*
X134038555Y-58486267D01*
X133999515Y-58441213D01*
X133952785Y-58349500D01*
X133909524Y-58264595D01*
X133793828Y-58105354D01*
X133654646Y-57966172D01*
X133495405Y-57850476D01*
X133320029Y-57761117D01*
X133132826Y-57700290D01*
X132938422Y-57669500D01*
X132938417Y-57669500D01*
X132741583Y-57669500D01*
X132741578Y-57669500D01*
X132547173Y-57700290D01*
X132359970Y-57761117D01*
X132184594Y-57850476D01*
X132093741Y-57916485D01*
X132025354Y-57966172D01*
X132025352Y-57966174D01*
X132025351Y-57966174D01*
X131886174Y-58105351D01*
X131886174Y-58105352D01*
X131886172Y-58105354D01*
X131873953Y-58122172D01*
X131770476Y-58264594D01*
X131680485Y-58441213D01*
X131632511Y-58492009D01*
X131564690Y-58508804D01*
X131498555Y-58486267D01*
X131459515Y-58441213D01*
X131412785Y-58349500D01*
X131369524Y-58264595D01*
X131253828Y-58105354D01*
X131114646Y-57966172D01*
X130955405Y-57850476D01*
X130780029Y-57761117D01*
X130592826Y-57700290D01*
X130398422Y-57669500D01*
X130398417Y-57669500D01*
X130201583Y-57669500D01*
X130201578Y-57669500D01*
X130007173Y-57700290D01*
X129819970Y-57761117D01*
X129644594Y-57850476D01*
X129553741Y-57916485D01*
X129485354Y-57966172D01*
X129485352Y-57966174D01*
X129485351Y-57966174D01*
X129346174Y-58105351D01*
X129346174Y-58105352D01*
X129346172Y-58105354D01*
X129333953Y-58122172D01*
X129230476Y-58264594D01*
X129141117Y-58439970D01*
X129080290Y-58627173D01*
X129049500Y-58821577D01*
X129049500Y-59018422D01*
X129080290Y-59212826D01*
X129141117Y-59400029D01*
X129230475Y-59575403D01*
X129230476Y-59575405D01*
X129346172Y-59734646D01*
X129485354Y-59873828D01*
X129644595Y-59989524D01*
X129718513Y-60027187D01*
X129819970Y-60078882D01*
X129819972Y-60078882D01*
X129819975Y-60078884D01*
X129920317Y-60111487D01*
X130007173Y-60139709D01*
X130201578Y-60170500D01*
X130201583Y-60170500D01*
X130398422Y-60170500D01*
X130592826Y-60139709D01*
X130595082Y-60138976D01*
X130780025Y-60078884D01*
X130955405Y-59989524D01*
X131114646Y-59873828D01*
X131253828Y-59734646D01*
X131369524Y-59575405D01*
X131458884Y-59400025D01*
X131459515Y-59398787D01*
X131507489Y-59347990D01*
X131575310Y-59331195D01*
X131641445Y-59353732D01*
X131680485Y-59398787D01*
X131770474Y-59575403D01*
X131805234Y-59623246D01*
X131886172Y-59734646D01*
X132025354Y-59873828D01*
X132184595Y-59989524D01*
X132258513Y-60027187D01*
X132359970Y-60078882D01*
X132359972Y-60078882D01*
X132359975Y-60078884D01*
X132460317Y-60111487D01*
X132547173Y-60139709D01*
X132741578Y-60170500D01*
X132741583Y-60170500D01*
X132938422Y-60170500D01*
X133132826Y-60139709D01*
X133135082Y-60138976D01*
X133320025Y-60078884D01*
X133495405Y-59989524D01*
X133654646Y-59873828D01*
X133793828Y-59734646D01*
X133909524Y-59575405D01*
X133998884Y-59400025D01*
X133999515Y-59398787D01*
X134047489Y-59347990D01*
X134115310Y-59331195D01*
X134181445Y-59353732D01*
X134220485Y-59398787D01*
X134310474Y-59575403D01*
X134345234Y-59623246D01*
X134426172Y-59734646D01*
X134565354Y-59873828D01*
X134724595Y-59989524D01*
X134798513Y-60027187D01*
X134899970Y-60078882D01*
X134899972Y-60078882D01*
X134899975Y-60078884D01*
X135000317Y-60111487D01*
X135087173Y-60139709D01*
X135281578Y-60170500D01*
X135281583Y-60170500D01*
X135478422Y-60170500D01*
X135677454Y-60138976D01*
X135746747Y-60147930D01*
X135784533Y-60173768D01*
X152675139Y-77064374D01*
X152675149Y-77064385D01*
X152679479Y-77068715D01*
X152679480Y-77068716D01*
X152791284Y-77180520D01*
X152874245Y-77228417D01*
X152925547Y-77258037D01*
X152928215Y-77259577D01*
X153080943Y-77300500D01*
X153239057Y-77300500D01*
X159074610Y-77300500D01*
X159141649Y-77320185D01*
X159187404Y-77372989D01*
X159193823Y-77390382D01*
X159202155Y-77419500D01*
X159246089Y-77573045D01*
X159246090Y-77573048D01*
X159246091Y-77573049D01*
X159340302Y-77753407D01*
X159340304Y-77753409D01*
X159453015Y-77891639D01*
X159480124Y-77956036D01*
X159468115Y-78024865D01*
X159453015Y-78048361D01*
X159343271Y-78182952D01*
X159340302Y-78186593D01*
X159338582Y-78189886D01*
X159246089Y-78366954D01*
X159220280Y-78457157D01*
X159193825Y-78549612D01*
X159156459Y-78608649D01*
X159093105Y-78638113D01*
X159074610Y-78639500D01*
X110660097Y-78639500D01*
X110593058Y-78619815D01*
X110572416Y-78603181D01*
X107720384Y-75751149D01*
X119863500Y-75751149D01*
X119863500Y-76006850D01*
X119882491Y-76151090D01*
X119896874Y-76260340D01*
X119963050Y-76507312D01*
X119963053Y-76507322D01*
X120060894Y-76743531D01*
X120060899Y-76743542D01*
X120188734Y-76964957D01*
X120188745Y-76964973D01*
X120344388Y-77167811D01*
X120344394Y-77167818D01*
X120525181Y-77348605D01*
X120525188Y-77348611D01*
X120562730Y-77377418D01*
X120728035Y-77504261D01*
X120728042Y-77504265D01*
X120949457Y-77632100D01*
X120949462Y-77632102D01*
X120949465Y-77632104D01*
X121008102Y-77656392D01*
X121136528Y-77709588D01*
X121185687Y-77729950D01*
X121432660Y-77796126D01*
X121686157Y-77829500D01*
X121686164Y-77829500D01*
X122841836Y-77829500D01*
X122841843Y-77829500D01*
X123095340Y-77796126D01*
X123342313Y-77729950D01*
X123578535Y-77632104D01*
X123799965Y-77504261D01*
X124002813Y-77348610D01*
X124183610Y-77167813D01*
X124339261Y-76964965D01*
X124467104Y-76743535D01*
X124564950Y-76507313D01*
X124631126Y-76260340D01*
X124664500Y-76006843D01*
X124664500Y-75751157D01*
X124664499Y-75751149D01*
X142215500Y-75751149D01*
X142215500Y-76006850D01*
X142234491Y-76151090D01*
X142248874Y-76260340D01*
X142315050Y-76507312D01*
X142315053Y-76507322D01*
X142412894Y-76743531D01*
X142412899Y-76743542D01*
X142540734Y-76964957D01*
X142540745Y-76964973D01*
X142696388Y-77167811D01*
X142696394Y-77167818D01*
X142877181Y-77348605D01*
X142877188Y-77348611D01*
X142914730Y-77377418D01*
X143080035Y-77504261D01*
X143080042Y-77504265D01*
X143301457Y-77632100D01*
X143301462Y-77632102D01*
X143301465Y-77632104D01*
X143360102Y-77656392D01*
X143488528Y-77709588D01*
X143537687Y-77729950D01*
X143784660Y-77796126D01*
X144038157Y-77829500D01*
X144038164Y-77829500D01*
X145193836Y-77829500D01*
X145193843Y-77829500D01*
X145447340Y-77796126D01*
X145694313Y-77729950D01*
X145930535Y-77632104D01*
X146151965Y-77504261D01*
X146354813Y-77348610D01*
X146535610Y-77167813D01*
X146691261Y-76964965D01*
X146819104Y-76743535D01*
X146916950Y-76507313D01*
X146983126Y-76260340D01*
X147016500Y-76006843D01*
X147016500Y-75751157D01*
X146983126Y-75497660D01*
X146916950Y-75250687D01*
X146819104Y-75014465D01*
X146819102Y-75014462D01*
X146819100Y-75014457D01*
X146691265Y-74793042D01*
X146691261Y-74793035D01*
X146587565Y-74657896D01*
X146535611Y-74590188D01*
X146535605Y-74590181D01*
X146354818Y-74409394D01*
X146354811Y-74409388D01*
X146151973Y-74253745D01*
X146151971Y-74253743D01*
X146151965Y-74253739D01*
X146151960Y-74253736D01*
X146151957Y-74253734D01*
X145930542Y-74125899D01*
X145930531Y-74125894D01*
X145694322Y-74028053D01*
X145694315Y-74028051D01*
X145694313Y-74028050D01*
X145447340Y-73961874D01*
X145391007Y-73954457D01*
X145193850Y-73928500D01*
X145193843Y-73928500D01*
X144038157Y-73928500D01*
X144038149Y-73928500D01*
X143812826Y-73958165D01*
X143784660Y-73961874D01*
X143538672Y-74027786D01*
X143537687Y-74028050D01*
X143537677Y-74028053D01*
X143301468Y-74125894D01*
X143301457Y-74125899D01*
X143080042Y-74253734D01*
X143080026Y-74253745D01*
X142877188Y-74409388D01*
X142877181Y-74409394D01*
X142696394Y-74590181D01*
X142696388Y-74590188D01*
X142540745Y-74793026D01*
X142540734Y-74793042D01*
X142412899Y-75014457D01*
X142412894Y-75014468D01*
X142315053Y-75250677D01*
X142315050Y-75250687D01*
X142252303Y-75484865D01*
X142248874Y-75497661D01*
X142215500Y-75751149D01*
X124664499Y-75751149D01*
X124631126Y-75497660D01*
X124564950Y-75250687D01*
X124467104Y-75014465D01*
X124467102Y-75014462D01*
X124467100Y-75014457D01*
X124339265Y-74793042D01*
X124339261Y-74793035D01*
X124235565Y-74657896D01*
X124183611Y-74590188D01*
X124183605Y-74590181D01*
X124002818Y-74409394D01*
X124002811Y-74409388D01*
X123799973Y-74253745D01*
X123799971Y-74253743D01*
X123799965Y-74253739D01*
X123799960Y-74253736D01*
X123799957Y-74253734D01*
X123578542Y-74125899D01*
X123578531Y-74125894D01*
X123342322Y-74028053D01*
X123342315Y-74028051D01*
X123342313Y-74028050D01*
X123095340Y-73961874D01*
X123039007Y-73954457D01*
X122841850Y-73928500D01*
X122841843Y-73928500D01*
X121686157Y-73928500D01*
X121686149Y-73928500D01*
X121460826Y-73958165D01*
X121432660Y-73961874D01*
X121186672Y-74027786D01*
X121185687Y-74028050D01*
X121185677Y-74028053D01*
X120949468Y-74125894D01*
X120949457Y-74125899D01*
X120728042Y-74253734D01*
X120728026Y-74253745D01*
X120525188Y-74409388D01*
X120525181Y-74409394D01*
X120344394Y-74590181D01*
X120344388Y-74590188D01*
X120188745Y-74793026D01*
X120188734Y-74793042D01*
X120060899Y-75014457D01*
X120060894Y-75014468D01*
X119963053Y-75250677D01*
X119963050Y-75250687D01*
X119900303Y-75484865D01*
X119896874Y-75497661D01*
X119863500Y-75751149D01*
X107720384Y-75751149D01*
X107242158Y-75272923D01*
X107208673Y-75211600D01*
X107211907Y-75146928D01*
X107271090Y-74964785D01*
X107310500Y-74715962D01*
X107310500Y-74464038D01*
X107271090Y-74215215D01*
X107193241Y-73975621D01*
X107193239Y-73975618D01*
X107193239Y-73975616D01*
X107104776Y-73801999D01*
X107078870Y-73751155D01*
X106970482Y-73601971D01*
X106930798Y-73547350D01*
X106930794Y-73547345D01*
X106752654Y-73369205D01*
X106752649Y-73369201D01*
X106548848Y-73221132D01*
X106548847Y-73221131D01*
X106548845Y-73221130D01*
X106478747Y-73185413D01*
X106324383Y-73106760D01*
X106084785Y-73028910D01*
X105835962Y-72989500D01*
X105584038Y-72989500D01*
X105459626Y-73009205D01*
X105335214Y-73028910D01*
X105095616Y-73106760D01*
X104871151Y-73221132D01*
X104667350Y-73369201D01*
X104667345Y-73369205D01*
X104489205Y-73547345D01*
X104489201Y-73547350D01*
X104341132Y-73751151D01*
X104226760Y-73975616D01*
X104148910Y-74215214D01*
X104134998Y-74303050D01*
X104109500Y-74464038D01*
X104109500Y-74715962D01*
X104124111Y-74808213D01*
X104148910Y-74964785D01*
X104226760Y-75204383D01*
X104301792Y-75351639D01*
X104334603Y-75416036D01*
X104341132Y-75428848D01*
X104489201Y-75632649D01*
X104489205Y-75632654D01*
X104667345Y-75810794D01*
X104667350Y-75810798D01*
X104845117Y-75939952D01*
X104871155Y-75958870D01*
X105014184Y-76031747D01*
X105095616Y-76073239D01*
X105095618Y-76073239D01*
X105095621Y-76073241D01*
X105335215Y-76151090D01*
X105584038Y-76190500D01*
X105584039Y-76190500D01*
X105835961Y-76190500D01*
X105835962Y-76190500D01*
X106084785Y-76151090D01*
X106266928Y-76091907D01*
X106336764Y-76089912D01*
X106392923Y-76122158D01*
X108675252Y-78404487D01*
X108708737Y-78465810D01*
X108703753Y-78535502D01*
X108661881Y-78591435D01*
X108596417Y-78615852D01*
X108549254Y-78610099D01*
X108507702Y-78596598D01*
X108507698Y-78596597D01*
X108376271Y-78575781D01*
X108336611Y-78569500D01*
X108163389Y-78569500D01*
X108123728Y-78575781D01*
X107992302Y-78596597D01*
X107827552Y-78650128D01*
X107673211Y-78728768D01*
X107648924Y-78746414D01*
X107533072Y-78830586D01*
X107533070Y-78830588D01*
X107533069Y-78830588D01*
X107410588Y-78953069D01*
X107410588Y-78953070D01*
X107410586Y-78953072D01*
X107366859Y-79013256D01*
X107308768Y-79093211D01*
X107230128Y-79247552D01*
X107176597Y-79412302D01*
X107149500Y-79583389D01*
X107149500Y-79756610D01*
X107174954Y-79917325D01*
X107176598Y-79927701D01*
X107230127Y-80092445D01*
X107308768Y-80246788D01*
X107410586Y-80386928D01*
X107533072Y-80509414D01*
X107673212Y-80611232D01*
X107827555Y-80689873D01*
X107992299Y-80743402D01*
X108163389Y-80770500D01*
X108163390Y-80770500D01*
X108336610Y-80770500D01*
X108336611Y-80770500D01*
X108507701Y-80743402D01*
X108672445Y-80689873D01*
X108826788Y-80611232D01*
X108966928Y-80509414D01*
X109089414Y-80386928D01*
X109191232Y-80246788D01*
X109269873Y-80092445D01*
X109323402Y-79927701D01*
X109350500Y-79756611D01*
X109350500Y-79583389D01*
X109323402Y-79412299D01*
X109309899Y-79370744D01*
X109307905Y-79300906D01*
X109343985Y-79241073D01*
X109406686Y-79210244D01*
X109476100Y-79218208D01*
X109515512Y-79244747D01*
X109875139Y-79604374D01*
X109875149Y-79604385D01*
X109879479Y-79608715D01*
X109879480Y-79608716D01*
X109991284Y-79720520D01*
X110053797Y-79756611D01*
X110078095Y-79770639D01*
X110078097Y-79770641D01*
X110116151Y-79792611D01*
X110128215Y-79799577D01*
X110280943Y-79840500D01*
X159074610Y-79840500D01*
X159141649Y-79860185D01*
X159187404Y-79912989D01*
X159193823Y-79930382D01*
X159197050Y-79941657D01*
X159246089Y-80113045D01*
X159246090Y-80113048D01*
X159246091Y-80113049D01*
X159340302Y-80293407D01*
X159340304Y-80293409D01*
X159453015Y-80431639D01*
X159480124Y-80496036D01*
X159468115Y-80564865D01*
X159453015Y-80588361D01*
X159340307Y-80726587D01*
X159340302Y-80726593D01*
X159317367Y-80770500D01*
X159246089Y-80906954D01*
X159221560Y-80992683D01*
X159196734Y-81079448D01*
X159190114Y-81102583D01*
X159190113Y-81102586D01*
X159183109Y-81181375D01*
X159181077Y-81204232D01*
X159179500Y-81221966D01*
X159179500Y-82338028D01*
X159179501Y-82338034D01*
X159190113Y-82457415D01*
X159246089Y-82653045D01*
X159246090Y-82653048D01*
X159246091Y-82653049D01*
X159340302Y-82833407D01*
X159340304Y-82833409D01*
X159453015Y-82971639D01*
X159480124Y-83036036D01*
X159468115Y-83104865D01*
X159453015Y-83128361D01*
X159340304Y-83266590D01*
X159246089Y-83446954D01*
X159190114Y-83642583D01*
X159190113Y-83642586D01*
X159179500Y-83761966D01*
X159179500Y-84878028D01*
X159179501Y-84878034D01*
X159190113Y-84997415D01*
X159245282Y-85190223D01*
X159244799Y-85260091D01*
X159213747Y-85312015D01*
X159011286Y-85514478D01*
X158899481Y-85626282D01*
X158899477Y-85626287D01*
X158886428Y-85648891D01*
X158880189Y-85659698D01*
X158820423Y-85763215D01*
X158779499Y-85915943D01*
X158779499Y-85915945D01*
X158779499Y-86084046D01*
X158779500Y-86084059D01*
X158779500Y-103579902D01*
X158759815Y-103646941D01*
X158743181Y-103667583D01*
X154942181Y-107468583D01*
X154880858Y-107502068D01*
X154811166Y-107497084D01*
X154755233Y-107455212D01*
X154730816Y-107389748D01*
X154730500Y-107380902D01*
X154730500Y-107233713D01*
X154697246Y-107023760D01*
X154697246Y-107023757D01*
X154631557Y-106821588D01*
X154535051Y-106632184D01*
X154535049Y-106632181D01*
X154535048Y-106632179D01*
X154410109Y-106460213D01*
X154296181Y-106346285D01*
X154262696Y-106284962D01*
X154267680Y-106215270D01*
X154309552Y-106159337D01*
X154340529Y-106142422D01*
X154472086Y-106093354D01*
X154472093Y-106093350D01*
X154587187Y-106007190D01*
X154587190Y-106007187D01*
X154673350Y-105892093D01*
X154673354Y-105892086D01*
X154723596Y-105757379D01*
X154723598Y-105757372D01*
X154729999Y-105697844D01*
X154730000Y-105697827D01*
X154730000Y-105050000D01*
X153813012Y-105050000D01*
X153845925Y-104992993D01*
X153880000Y-104865826D01*
X153880000Y-104734174D01*
X153845925Y-104607007D01*
X153813012Y-104550000D01*
X154730000Y-104550000D01*
X154730000Y-103902172D01*
X154729999Y-103902155D01*
X154723598Y-103842627D01*
X154723596Y-103842620D01*
X154673354Y-103707913D01*
X154673350Y-103707906D01*
X154587190Y-103592812D01*
X154587187Y-103592809D01*
X154472093Y-103506649D01*
X154472086Y-103506645D01*
X154337379Y-103456403D01*
X154337372Y-103456401D01*
X154277844Y-103450000D01*
X153630000Y-103450000D01*
X153630000Y-104366988D01*
X153572993Y-104334075D01*
X153445826Y-104300000D01*
X153314174Y-104300000D01*
X153187007Y-104334075D01*
X153130000Y-104366988D01*
X153130000Y-103450000D01*
X152482155Y-103450000D01*
X152422627Y-103456401D01*
X152422620Y-103456403D01*
X152287913Y-103506645D01*
X152287906Y-103506649D01*
X152172812Y-103592809D01*
X152172809Y-103592812D01*
X152086649Y-103707906D01*
X152086645Y-103707913D01*
X152036403Y-103842620D01*
X152036401Y-103842627D01*
X152030000Y-103902155D01*
X152030000Y-104550000D01*
X152946988Y-104550000D01*
X152914075Y-104607007D01*
X152880000Y-104734174D01*
X152880000Y-104865826D01*
X152914075Y-104992993D01*
X152946988Y-105050000D01*
X152030000Y-105050000D01*
X152030000Y-105697844D01*
X152036401Y-105757372D01*
X152036403Y-105757379D01*
X152086645Y-105892086D01*
X152086649Y-105892093D01*
X152172809Y-106007187D01*
X152172812Y-106007190D01*
X152287906Y-106093350D01*
X152287913Y-106093354D01*
X152419470Y-106142422D01*
X152475404Y-106184293D01*
X152499821Y-106249758D01*
X152484969Y-106318031D01*
X152463819Y-106346285D01*
X152349889Y-106460215D01*
X152224948Y-106632184D01*
X152224947Y-106632185D01*
X152204765Y-106671795D01*
X152156791Y-106722591D01*
X152094281Y-106739500D01*
X149913959Y-106739500D01*
X149846920Y-106719815D01*
X149826278Y-106703181D01*
X144278278Y-101155181D01*
X144244793Y-101093858D01*
X144249777Y-101024166D01*
X144291649Y-100968233D01*
X144357113Y-100943816D01*
X144365959Y-100943500D01*
X145193836Y-100943500D01*
X145193843Y-100943500D01*
X145447340Y-100910126D01*
X145694313Y-100843950D01*
X145930535Y-100746104D01*
X146151965Y-100618261D01*
X146354813Y-100462610D01*
X146535610Y-100281813D01*
X146691261Y-100078965D01*
X146819104Y-99857535D01*
X146916950Y-99621313D01*
X146983126Y-99374340D01*
X147016500Y-99120843D01*
X147016500Y-98865157D01*
X146983126Y-98611660D01*
X146916950Y-98364687D01*
X146916947Y-98364679D01*
X146916946Y-98364676D01*
X146819105Y-98128468D01*
X146819100Y-98128457D01*
X146691265Y-97907042D01*
X146691261Y-97907035D01*
X146535610Y-97704187D01*
X146535605Y-97704181D01*
X146354818Y-97523394D01*
X146354811Y-97523388D01*
X146151973Y-97367745D01*
X146151971Y-97367743D01*
X146151965Y-97367739D01*
X146151960Y-97367736D01*
X146151957Y-97367734D01*
X145930542Y-97239899D01*
X145930531Y-97239894D01*
X145694322Y-97142053D01*
X145694315Y-97142051D01*
X145694313Y-97142050D01*
X145447340Y-97075874D01*
X145391007Y-97068457D01*
X145193850Y-97042500D01*
X145193843Y-97042500D01*
X144038157Y-97042500D01*
X144038149Y-97042500D01*
X143812826Y-97072165D01*
X143784660Y-97075874D01*
X143537687Y-97142050D01*
X143537677Y-97142053D01*
X143301468Y-97239894D01*
X143301457Y-97239899D01*
X143080042Y-97367734D01*
X143080026Y-97367745D01*
X142877188Y-97523388D01*
X142877181Y-97523394D01*
X142696394Y-97704181D01*
X142696388Y-97704188D01*
X142540745Y-97907026D01*
X142540734Y-97907042D01*
X142412899Y-98128457D01*
X142412894Y-98128468D01*
X142315054Y-98364676D01*
X142315050Y-98364687D01*
X142252462Y-98598272D01*
X142248874Y-98611661D01*
X142221883Y-98816671D01*
X142193616Y-98880567D01*
X142135292Y-98919038D01*
X142065427Y-98919869D01*
X142011263Y-98888166D01*
X139704452Y-96581355D01*
X139704450Y-96581352D01*
X139585579Y-96462481D01*
X139585578Y-96462480D01*
X139498766Y-96412360D01*
X139498766Y-96412359D01*
X139498762Y-96412358D01*
X139448647Y-96383423D01*
X139295919Y-96342499D01*
X139137805Y-96342499D01*
X139130209Y-96342499D01*
X139130193Y-96342500D01*
X127749808Y-96342500D01*
X127749792Y-96342499D01*
X127742196Y-96342499D01*
X127584081Y-96342499D01*
X127507717Y-96362961D01*
X127431352Y-96383423D01*
X127431347Y-96383426D01*
X127294428Y-96462475D01*
X127294420Y-96462481D01*
X124868736Y-98888165D01*
X124807413Y-98921650D01*
X124737721Y-98916666D01*
X124681788Y-98874794D01*
X124658116Y-98816669D01*
X124647113Y-98733097D01*
X124631126Y-98611660D01*
X124564950Y-98364687D01*
X124564947Y-98364679D01*
X124564946Y-98364676D01*
X124467105Y-98128468D01*
X124467100Y-98128457D01*
X124339265Y-97907042D01*
X124339261Y-97907035D01*
X124183610Y-97704187D01*
X124183605Y-97704181D01*
X124002818Y-97523394D01*
X124002811Y-97523388D01*
X123799973Y-97367745D01*
X123799971Y-97367743D01*
X123799965Y-97367739D01*
X123799960Y-97367736D01*
X123799957Y-97367734D01*
X123578542Y-97239899D01*
X123578531Y-97239894D01*
X123342322Y-97142053D01*
X123342315Y-97142051D01*
X123342313Y-97142050D01*
X123095340Y-97075874D01*
X123039007Y-97068457D01*
X122841850Y-97042500D01*
X122841843Y-97042500D01*
X121686157Y-97042500D01*
X121686149Y-97042500D01*
X121460826Y-97072165D01*
X121432660Y-97075874D01*
X121185687Y-97142050D01*
X121185677Y-97142053D01*
X120949468Y-97239894D01*
X120949457Y-97239899D01*
X120728042Y-97367734D01*
X120728026Y-97367745D01*
X120525188Y-97523388D01*
X120525181Y-97523394D01*
X120344394Y-97704181D01*
X120344388Y-97704188D01*
X120188745Y-97907026D01*
X120188734Y-97907042D01*
X120060899Y-98128457D01*
X120060894Y-98128468D01*
X119963054Y-98364676D01*
X119963050Y-98364687D01*
X119900462Y-98598272D01*
X119896874Y-98611661D01*
X119863500Y-98865149D01*
X119863500Y-99120850D01*
X119888635Y-99311757D01*
X119896874Y-99374340D01*
X119963050Y-99621312D01*
X119963053Y-99621322D01*
X120060894Y-99857531D01*
X120060899Y-99857542D01*
X120188734Y-100078957D01*
X120188745Y-100078973D01*
X120314618Y-100243014D01*
X120339812Y-100308183D01*
X120325774Y-100376628D01*
X120276960Y-100426617D01*
X120216242Y-100442500D01*
X119682399Y-100442500D01*
X119682383Y-100442499D01*
X119674787Y-100442499D01*
X119516672Y-100442499D01*
X119441637Y-100462605D01*
X119363943Y-100483423D01*
X119363938Y-100483426D01*
X119227019Y-100562475D01*
X119227011Y-100562481D01*
X107191286Y-112598209D01*
X107079481Y-112710013D01*
X107079480Y-112710015D01*
X107048372Y-112763896D01*
X107000423Y-112846946D01*
X106959499Y-112999674D01*
X106959499Y-112999676D01*
X106959499Y-113167777D01*
X106959500Y-113167790D01*
X106959500Y-114814602D01*
X106959499Y-114814620D01*
X106959499Y-114980326D01*
X106959499Y-114980327D01*
X106959500Y-114980329D01*
X107000423Y-115133056D01*
X107016631Y-115161129D01*
X107016632Y-115161131D01*
X107016633Y-115161131D01*
X107079479Y-115269985D01*
X107079481Y-115269988D01*
X107198349Y-115388856D01*
X107198355Y-115388861D01*
X108368209Y-116558714D01*
X108368211Y-116558716D01*
X108480015Y-116670520D01*
X108549263Y-116710500D01*
X108616946Y-116749577D01*
X108769674Y-116790500D01*
X108927789Y-116790500D01*
X116304735Y-116790500D01*
X116304751Y-116790501D01*
X116312347Y-116790501D01*
X116470458Y-116790501D01*
X116470461Y-116790501D01*
X116623189Y-116749577D01*
X116690872Y-116710500D01*
X116760120Y-116670520D01*
X116871924Y-116558716D01*
X116871924Y-116558714D01*
X116882128Y-116548511D01*
X116882131Y-116548506D01*
X119497475Y-113933165D01*
X119558798Y-113899680D01*
X119585156Y-113896846D01*
X130175500Y-113896846D01*
X130242539Y-113916531D01*
X130288294Y-113969335D01*
X130299500Y-114020846D01*
X130299500Y-117285500D01*
X130279815Y-117352539D01*
X130227011Y-117398294D01*
X130175500Y-117409500D01*
X126624108Y-117409500D01*
X126496812Y-117443608D01*
X126382686Y-117509500D01*
X126382683Y-117509502D01*
X126289502Y-117602683D01*
X126289500Y-117602686D01*
X126223608Y-117716812D01*
X126189500Y-117844108D01*
X126189500Y-122185500D01*
X126169815Y-122252539D01*
X126117011Y-122298294D01*
X126065500Y-122309500D01*
X121724108Y-122309500D01*
X121596812Y-122343608D01*
X121482686Y-122409500D01*
X121482683Y-122409502D01*
X121389502Y-122502683D01*
X121389500Y-122502686D01*
X121323608Y-122616812D01*
X121289500Y-122744108D01*
X121289500Y-126995500D01*
X121269815Y-127062539D01*
X121217011Y-127108294D01*
X121165500Y-127119500D01*
X116924108Y-127119500D01*
X116796812Y-127153608D01*
X116682686Y-127219500D01*
X116682683Y-127219502D01*
X116589502Y-127312683D01*
X116589500Y-127312686D01*
X116523608Y-127426812D01*
X116489500Y-127554108D01*
X116489500Y-131075500D01*
X116469815Y-131142539D01*
X116417011Y-131188294D01*
X116365500Y-131199500D01*
X112024108Y-131199500D01*
X111896812Y-131233608D01*
X111782686Y-131299500D01*
X111782683Y-131299502D01*
X111689502Y-131392683D01*
X111689500Y-131392686D01*
X111623608Y-131506812D01*
X111589500Y-131634108D01*
X111589500Y-135595500D01*
X111569815Y-135662539D01*
X111517011Y-135708294D01*
X111465500Y-135719500D01*
X108034108Y-135719500D01*
X107906812Y-135753608D01*
X107792686Y-135819500D01*
X107792683Y-135819502D01*
X107699502Y-135912683D01*
X107699500Y-135912686D01*
X107633608Y-136026812D01*
X107599500Y-136154108D01*
X107599500Y-140495500D01*
X107579815Y-140562539D01*
X107527011Y-140608294D01*
X107475500Y-140619500D01*
X90321790Y-140619500D01*
X90254751Y-140599815D01*
X90208996Y-140547011D01*
X90197791Y-140496039D01*
X90123224Y-123355039D01*
X90142617Y-123287915D01*
X90195221Y-123241931D01*
X90247223Y-123230500D01*
X94487432Y-123230500D01*
X94488441Y-123230504D01*
X94489141Y-123230509D01*
X94551815Y-123231020D01*
X94551818Y-123231019D01*
X94551928Y-123231020D01*
X94553315Y-123230838D01*
X94554356Y-123230706D01*
X94555773Y-123230531D01*
X94555889Y-123230500D01*
X94555892Y-123230500D01*
X94617350Y-123214031D01*
X94617815Y-123213908D01*
X94679382Y-123197949D01*
X94679384Y-123197947D01*
X94679502Y-123197917D01*
X94680972Y-123197309D01*
X94681866Y-123196942D01*
X94683098Y-123196443D01*
X94702418Y-123185287D01*
X94738199Y-123164629D01*
X94738796Y-123164288D01*
X94794043Y-123132989D01*
X94794046Y-123132985D01*
X94794139Y-123132933D01*
X94795238Y-123132091D01*
X94796051Y-123131472D01*
X94797234Y-123130579D01*
X94797311Y-123130501D01*
X94797314Y-123130500D01*
X94842293Y-123085519D01*
X94842650Y-123085165D01*
X94887985Y-123040565D01*
X94887985Y-123040564D01*
X94888060Y-123040491D01*
X94888902Y-123039395D01*
X94889510Y-123038610D01*
X94890436Y-123037422D01*
X94890496Y-123037317D01*
X94890500Y-123037314D01*
X94922263Y-122982297D01*
X94922568Y-122981773D01*
X94954804Y-122926977D01*
X94954804Y-122926975D01*
X94954856Y-122926888D01*
X94955382Y-122925621D01*
X94955756Y-122924729D01*
X94956361Y-122923300D01*
X94956392Y-122923186D01*
X94972911Y-122861534D01*
X94989947Y-122799965D01*
X94989947Y-122799958D01*
X94989976Y-122799854D01*
X94990172Y-122798375D01*
X94990302Y-122797419D01*
X94990500Y-122796002D01*
X94990500Y-122732564D01*
X94990504Y-122731554D01*
X95016734Y-119509993D01*
X95021022Y-118983389D01*
X101039500Y-118983389D01*
X101039500Y-119156611D01*
X101066598Y-119327701D01*
X101120127Y-119492445D01*
X101198768Y-119646788D01*
X101300586Y-119786928D01*
X101423072Y-119909414D01*
X101563212Y-120011232D01*
X101717555Y-120089873D01*
X101882299Y-120143402D01*
X102053389Y-120170500D01*
X102053390Y-120170500D01*
X102226610Y-120170500D01*
X102226611Y-120170500D01*
X102397701Y-120143402D01*
X102562445Y-120089873D01*
X102716788Y-120011232D01*
X102856928Y-119909414D01*
X102979414Y-119786928D01*
X103081232Y-119646788D01*
X103159873Y-119492445D01*
X103213402Y-119327701D01*
X103240500Y-119156611D01*
X103240500Y-118983389D01*
X103230854Y-118922486D01*
X104969500Y-118922486D01*
X104969500Y-119217513D01*
X105001571Y-119461113D01*
X105008007Y-119509993D01*
X105082212Y-119786930D01*
X105084361Y-119794951D01*
X105084364Y-119794961D01*
X105197254Y-120067500D01*
X105197258Y-120067510D01*
X105344761Y-120322993D01*
X105524352Y-120557040D01*
X105524358Y-120557047D01*
X105732952Y-120765641D01*
X105732959Y-120765647D01*
X105967006Y-120945238D01*
X106222489Y-121092741D01*
X106222490Y-121092741D01*
X106222493Y-121092743D01*
X106495048Y-121205639D01*
X106780007Y-121281993D01*
X107072494Y-121320500D01*
X107072501Y-121320500D01*
X107367499Y-121320500D01*
X107367506Y-121320500D01*
X107659993Y-121281993D01*
X107944952Y-121205639D01*
X108217507Y-121092743D01*
X108472994Y-120945238D01*
X108707042Y-120765646D01*
X108915646Y-120557042D01*
X109095238Y-120322994D01*
X109242743Y-120067507D01*
X109355639Y-119794952D01*
X109431993Y-119509993D01*
X109470500Y-119217506D01*
X109470500Y-118983389D01*
X111199500Y-118983389D01*
X111199500Y-119156611D01*
X111226598Y-119327701D01*
X111280127Y-119492445D01*
X111358768Y-119646788D01*
X111460586Y-119786928D01*
X111583072Y-119909414D01*
X111723212Y-120011232D01*
X111877555Y-120089873D01*
X112042299Y-120143402D01*
X112213389Y-120170500D01*
X112213390Y-120170500D01*
X112386610Y-120170500D01*
X112386611Y-120170500D01*
X112557701Y-120143402D01*
X112722445Y-120089873D01*
X112876788Y-120011232D01*
X113016928Y-119909414D01*
X113139414Y-119786928D01*
X113241232Y-119646788D01*
X113319873Y-119492445D01*
X113373402Y-119327701D01*
X113400500Y-119156611D01*
X113400500Y-118983389D01*
X113373402Y-118812299D01*
X113319873Y-118647555D01*
X113241232Y-118493212D01*
X113139414Y-118353072D01*
X113016928Y-118230586D01*
X112876788Y-118128768D01*
X112722445Y-118050127D01*
X112557701Y-117996598D01*
X112557699Y-117996597D01*
X112557698Y-117996597D01*
X112426271Y-117975781D01*
X112386611Y-117969500D01*
X112213389Y-117969500D01*
X112173728Y-117975781D01*
X112042302Y-117996597D01*
X111877552Y-118050128D01*
X111723211Y-118128768D01*
X111666289Y-118170125D01*
X111583072Y-118230586D01*
X111583070Y-118230588D01*
X111583069Y-118230588D01*
X111460588Y-118353069D01*
X111460588Y-118353070D01*
X111460586Y-118353072D01*
X111443643Y-118376392D01*
X111358768Y-118493211D01*
X111280128Y-118647552D01*
X111226597Y-118812302D01*
X111200432Y-118977507D01*
X111199500Y-118983389D01*
X109470500Y-118983389D01*
X109470500Y-118922494D01*
X109431993Y-118630007D01*
X109355639Y-118345048D01*
X109242743Y-118072493D01*
X109211519Y-118018412D01*
X109095238Y-117817006D01*
X108915647Y-117582959D01*
X108915641Y-117582952D01*
X108707047Y-117374358D01*
X108707040Y-117374352D01*
X108472993Y-117194761D01*
X108217510Y-117047258D01*
X108217500Y-117047254D01*
X107944961Y-116934364D01*
X107944954Y-116934362D01*
X107944952Y-116934361D01*
X107659993Y-116858007D01*
X107611113Y-116851571D01*
X107367513Y-116819500D01*
X107367506Y-116819500D01*
X107072494Y-116819500D01*
X107072486Y-116819500D01*
X106794085Y-116856153D01*
X106780007Y-116858007D01*
X106605428Y-116904785D01*
X106495048Y-116934361D01*
X106495038Y-116934364D01*
X106222499Y-117047254D01*
X106222489Y-117047258D01*
X105967006Y-117194761D01*
X105732959Y-117374352D01*
X105732952Y-117374358D01*
X105524358Y-117582952D01*
X105524352Y-117582959D01*
X105344761Y-117817006D01*
X105197258Y-118072489D01*
X105197254Y-118072499D01*
X105084364Y-118345038D01*
X105084361Y-118345048D01*
X105034775Y-118530109D01*
X105008008Y-118630004D01*
X105008006Y-118630015D01*
X104969500Y-118922486D01*
X103230854Y-118922486D01*
X103213402Y-118812299D01*
X103159873Y-118647555D01*
X103081232Y-118493212D01*
X102979414Y-118353072D01*
X102927482Y-118301140D01*
X102893997Y-118239817D01*
X102898981Y-118170125D01*
X102940853Y-118114192D01*
X103006317Y-118089775D01*
X103034561Y-118090986D01*
X103035212Y-118091089D01*
X103035215Y-118091090D01*
X103284038Y-118130500D01*
X103284039Y-118130500D01*
X103535961Y-118130500D01*
X103535962Y-118130500D01*
X103784785Y-118091090D01*
X104024379Y-118013241D01*
X104248845Y-117898870D01*
X104452656Y-117750793D01*
X104630793Y-117572656D01*
X104778870Y-117368845D01*
X104893241Y-117144379D01*
X104971090Y-116904785D01*
X105010500Y-116655962D01*
X105010500Y-116404038D01*
X104971090Y-116155215D01*
X104893241Y-115915621D01*
X104893239Y-115915618D01*
X104893239Y-115915616D01*
X104851747Y-115834184D01*
X104778870Y-115691155D01*
X104759952Y-115665117D01*
X104630798Y-115487350D01*
X104630794Y-115487345D01*
X104452654Y-115309205D01*
X104452649Y-115309201D01*
X104248847Y-115161131D01*
X104024383Y-115046760D01*
X103784785Y-114968910D01*
X103535962Y-114929500D01*
X103284038Y-114929500D01*
X103159626Y-114949205D01*
X103035214Y-114968910D01*
X102795616Y-115046760D01*
X102571153Y-115161131D01*
X102367350Y-115309201D01*
X102367345Y-115309205D01*
X102189205Y-115487345D01*
X102189201Y-115487350D01*
X102041132Y-115691151D01*
X101926760Y-115915616D01*
X101848910Y-116155214D01*
X101848910Y-116155215D01*
X101809500Y-116404038D01*
X101809500Y-116655962D01*
X101811806Y-116670520D01*
X101848910Y-116904785D01*
X101926760Y-117144383D01*
X102041132Y-117368848D01*
X102189201Y-117572649D01*
X102189205Y-117572654D01*
X102189207Y-117572656D01*
X102367344Y-117750793D01*
X102367345Y-117750794D01*
X102367344Y-117750794D01*
X102373661Y-117755383D01*
X102416327Y-117810714D01*
X102422305Y-117880327D01*
X102389699Y-117942122D01*
X102328860Y-117976479D01*
X102281378Y-117978174D01*
X102226611Y-117969500D01*
X102053389Y-117969500D01*
X102013728Y-117975781D01*
X101882302Y-117996597D01*
X101717552Y-118050128D01*
X101563211Y-118128768D01*
X101506289Y-118170125D01*
X101423072Y-118230586D01*
X101423070Y-118230588D01*
X101423069Y-118230588D01*
X101300588Y-118353069D01*
X101300588Y-118353070D01*
X101300586Y-118353072D01*
X101283643Y-118376392D01*
X101198768Y-118493211D01*
X101120128Y-118647552D01*
X101066597Y-118812302D01*
X101040432Y-118977507D01*
X101039500Y-118983389D01*
X95021022Y-118983389D01*
X95027644Y-118170125D01*
X95095441Y-109843490D01*
X95115671Y-109776613D01*
X95168846Y-109731290D01*
X95219437Y-109720500D01*
X98555890Y-109720500D01*
X98555892Y-109720500D01*
X98683186Y-109686392D01*
X98797314Y-109620500D01*
X98890500Y-109527314D01*
X98956392Y-109413186D01*
X98990500Y-109285892D01*
X98990500Y-95610834D01*
X98990574Y-95606540D01*
X98992482Y-95551481D01*
X98992481Y-95551476D01*
X98991701Y-95543390D01*
X98992163Y-95543345D01*
X98992022Y-95542107D01*
X98991561Y-95542168D01*
X98990500Y-95534111D01*
X98990500Y-95534108D01*
X98976237Y-95480878D01*
X98975217Y-95476790D01*
X98962803Y-95423082D01*
X98962800Y-95423078D01*
X98962800Y-95423074D01*
X98959954Y-95415466D01*
X98960389Y-95415303D01*
X98959930Y-95414139D01*
X98959500Y-95414318D01*
X98956390Y-95406810D01*
X98928847Y-95359104D01*
X98926763Y-95355346D01*
X98900904Y-95306742D01*
X98896182Y-95300126D01*
X98896562Y-95299854D01*
X98895820Y-95298852D01*
X98895450Y-95299137D01*
X98890499Y-95292685D01*
X98851560Y-95253746D01*
X98848576Y-95250657D01*
X98811000Y-95210383D01*
X98804726Y-95205214D01*
X98805021Y-95204855D01*
X98804043Y-95204077D01*
X98803760Y-95204447D01*
X98797318Y-95199504D01*
X98797314Y-95199500D01*
X98776111Y-95187258D01*
X98749608Y-95171956D01*
X98745929Y-95169746D01*
X98699222Y-95140578D01*
X98699220Y-95140577D01*
X98699218Y-95140576D01*
X98691826Y-95137209D01*
X98692017Y-95136788D01*
X98690868Y-95136288D01*
X98690691Y-95136717D01*
X98683189Y-95133609D01*
X98683186Y-95133608D01*
X98629948Y-95119342D01*
X98625877Y-95118175D01*
X98573184Y-95102081D01*
X98565173Y-95100743D01*
X98565249Y-95100286D01*
X98564008Y-95100101D01*
X98563948Y-95100561D01*
X98555893Y-95099500D01*
X98555892Y-95099500D01*
X98555890Y-95099500D01*
X98500836Y-95099500D01*
X98496542Y-95099426D01*
X95070206Y-94980691D01*
X95003888Y-94958696D01*
X94959989Y-94904339D01*
X94950500Y-94856765D01*
X94950500Y-90634110D01*
X94950500Y-90634108D01*
X94916392Y-90506814D01*
X94850500Y-90392686D01*
X94757314Y-90299500D01*
X94700250Y-90266554D01*
X94643187Y-90233608D01*
X94579539Y-90216554D01*
X94515892Y-90199500D01*
X94515891Y-90199500D01*
X90324500Y-90199500D01*
X90257461Y-90179815D01*
X90211706Y-90127011D01*
X90200500Y-90075500D01*
X90200500Y-86094110D01*
X90200500Y-86094108D01*
X90166392Y-85966814D01*
X90100500Y-85852686D01*
X90007314Y-85759500D01*
X89950250Y-85726554D01*
X89893187Y-85693608D01*
X89798962Y-85668361D01*
X89765892Y-85659500D01*
X89765891Y-85659500D01*
X85274500Y-85659500D01*
X85207461Y-85639815D01*
X85161706Y-85587011D01*
X85150500Y-85535500D01*
X85150500Y-81345731D01*
X85150500Y-81333904D01*
X85151472Y-81271971D01*
X85150500Y-81268101D01*
X85150500Y-81264108D01*
X85134456Y-81204232D01*
X85119366Y-81144157D01*
X85117425Y-81140670D01*
X85116392Y-81136814D01*
X85085399Y-81083133D01*
X85055273Y-81029009D01*
X85052496Y-81026143D01*
X85050500Y-81022686D01*
X85006673Y-80978859D01*
X84963561Y-80934372D01*
X84960136Y-80932322D01*
X84957314Y-80929500D01*
X84903647Y-80898515D01*
X84850481Y-80866697D01*
X84846642Y-80865603D01*
X84843186Y-80863608D01*
X84783319Y-80847566D01*
X84771984Y-80844337D01*
X84771979Y-80844335D01*
X84723733Y-80830594D01*
X84722425Y-80830401D01*
X84721872Y-80830287D01*
X84720734Y-80830137D01*
X84718854Y-80829874D01*
X84717766Y-80829713D01*
X84717202Y-80829672D01*
X84715895Y-80829500D01*
X84715892Y-80829500D01*
X84654897Y-80829500D01*
X84652951Y-80829485D01*
X80812554Y-80769209D01*
X80745832Y-80748475D01*
X80700911Y-80694959D01*
X80690500Y-80645224D01*
X80690500Y-79583389D01*
X96989500Y-79583389D01*
X96989500Y-79756610D01*
X97014954Y-79917325D01*
X97016598Y-79927701D01*
X97070127Y-80092445D01*
X97148768Y-80246788D01*
X97250586Y-80386928D01*
X97373072Y-80509414D01*
X97513212Y-80611232D01*
X97667555Y-80689873D01*
X97832299Y-80743402D01*
X98003389Y-80770500D01*
X98003390Y-80770500D01*
X98176610Y-80770500D01*
X98176611Y-80770500D01*
X98347701Y-80743402D01*
X98512445Y-80689873D01*
X98666788Y-80611232D01*
X98806928Y-80509414D01*
X98929414Y-80386928D01*
X99031232Y-80246788D01*
X99109873Y-80092445D01*
X99163402Y-79927701D01*
X99190500Y-79756611D01*
X99190500Y-79583389D01*
X99180854Y-79522486D01*
X100919500Y-79522486D01*
X100919500Y-79817513D01*
X100935845Y-79941658D01*
X100958007Y-80109993D01*
X101032212Y-80386930D01*
X101034361Y-80394951D01*
X101034364Y-80394961D01*
X101147254Y-80667500D01*
X101147258Y-80667510D01*
X101294761Y-80922993D01*
X101474352Y-81157040D01*
X101474358Y-81157047D01*
X101682952Y-81365641D01*
X101682959Y-81365647D01*
X101917006Y-81545238D01*
X102172489Y-81692741D01*
X102172490Y-81692741D01*
X102172493Y-81692743D01*
X102445048Y-81805639D01*
X102730007Y-81881993D01*
X103022494Y-81920500D01*
X103022501Y-81920500D01*
X103317499Y-81920500D01*
X103317506Y-81920500D01*
X103609993Y-81881993D01*
X103894952Y-81805639D01*
X104167507Y-81692743D01*
X104422994Y-81545238D01*
X104657042Y-81365646D01*
X104865646Y-81157042D01*
X105045238Y-80922994D01*
X105192743Y-80667507D01*
X105305639Y-80394952D01*
X105381993Y-80109993D01*
X105420500Y-79817506D01*
X105420500Y-79522494D01*
X105381993Y-79230007D01*
X105305639Y-78945048D01*
X105192743Y-78672493D01*
X105187542Y-78663485D01*
X105045238Y-78417006D01*
X104865647Y-78182959D01*
X104865641Y-78182952D01*
X104657047Y-77974358D01*
X104657040Y-77974352D01*
X104422993Y-77794761D01*
X104167510Y-77647258D01*
X104167500Y-77647254D01*
X103894961Y-77534364D01*
X103894954Y-77534362D01*
X103894952Y-77534361D01*
X103609993Y-77458007D01*
X103561113Y-77451571D01*
X103317513Y-77419500D01*
X103317506Y-77419500D01*
X103022494Y-77419500D01*
X103022486Y-77419500D01*
X102744085Y-77456153D01*
X102730007Y-77458007D01*
X102497958Y-77520184D01*
X102445048Y-77534361D01*
X102445038Y-77534364D01*
X102172499Y-77647254D01*
X102172489Y-77647258D01*
X101917006Y-77794761D01*
X101682959Y-77974352D01*
X101682952Y-77974358D01*
X101474358Y-78182952D01*
X101474352Y-78182959D01*
X101294761Y-78417006D01*
X101147258Y-78672489D01*
X101147254Y-78672499D01*
X101034364Y-78945038D01*
X101034361Y-78945048D01*
X100963303Y-79210244D01*
X100958008Y-79230004D01*
X100958006Y-79230015D01*
X100919500Y-79522486D01*
X99180854Y-79522486D01*
X99163402Y-79412299D01*
X99109873Y-79247555D01*
X99031232Y-79093212D01*
X98929414Y-78953072D01*
X98877482Y-78901140D01*
X98843997Y-78839817D01*
X98848981Y-78770125D01*
X98890853Y-78714192D01*
X98956317Y-78689775D01*
X98984561Y-78690986D01*
X98985212Y-78691089D01*
X98985215Y-78691090D01*
X99234038Y-78730500D01*
X99234039Y-78730500D01*
X99485961Y-78730500D01*
X99485962Y-78730500D01*
X99734785Y-78691090D01*
X99974379Y-78613241D01*
X100198845Y-78498870D01*
X100402656Y-78350793D01*
X100580793Y-78172656D01*
X100728870Y-77968845D01*
X100843241Y-77744379D01*
X100921090Y-77504785D01*
X100960500Y-77255962D01*
X100960500Y-77004038D01*
X100921090Y-76755215D01*
X100843241Y-76515621D01*
X100843239Y-76515618D01*
X100843239Y-76515616D01*
X100761855Y-76355892D01*
X100728870Y-76291155D01*
X100627107Y-76151090D01*
X100580798Y-76087350D01*
X100580794Y-76087345D01*
X100402654Y-75909205D01*
X100402649Y-75909201D01*
X100198848Y-75761132D01*
X100198847Y-75761131D01*
X100198845Y-75761130D01*
X100128747Y-75725413D01*
X99974383Y-75646760D01*
X99734785Y-75568910D01*
X99485962Y-75529500D01*
X99234038Y-75529500D01*
X99109626Y-75549205D01*
X98985214Y-75568910D01*
X98745616Y-75646760D01*
X98521151Y-75761132D01*
X98317350Y-75909201D01*
X98317345Y-75909205D01*
X98139205Y-76087345D01*
X98139201Y-76087350D01*
X97991132Y-76291151D01*
X97876760Y-76515616D01*
X97798910Y-76755214D01*
X97773276Y-76917060D01*
X97759500Y-77004038D01*
X97759500Y-77255962D01*
X97780791Y-77390389D01*
X97798910Y-77504785D01*
X97876760Y-77744383D01*
X97920130Y-77829500D01*
X97984805Y-77956432D01*
X97991132Y-77968848D01*
X98139201Y-78172649D01*
X98139205Y-78172654D01*
X98139207Y-78172656D01*
X98317344Y-78350793D01*
X98317345Y-78350794D01*
X98317344Y-78350794D01*
X98323661Y-78355383D01*
X98366327Y-78410714D01*
X98372305Y-78480327D01*
X98339699Y-78542122D01*
X98278860Y-78576479D01*
X98231378Y-78578174D01*
X98176611Y-78569500D01*
X98003389Y-78569500D01*
X97963728Y-78575781D01*
X97832302Y-78596597D01*
X97667552Y-78650128D01*
X97513211Y-78728768D01*
X97488924Y-78746414D01*
X97373072Y-78830586D01*
X97373070Y-78830588D01*
X97373069Y-78830588D01*
X97250588Y-78953069D01*
X97250588Y-78953070D01*
X97250586Y-78953072D01*
X97206859Y-79013256D01*
X97148768Y-79093211D01*
X97070128Y-79247552D01*
X97016597Y-79412302D01*
X96989500Y-79583389D01*
X80690500Y-79583389D01*
X80690500Y-76224110D01*
X80690500Y-76224108D01*
X80656392Y-76096814D01*
X80650924Y-76087344D01*
X80613535Y-76022584D01*
X80590500Y-75982686D01*
X80497314Y-75889500D01*
X80440250Y-75856554D01*
X80383187Y-75823608D01*
X80273757Y-75794287D01*
X80255892Y-75789500D01*
X80255891Y-75789500D01*
X76844500Y-75789500D01*
X76777461Y-75769815D01*
X76731706Y-75717011D01*
X76720500Y-75665500D01*
X76720500Y-72184110D01*
X76720500Y-72184108D01*
X76686392Y-72056814D01*
X76620500Y-71942686D01*
X76527314Y-71849500D01*
X76437248Y-71797500D01*
X76413187Y-71783608D01*
X76349539Y-71766554D01*
X76285892Y-71749500D01*
X76285891Y-71749500D01*
X71804500Y-71749500D01*
X71737461Y-71729815D01*
X71691706Y-71677011D01*
X71680500Y-71625500D01*
X71680500Y-68043898D01*
X71700185Y-67976859D01*
X71752989Y-67931104D01*
X71804377Y-67919898D01*
X112759845Y-67880500D01*
X112825892Y-67880500D01*
X112825895Y-67880498D01*
X112826367Y-67880436D01*
X112826373Y-67880436D01*
X112889479Y-67863461D01*
X112889484Y-67863482D01*
X112889592Y-67863430D01*
X112953186Y-67846392D01*
X112953199Y-67846384D01*
X112953618Y-67846210D01*
X112953634Y-67846206D01*
X113010251Y-67813445D01*
X113010253Y-67813450D01*
X113010333Y-67813397D01*
X113067314Y-67780500D01*
X113067319Y-67780494D01*
X113067390Y-67780441D01*
X113067571Y-67780302D01*
X113067695Y-67780206D01*
X113067699Y-67780204D01*
X113113986Y-67733827D01*
X113160500Y-67687314D01*
X113160506Y-67687302D01*
X113160693Y-67687060D01*
X113160785Y-67686938D01*
X113160795Y-67686929D01*
X113193347Y-67630420D01*
X113193354Y-67630424D01*
X113193398Y-67630330D01*
X113226392Y-67573186D01*
X113226395Y-67573173D01*
X113226578Y-67572734D01*
X113243349Y-67509900D01*
X113243380Y-67509783D01*
X113260500Y-67445892D01*
X113260500Y-67445882D01*
X113260501Y-67445876D01*
X113260520Y-67445735D01*
X113260563Y-67445407D01*
X113260500Y-67380038D01*
X113260500Y-63434500D01*
X113280185Y-63367461D01*
X113332989Y-63321706D01*
X113384500Y-63310500D01*
X116787206Y-63310500D01*
X116850252Y-63311210D01*
X116853026Y-63310500D01*
X116855892Y-63310500D01*
X116916815Y-63294175D01*
X116977922Y-63278538D01*
X116980419Y-63277133D01*
X116983186Y-63276392D01*
X117037800Y-63244860D01*
X117092785Y-63213935D01*
X117094833Y-63211932D01*
X117097314Y-63210500D01*
X117141920Y-63165893D01*
X117187014Y-63121804D01*
X117188473Y-63119340D01*
X117190500Y-63117314D01*
X117222038Y-63062688D01*
X117254187Y-63008426D01*
X117254959Y-63005666D01*
X117256392Y-63003186D01*
X117272718Y-62942253D01*
X117289726Y-62881524D01*
X117289725Y-62881524D01*
X117289786Y-62881310D01*
X117290046Y-62879335D01*
X117290239Y-62877929D01*
X117290500Y-62876106D01*
X117290500Y-62813477D01*
X117290508Y-62812081D01*
X117296168Y-62309500D01*
X117383514Y-54553102D01*
X117403952Y-54486290D01*
X117457268Y-54441133D01*
X117507506Y-54430500D01*
X121665890Y-54430500D01*
X121665892Y-54430500D01*
X121793186Y-54396392D01*
X121907314Y-54330500D01*
X122000500Y-54237314D01*
X122066392Y-54123186D01*
X122100500Y-53995892D01*
X122100500Y-53927882D01*
X130185669Y-53927882D01*
X130185670Y-53927883D01*
X130211059Y-53946329D01*
X130379362Y-54032085D01*
X130558997Y-54090451D01*
X130745553Y-54120000D01*
X130934447Y-54120000D01*
X131121002Y-54090451D01*
X131300637Y-54032085D01*
X131468937Y-53946331D01*
X131494328Y-53927883D01*
X131494328Y-53927882D01*
X130840001Y-53273554D01*
X130840000Y-53273554D01*
X130185669Y-53927882D01*
X122100500Y-53927882D01*
X122100500Y-52825552D01*
X129640000Y-52825552D01*
X129640000Y-53014447D01*
X129669548Y-53201002D01*
X129727914Y-53380637D01*
X129813666Y-53548933D01*
X129832116Y-53574328D01*
X130486446Y-52920000D01*
X130486446Y-52919999D01*
X130440369Y-52873922D01*
X130490000Y-52873922D01*
X130490000Y-52966078D01*
X130513852Y-53055095D01*
X130559930Y-53134905D01*
X130625095Y-53200070D01*
X130704905Y-53246148D01*
X130793922Y-53270000D01*
X130886078Y-53270000D01*
X130975095Y-53246148D01*
X131054905Y-53200070D01*
X131120070Y-53134905D01*
X131166148Y-53055095D01*
X131190000Y-52966078D01*
X131190000Y-52919999D01*
X131193554Y-52919999D01*
X131193554Y-52920000D01*
X131847882Y-53574328D01*
X131847883Y-53574328D01*
X131866331Y-53548937D01*
X131952085Y-53380637D01*
X132010451Y-53201002D01*
X132040000Y-53014447D01*
X132040000Y-52825552D01*
X132010451Y-52638997D01*
X131952085Y-52459362D01*
X131866329Y-52291059D01*
X131847883Y-52265670D01*
X131847882Y-52265669D01*
X131193554Y-52919999D01*
X131190000Y-52919999D01*
X131190000Y-52873922D01*
X131166148Y-52784905D01*
X131120070Y-52705095D01*
X131054905Y-52639930D01*
X130975095Y-52593852D01*
X130886078Y-52570000D01*
X130793922Y-52570000D01*
X130704905Y-52593852D01*
X130625095Y-52639930D01*
X130559930Y-52705095D01*
X130513852Y-52784905D01*
X130490000Y-52873922D01*
X130440369Y-52873922D01*
X129832116Y-52265669D01*
X129832116Y-52265670D01*
X129813669Y-52291060D01*
X129727914Y-52459362D01*
X129669548Y-52638997D01*
X129640000Y-52825552D01*
X122100500Y-52825552D01*
X122100500Y-51912116D01*
X130185669Y-51912116D01*
X130840000Y-52566446D01*
X130840001Y-52566446D01*
X131494328Y-51912116D01*
X131468933Y-51893666D01*
X131300637Y-51807914D01*
X131121002Y-51749548D01*
X130934447Y-51720000D01*
X130745553Y-51720000D01*
X130558997Y-51749548D01*
X130379362Y-51807914D01*
X130211060Y-51893669D01*
X130185670Y-51912116D01*
X130185669Y-51912116D01*
X122100500Y-51912116D01*
X122100500Y-45620970D01*
X122120185Y-45553931D01*
X122172989Y-45508176D01*
X122225775Y-45496977D01*
X126371242Y-45539714D01*
X126382351Y-45540500D01*
X126384108Y-45540500D01*
X126447389Y-45540500D01*
X126510729Y-45541153D01*
X126513271Y-45540500D01*
X126515892Y-45540500D01*
X126577015Y-45524122D01*
X126638368Y-45508359D01*
X126640653Y-45507070D01*
X126643186Y-45506392D01*
X126697993Y-45474748D01*
X126753169Y-45443647D01*
X126755043Y-45441811D01*
X126757314Y-45440500D01*
X126802077Y-45395736D01*
X126847311Y-45351426D01*
X126848645Y-45349168D01*
X126850500Y-45347314D01*
X126882142Y-45292507D01*
X126914376Y-45237984D01*
X126915081Y-45235456D01*
X126916392Y-45233186D01*
X126932776Y-45172039D01*
X126949794Y-45111048D01*
X126949794Y-45111044D01*
X126949846Y-45110858D01*
X126950078Y-45109096D01*
X126950254Y-45107809D01*
X126950500Y-45106079D01*
X126950500Y-45043189D01*
X126950507Y-45041910D01*
X126951171Y-44977522D01*
X126950500Y-44966399D01*
X126950500Y-41054500D01*
X126970185Y-40987461D01*
X127022989Y-40941706D01*
X127074500Y-40930500D01*
X131126382Y-40930500D01*
X131136511Y-40931116D01*
X131138796Y-40931094D01*
X131138798Y-40931095D01*
X131202338Y-40930500D01*
X131265892Y-40930500D01*
X131268193Y-40929883D01*
X131270576Y-40929861D01*
X131331777Y-40912846D01*
X131393186Y-40896392D01*
X131395251Y-40895199D01*
X131397545Y-40894562D01*
X131452236Y-40862298D01*
X131507314Y-40830500D01*
X131509000Y-40828813D01*
X131511051Y-40827604D01*
X131555513Y-40782300D01*
X131600500Y-40737314D01*
X131600501Y-40737311D01*
X131600605Y-40737208D01*
X131601543Y-40735962D01*
X131602260Y-40735019D01*
X131603282Y-40733687D01*
X131603360Y-40733549D01*
X131634591Y-40678265D01*
X131666392Y-40623186D01*
X131667008Y-40620883D01*
X131668181Y-40618809D01*
X131684052Y-40557275D01*
X131700500Y-40495892D01*
X131700500Y-40493508D01*
X131701095Y-40491202D01*
X131700505Y-40428202D01*
X131700500Y-40427041D01*
X131700500Y-40361830D01*
X131699788Y-40351698D01*
X131616308Y-31438024D01*
X131635364Y-31370807D01*
X131687737Y-31324560D01*
X131738789Y-31312876D01*
X139513993Y-31218161D01*
X139581264Y-31237028D01*
G37*
%TD.AperFunction*%
%TA.AperFunction,Conductor*%
G36*
X138983804Y-97563185D02*
G01*
X139004446Y-97579819D01*
X149129001Y-107704374D01*
X149129011Y-107704385D01*
X149133341Y-107708715D01*
X149133342Y-107708716D01*
X149245146Y-107820520D01*
X149245148Y-107820521D01*
X149245152Y-107820524D01*
X149382071Y-107899573D01*
X149382078Y-107899577D01*
X149493881Y-107929534D01*
X149534804Y-107940500D01*
X149534805Y-107940500D01*
X152094281Y-107940500D01*
X152161320Y-107960185D01*
X152204765Y-108008205D01*
X152224947Y-108047814D01*
X152224948Y-108047815D01*
X152349890Y-108219786D01*
X152500213Y-108370109D01*
X152672182Y-108495050D01*
X152680946Y-108499516D01*
X152731742Y-108547491D01*
X152748536Y-108615312D01*
X152725998Y-108681447D01*
X152680946Y-108720484D01*
X152672182Y-108724949D01*
X152500213Y-108849890D01*
X152349890Y-109000213D01*
X152224948Y-109172184D01*
X152224947Y-109172185D01*
X152204765Y-109211795D01*
X152156791Y-109262591D01*
X152094281Y-109279500D01*
X142722097Y-109279500D01*
X142655058Y-109259815D01*
X142634416Y-109243181D01*
X134493618Y-101102383D01*
X134460133Y-101041060D01*
X134462183Y-101012396D01*
X134460000Y-101012396D01*
X134460000Y-100061012D01*
X134517007Y-100093925D01*
X134644174Y-100128000D01*
X134775826Y-100128000D01*
X134902993Y-100093925D01*
X134960000Y-100061012D01*
X134960000Y-100955230D01*
X135026126Y-100944757D01*
X135026129Y-100944757D01*
X135228217Y-100879095D01*
X135417557Y-100782620D01*
X135589458Y-100657728D01*
X135703133Y-100544053D01*
X135764456Y-100510568D01*
X135834148Y-100515552D01*
X135890082Y-100557423D01*
X135906997Y-100588401D01*
X135956202Y-100720328D01*
X135956206Y-100720335D01*
X136042452Y-100835544D01*
X136042455Y-100835547D01*
X136157664Y-100921793D01*
X136157671Y-100921797D01*
X136292517Y-100972091D01*
X136292516Y-100972091D01*
X136299444Y-100972835D01*
X136352127Y-100978500D01*
X138147872Y-100978499D01*
X138207483Y-100972091D01*
X138342331Y-100921796D01*
X138457546Y-100835546D01*
X138543796Y-100720331D01*
X138594091Y-100585483D01*
X138600500Y-100525873D01*
X138600499Y-98730128D01*
X138594091Y-98670517D01*
X138593002Y-98667598D01*
X138543797Y-98535671D01*
X138543793Y-98535664D01*
X138457547Y-98420455D01*
X138457544Y-98420452D01*
X138342335Y-98334206D01*
X138342328Y-98334202D01*
X138207482Y-98283908D01*
X138207483Y-98283908D01*
X138147883Y-98277501D01*
X138147881Y-98277500D01*
X138147873Y-98277500D01*
X138147864Y-98277500D01*
X136352129Y-98277500D01*
X136352123Y-98277501D01*
X136292516Y-98283908D01*
X136157671Y-98334202D01*
X136157664Y-98334206D01*
X136042455Y-98420452D01*
X136042452Y-98420455D01*
X135956206Y-98535664D01*
X135956202Y-98535671D01*
X135906997Y-98667598D01*
X135865126Y-98723532D01*
X135799661Y-98747949D01*
X135731388Y-98733097D01*
X135703134Y-98711946D01*
X135589464Y-98598276D01*
X135589459Y-98598272D01*
X135417557Y-98473379D01*
X135228215Y-98376903D01*
X135026124Y-98311241D01*
X134960000Y-98300768D01*
X134960000Y-99194988D01*
X134902993Y-99162075D01*
X134775826Y-99128000D01*
X134644174Y-99128000D01*
X134517007Y-99162075D01*
X134460000Y-99194988D01*
X134460000Y-98300768D01*
X134459999Y-98300768D01*
X134393875Y-98311241D01*
X134191784Y-98376903D01*
X134002442Y-98473379D01*
X133830540Y-98598272D01*
X133830535Y-98598276D01*
X133680276Y-98748535D01*
X133680272Y-98748540D01*
X133555378Y-98920443D01*
X133550762Y-98929502D01*
X133502784Y-98980295D01*
X133434963Y-98997087D01*
X133368829Y-98974546D01*
X133329794Y-98929493D01*
X133325051Y-98920184D01*
X133325049Y-98920181D01*
X133325048Y-98920179D01*
X133200109Y-98748213D01*
X133049786Y-98597890D01*
X132877820Y-98472951D01*
X132688414Y-98376444D01*
X132688413Y-98376443D01*
X132688412Y-98376443D01*
X132486243Y-98310754D01*
X132486241Y-98310753D01*
X132486240Y-98310753D01*
X132324957Y-98285208D01*
X132276287Y-98277500D01*
X132063713Y-98277500D01*
X132015042Y-98285208D01*
X131853760Y-98310753D01*
X131651585Y-98376444D01*
X131462179Y-98472951D01*
X131290211Y-98597892D01*
X131290203Y-98597899D01*
X131270518Y-98617583D01*
X131209194Y-98651065D01*
X131139502Y-98646078D01*
X131095160Y-98617579D01*
X130593936Y-98116355D01*
X130593934Y-98116352D01*
X130475063Y-97997481D01*
X130475062Y-97997480D01*
X130388250Y-97947360D01*
X130388250Y-97947359D01*
X130388246Y-97947358D01*
X130338131Y-97918423D01*
X130185403Y-97877499D01*
X130027289Y-97877499D01*
X130019693Y-97877499D01*
X130019677Y-97877500D01*
X129074594Y-97877500D01*
X129033673Y-97888464D01*
X129033673Y-97888465D01*
X128996405Y-97898451D01*
X128921868Y-97918423D01*
X128921863Y-97918426D01*
X128784944Y-97997475D01*
X128784936Y-97997481D01*
X128673132Y-98109286D01*
X115229238Y-111553181D01*
X115167915Y-111586666D01*
X115141557Y-111589500D01*
X110197828Y-111589500D01*
X110130789Y-111569815D01*
X110085034Y-111517011D01*
X110075090Y-111447853D01*
X110104115Y-111384297D01*
X110110147Y-111377819D01*
X119808146Y-101679819D01*
X119869469Y-101646334D01*
X119895827Y-101643500D01*
X123476469Y-101643500D01*
X123476485Y-101643501D01*
X123484081Y-101643501D01*
X123642192Y-101643501D01*
X123642195Y-101643501D01*
X123794923Y-101602577D01*
X123845042Y-101573639D01*
X123931854Y-101523520D01*
X124043658Y-101411716D01*
X124043658Y-101411714D01*
X124053866Y-101401507D01*
X124053867Y-101401504D01*
X127875555Y-97579819D01*
X127936878Y-97546334D01*
X127963236Y-97543500D01*
X138916765Y-97543500D01*
X138983804Y-97563185D01*
G37*
%TD.AperFunction*%
%TD*%
M02*
