%TF.GenerationSoftware,KiCad,Pcbnew,10.0.6*%
%TF.CreationDate,2026-10-09T15:54:34-05:00*%
%TF.ProjectId,pcb,7063622e-6b69-4636-9164-5f7063625858,rev?*%
%TF.SameCoordinates,Original*%
%TF.FileFunction,Soldermask,Top*%
%TF.FilePolarity,Negative*%
%FSLAX46Y46*%
G04 Gerber Fmt 4.6, Leading zero omitted, Abs format (unit mm)*
G04 Created by KiCad (PCBNEW 10.0.6) date 2026-10-09 15:54:34*
%MOMM*%
%LPD*%
G01*
G04 APERTURE LIST*
G04 Aperture macros list*
%AMRoundRect*
0 Rectangle with rounded corners*
0 $1 Rounding radius*
0 $2 $3 $4 $5 $6 $7 $8 $9 X,Y pos of 4 corners*
0 Add a 4 corners polygon primitive as box body*
4,1,4,$2,$3,$4,$5,$6,$7,$8,$9,$2,$3,0*
0 Add four circle primitives for the rounded corners*
1,1,$1+$1,$2,$3*
1,1,$1+$1,$4,$5*
1,1,$1+$1,$6,$7*
1,1,$1+$1,$8,$9*
0 Add four rect primitives between the rounded corners*
20,1,$1+$1,$2,$3,$4,$5,0*
20,1,$1+$1,$4,$5,$6,$7,0*
20,1,$1+$1,$6,$7,$8,$9,0*
20,1,$1+$1,$8,$9,$2,$3,0*%
G04 Aperture macros list end*
%ADD10C,1.400000*%
%ADD11R,1.700000X1.700000*%
%ADD12C,1.700000*%
%ADD13O,3.800000X2.900000*%
%ADD14O,1.700000X1.700000*%
%ADD15C,4.000000*%
%ADD16C,2.200000*%
%ADD17R,1.500000X1.500000*%
%ADD18C,1.500000*%
%ADD19RoundRect,0.550800X-0.875000X-0.500000X0.875000X-0.500000X0.875000X0.500000X-0.875000X0.500000X0*%
%ADD20RoundRect,0.275000X0.975000X0.275000X-0.975000X0.275000X-0.975000X-0.275000X0.975000X-0.275000X0*%
G04 APERTURE END LIST*
D10*
%TO.C,R1*%
X130840000Y-52920000D03*
X138460000Y-52920000D03*
%TD*%
D11*
%TO.C,J2*%
X153380000Y-104800000D03*
D12*
X153380000Y-107340000D03*
X153380000Y-109880000D03*
X153380000Y-112420000D03*
X153380000Y-114960000D03*
X153380000Y-117500000D03*
X153380000Y-120040000D03*
X153380000Y-122580000D03*
%TD*%
D13*
%TO.C,J1*%
X144616000Y-98993000D03*
X144616000Y-75879000D03*
X122264000Y-98993000D03*
X122264000Y-75879000D03*
D11*
X137250000Y-99628000D03*
D14*
X134710000Y-99628000D03*
X132170000Y-99628000D03*
X129630000Y-99628000D03*
%TD*%
D12*
%TO.C,SW1*%
X98090000Y-79670000D03*
D15*
X103170000Y-79670000D03*
D12*
X108250000Y-79670000D03*
D16*
X105710000Y-74590000D03*
X99360000Y-77130000D03*
%TD*%
D12*
%TO.C,SW2*%
X102140000Y-119070000D03*
D15*
X107220000Y-119070000D03*
D12*
X112300000Y-119070000D03*
D16*
X109760000Y-113990000D03*
X103410000Y-116530000D03*
%TD*%
D17*
%TO.C,U2*%
X137920000Y-58920000D03*
D18*
X135380000Y-58920000D03*
X132840000Y-58920000D03*
X130300000Y-58920000D03*
%TD*%
D19*
%TO.C,U1*%
X161055000Y-74160000D03*
X161055000Y-76700000D03*
X161055000Y-79240000D03*
X161055000Y-81780000D03*
X161055000Y-84320000D03*
X161055000Y-86860000D03*
X161055000Y-89400000D03*
X177220000Y-89400000D03*
X177220000Y-86860000D03*
X177220000Y-84320000D03*
X177220000Y-81780000D03*
X177220000Y-79240000D03*
X177220000Y-76700000D03*
X177220000Y-74160000D03*
D12*
X167840000Y-73148000D03*
X170380000Y-73148000D03*
X167840000Y-75688000D03*
X170380000Y-75688000D03*
X167840000Y-78228000D03*
X170380000Y-78228000D03*
D20*
X164665000Y-81398000D03*
X164665000Y-79493000D03*
%TD*%
M02*
